<?xml version="1.0" encoding="utf-8"?>
<!-- Generator: Adobe Illustrator 28.4.1, SVG Export Plug-In . SVG Version: 6.00 Build 0)  -->
<svg version="1.1" xmlns="http://www.w3.org/2000/svg" xmlns:xlink="http://www.w3.org/1999/xlink" x="0px" y="0px"
	 viewBox="0 0 1080 1080" style="enable-background:new 0 0 1080 1080;" xml:space="preserve">
<style type="text/css">
	.st0{fill:#ED1C24;}
</style>
<g id="sub-title">
	<g>
		<g>
			<g>
				<path class="st0" d="M301.55,182.74c-6.79,5.62-10.19,13.09-9.98,21.92c0.14,7.68,2.58,13.71,6.9,18.16
					c3.95,4.07,8.75,6.55,14.3,7.62c6.71,1.19,12.52-0.41,17.73-4.86c2.2-1.88,3.63-4.1,4.3-6.71c0.66-2.62,0.35-4.78-1.03-6.5
					c-0.74-0.93-2.01-1.51-3.8-1.68c-1.78-0.16-3.29,0.23-4.48,1.22c-2.39,1.98-3.89,3.68-4.52,5.05c-0.73,1.79-0.36,3.52,1.1,5.17
					c0.83,0.96,2.65,1.17,5.48,0.75l-0.07,0.31c-3.71,3.18-7.81,4.25-12.47,3.23c-3.78-0.82-7.05-2.63-9.81-5.58
					c-4.35-4.64-6.47-10.48-6.04-17.63c0.5-7.88,4.15-15.15,10.91-21.31L301.55,182.74z"/>
			</g>
			<g>
				<path class="st0" d="M363.35,141.28c-22.76,12.18-44.23,26.72-64,43.3c5.45-0.64,8.64-1.1,9.56-1.61
					c3.31,0.35,6.95-0.84,11.06-3.46c5.46-3.47,8.77-5.25,9.82-5.54c3.66-0.97,7.11,0.39,10.33,3.98
					c-1.85,8.88-3.17,13.76-4.54,14.76c-1.14,0.85-2.76,1.02-4.88,0.57c-1.87-0.4-3.22-1-4.05-1.79l-1.67,5.1
					c7.1,1.97,11.57,2.55,13.62,1.51c0.83,0.09,2.39-0.71,4.72-2.38c2.26-1.62,3.74-4.25,4.52-7.97c0.44-3.26,0.99-6.53,1.65-9.81
					c0.74-3.64,2.3-6.2,4.62-7.63c1.46-0.91,3.53-1.41,6.15-1.52c2.63-0.09,4.21,0.37,4.78,1.35l10.91,18.77
					c2.67,0.52,5.32,1.07,7.95,1.66l-23.49-42.23c3.8-2.12,7.64-4.15,11.51-6.14L363.35,141.28z M355.17,164.81
					c-3.5-0.38-6.17,0.01-7.94,1.14c-0.69,0.44-1.71,1.66-2.98,3.7l-2.72,4.28l-1.3-1.95c-1.73-2.59-5.99-3.67-12.84-2.89
					c8.74-6.15,17.74-11.92,26.97-17.28l8.35,14.36C358.58,165.29,356.05,164.88,355.17,164.81z"/>
			</g>
			<g>
				<path class="st0" d="M422.15,116.01c-21.28,7.05-41.92,16.02-61.58,26.76l8.44,0.96c13.66-7.14,27.77-13.4,42.22-18.78l1.11,3
					c-12.23,7.96-23.01,17.97-31.83,29.64c3.86,1.23,7.68,2.53,11.44,3.9c6.35-2.61,12.12-3.69,17.16-3.34
					c3.93,0.19,8.18,1.38,12.65,3.59c4.11,2.2,8.14,4.48,12.08,6.83l-16.09-45.97c4.15-1.45,8.33-2.84,12.53-4.13L422.15,116.01z
					 M394.33,153.7c6.64-7.82,13.64-14.08,20.61-18.75l8.64,23.27C416.2,153.78,406.37,152.07,394.33,153.7z"/>
			</g>
			<g>
				<path class="st0" d="M449.34,108.15l-5.71,1.46c-1.58-0.68-2.82-1.45-3.72-2.32l-2.06-3.35l-3.06-0.7
					c2.16,7.56,4.93,13.93,8.2,19.16c-3.38-3.88-6.13-6.22-8.14-6.99c-3.3-1.45-7.96-1.27-13.88,0.7c-1.82,0.61-3.7,1.34-5.62,2.23
					l8.46,2.09c3.99-1.57,7.68-1.92,11.01-1.03c3.33,0.87,5.35,2.72,6.12,5.44l9.7,34.04l6.9,3.18l-12.71-47.89
					c4.16-1.09,8.33-2.13,12.54-3.09C454.73,110.08,452.04,109.1,449.34,108.15z"/>
			</g>
			<g>
				<path class="st0" d="M514.54,97.95l-5.87,0.44c0.32-8.71-9.34-12.71-28.83-9.77c-1.96,0.3-4.84,0.93-8.64,1.93
					c-3.8,1-6.65,1.73-8.59,2.12c-2.43,0.5-4.79,0.55-7.11,0.18c-2.63-0.38-4.11-1.23-4.43-2.63c-0.38-1.63,0.49-3.2,2.66-4.63
					l-2.71,0.41c-0.99,0.17-1.96,1.07-2.86,2.71c-0.9,1.64-1.26,2.8-1.09,3.47c0.77,3.18,3.95,5.07,9.43,5.84
					c4.66,0.63,9.62,0.45,14.98-0.52l10.31-2.06c4.58-0.93,8.05-1.49,10.37-1.79c2.23-0.26,4.38-0.35,6.45-0.18
					c2.87,0.26,4.34,0.94,4.45,2.01c0.11,1.12-1.05,2.12-3.46,3.01c-1.86,0.69-3.78,1.18-5.78,1.42
					c-15.78,1.94-31.44,4.88-46.84,8.82l8.07,2.97c7.23-1.69,14.5-3.19,21.82-4.43c3.24,1.03,4.9,1.95,5.02,2.69l-0.11,0.21
					c-3.95,0.76-7.36,2.42-10.14,4.92c-2.78,2.51-3.87,5.07-3.34,7.65c0.28,1.36,1.3,2.26,3.05,2.79c1.77,0.52,3.64,0.58,5.68,0.22
					c3-0.55,5.69-1.9,8.09-4.09c2.41-2.2,3.5-4.31,3.19-6.44c1.05-0.46,2.13-0.79,3.22-0.92c2.74-0.37,5.06,0.13,6.92,1.46
					c1.85,1.33,2.88,2.99,3.09,4.93c0.28,2.57-2.04,5.01-6.81,7.47c-4.02,2.04-7.99,3.4-11.97,4.07
					c-6.95,1.17-13.33,1.17-19.35-0.06c3.46,3.26,6.85,6.56,10.15,9.9c9.42-0.2,18.63,0.99,27.39,3.58
					c8.95,2.73,16.42,6.67,22.4,11.44l-2.31-6.3c-10.96-6.9-20.66-11.19-28.35-13.28c7.18-4.12,11.32-6.24,12.05-6.77
					c3.85-2.78,5.69-5.99,5.39-9.68c-0.33-3.95-2.35-6.96-6.18-8.99c-1.96-0.99-5.61-2.12-11.03-3.2c-4.26-0.85-6.73-1.79-7.38-2.98
					c12.06-1.78,24.22-2.96,36.39-3.55C519.5,100.87,517.04,99.38,514.54,97.95z"/>
			</g>
			<g>
				<path class="st0" d="M638.58,110.21c-28.28-7.7-57.47-12.03-86.75-12.92l6.94,5.09c22.5,1.14,44.92,4.29,66.87,9.5l-7.14,30.12
					c-1.44-3.51-2.94-7.02-4.5-10.5c0.43-0.74,0.75-1.55,0.93-2.41c0.91-4.18-0.48-8.47-4.39-12.81c-3.91-4.34-9.03-7.03-15.16-7.96
					c-3.43-0.52-6.45-0.41-8.98,0.28c-3.13,0.82-4.79,2.31-5.03,4.43c-0.21,1.88,0.75,3.56,2.86,5.05c2.11,1.51,4.5,2.43,7.18,2.83
					c4.57,0.66,7.86-0.43,9.96-3.39c2.09,0.29,3.61,1.74,4.53,4.26c0.81,2.08,1.05,3.96,0.73,5.62c-0.46,2.35-2.05,4-4.74,5.02
					c-2.69,1.01-5.7,1.24-9.07,0.73c-7.96-1.24-14.16-4.59-18.93-10.38c-2.67-3.17-5.67-8.7-9.27-16.53l-4.28-1.5
					c1.66,7.67,5.17,14.86,10.27,21.69c6.45,8.69,13.58,13.56,22.11,14.91c6.25,0.99,11.71-0.33,16.68-4.06
					c5.89,7.72,8.78,14.81,9.18,21.06l1.92,1.95l12.03-46.7c3.94,1,7.86,2.1,11.76,3.24C642.41,114.62,640.52,112.39,638.58,110.21z
					"/>
			</g>
			<g>
				<path class="st0" d="M667.21,119.25l-5.56-1.96c-0.93-1.44-1.53-2.77-1.79-3.99l0.15-3.93l-2.15-2.29
					c-2.42,7.49-3.66,14.33-3.85,20.48c-0.65-5.1-1.64-8.58-2.87-10.34c-1.93-3.05-5.92-5.49-11.93-7.14
					c-1.85-0.51-3.82-0.94-5.91-1.27c1.99,2.13,3.95,4.29,5.86,6.45c4.19,0.91,7.46,2.68,9.73,5.27c2.27,2.58,2.93,5.23,2.06,7.93
					l-10.88,33.68c1.36,2.15,2.68,4.32,3.97,6.49l16.07-46.87c4.07,1.41,8.12,2.86,12.14,4.41
					C670.61,123.85,668.93,121.55,667.21,119.25z"/>
			</g>
			<g>
				<path class="st0" d="M728.31,147.79c-20.32-11.83-41.75-21.75-63.95-29.55c1.77,2.32,3.5,4.66,5.2,7.01l7.54,2.91l-9.98,25
					c1.92,3.1,3.78,6.21,5.57,9.34c3.69-2.93,8.38-4.95,14.06-5.91c5.69-0.96,11.67-0.69,17.84,0.84c-3.41,3.19-5.91,6.39-7.55,9.57
					c-2,3.86-3.8,10.33-5.71,19.28l2.99,3.44c1.79-6.34,3.35-10.88,4.82-13.6c3.22-5.97,9.3-11.22,18.66-15.22
					c-2.44-3.76-4.97-7.47-7.6-11.19c-5.08-1.13-10.91-1.67-17.35-1.51c-5.49,0.26-10.96,0.63-16.41,1.12l7.73-18.25
					c16.55,7.01,32.57,15.23,47.91,24.56C730.87,153.03,729.61,150.4,728.31,147.79z"/>
			</g>
			<g>
				<path class="st0" d="M790.02,192.7c-3.33-3.4-4.14-6.53-2.37-9.49c-0.51-1.92-1.04-3.62-1.6-5.07
					c-3.59,4.7-8.09,11.44-13.63,20.11c0.53-2.33,0.49-6.32-0.32-12.03c-0.94-6.46-2.45-10.41-4.27-11.81
					c-2.96-2.27-6.36-3.65-10.14-4.1c-3.25-0.38-6.27-0.03-9.01,0.97c0.8-2.29,0.37-5.06-1.32-8.33c-1.7-3.26-4.11-5.9-7.18-7.84
					c-4.33-2.74-8.71-5.4-13.15-7.96l3.7,7.77c5.37,3.18,8.57,5.36,9.71,6.39c2.68,2.47,3.89,5.42,3.66,8.73
					c-2.89-1.2-5.95-1.59-9.12-1.18c-3.17,0.42-5.31,1.56-6.45,3.36c-0.9,1.43-1.05,3.14-0.45,5.11c0.59,1.98,1.84,3.59,3.76,4.87
					c1.85,1.22,3.9,1.95,6.18,2.18c2.27,0.24,4.22,0.01,5.83-0.7c0.31,4.39,2,7.7,5.13,10.06c4.54,3.42,8.01,3.61,10.57,0.41
					c1.16-1.47,1.4-3.6,0.63-6.34c-0.44-1.39-1.48-3.8-3.17-7.28c0.6-0.81,1.88-0.95,3.83-0.41c1.7,0.4,3.18,1.12,4.45,2.1
					c1.94,1.51,3.29,4.38,3.97,8.57c0.67,4.18,0.38,6.95-0.75,8.29l-19.32,22.07c0.65,2.61,1.25,5.23,1.82,7.84l31.7-36.47
					c3.18,2.75,6.3,5.58,9.38,8.44C791.42,198.21,790.75,195.45,790.02,192.7z"/>
			</g>
			<g>
				<path class="st0" d="M812.73,181c-15.31-5.18-30.65-9.25-45.85-12.28c4.64,3.48,9.2,7.07,13.69,10.75
					c12.09,1.53,24.32,3.71,36.63,6.57L812.73,181z"/>
			</g>
		</g>
	</g>
</g>
<g id="title">
	<g>
		<g>
			<g>
				<path class="st0" d="M191.97,805.07c-14.49-15.15-27.99-31.24-40.43-48.11l-0.7,8.78c8.92,11.78,18.36,23.17,28.3,34.1
					l-2.86,2.6c-12.19-7.68-25.44-14.48-39.97-20.73c-0.9,4.51-1.72,9.03-2.49,13.59c4.34,6.17,7.13,11.99,8.36,17.62
					c1.04,4.37,1.22,9.47,0.59,15.37c-0.77,5.49-1.48,11.04-2.09,16.61l42.99-40.16c2.87,3.08,5.8,6.12,8.75,9.14L191.97,805.07z
					 M143.2,795.3c10.32,4.35,19.1,8.65,26.41,13.2l-22.19,20.17C149.27,818.59,147.71,807.57,143.2,795.3z"/>
			</g>
			<g>
				<path class="st0" d="M210.79,823.68l-4-3.78c-0.03-1.8,0.22-3.38,0.7-4.72l2.46-3.97l-0.49-3.03
					c-6.67,6.78-11.91,13.3-15.63,19.64c2.34-5.58,3.52-9.46,3.5-11.75c0.12-3.84-1.83-7.8-5.85-12.01c-1.23-1.3-2.6-2.6-4.12-3.88
					l0.62,8.96c3.07,2.75,4.81,5.87,5.3,9.4c0.47,3.55-0.46,6.55-2.85,8.98l-29.98,30.48l0.99,9.22L202.85,824
					c2.98,2.85,5.99,5.67,9.04,8.44L210.79,823.68z"/>
			</g>
			<g>
				<path class="st0" d="M220.93,866.29c3.89-0.23,6.88-1.72,9.01-4.39c2.23-2.8,3-6.15,2.42-10.04c-0.57-3.91-2.45-7.15-5.6-9.84
					c-2.97-2.49-6.44-3.74-10.55-3.69c-4.08,0.01-7.24,1.21-9.43,3.64c-2.35,2.6-3.21,5.95-2.55,10.11
					c0.7,4.13,2.69,7.68,6.05,10.48C213.46,865.29,217.06,866.5,220.93,866.29z M210.07,908.39c-3.82-22.56-6.8-39.68-10.44-51.85
					l-8.54,9.64c6.17,16.5,11.63,31.86,16.03,46.12L210.07,908.39z M218.96,858.48c-3.3-0.05-6.24-1.13-8.73-3.28
					c-2.06-1.79-2.16-3.74-0.31-5.86c1.7-1.94,4.24-2.97,7.57-3.09c3.31-0.12,6.14,0.73,8.44,2.68c2.31,1.92,2.5,4.07,0.53,6.49
					C224.76,857.47,222.28,858.5,218.96,858.48z"/>
			</g>
			<g>
				<path class="st0" d="M298.01,888.62c-20.68-12.02-40.43-25.62-59.1-40.57c0.62,2.96,1.22,5.96,1.91,8.92
					c14.13,11,28.86,21.23,44.11,30.6l-8.18,13.31c1.16-7.07-0.54-12-5.15-15c-1.32-0.83-3.24-1.17-5.81-0.96
					c-2.57,0.21-4.23,0.84-4.95,1.91c-1.03-6.3-3.87-11.07-8.63-14.5c-3.72-2.68-7.75-3.45-12.18-2.35
					c-3.87,0.99-7.04,3.01-9.48,6.2c-2.86,3.73-3.72,7.89-2.44,12.48c1.27,4.61,4.42,8.75,9.44,12.28c2.15,1.53,4.48,2.46,6.97,2.77
					c2.94,0.36,4.93-0.26,5.99-1.84c1.27-1.89,1.78-4.14,1.54-6.75c-0.23-2.61-1.45-4.63-3.61-6.17c-1.7-1.2-3.56-1.77-5.58-1.71
					c-2.02,0.04-3.52,0.73-4.5,2.09c-0.9,1.23-1.22,2.83-0.96,4.79c-4.69-4.41-5.69-8.37-3.1-11.83c1.72-2.31,4.15-3.47,7.33-3.59
					c3.17-0.12,6.16,0.87,9.06,2.9c2.88,2.06,5.02,4.69,6.4,8.01c1.38,3.31,1.62,6.28,0.63,8.97l3,0.9c0.6-1.43,1.17-2.56,1.7-3.38
					c1.96-2.98,4.5-3.47,7.62-1.46c1.83,1.19,3.15,2.92,3.94,5.26c0.8,2.33,0.75,4.25-0.16,5.74l-16.55,26.9l3.58,8.7l29.9-50.14
					c3.47,2.05,6.95,4.1,10.47,6.06C300.11,894.31,299.03,891.48,298.01,888.62z"/>
			</g>
			<g>
				<path class="st0" d="M322.54,901.97l-4.91-2.52c-0.52-1.73-0.73-3.3-0.64-4.72l1.25-4.5l-1.32-2.77
					c-4.51,8.37-7.72,16.1-9.51,23.22c0.67-5.99,0.74-10.1,0.08-12.27c-0.96-3.72-3.94-6.98-8.97-9.9
					c-1.54-0.91-3.23-1.74-5.04-2.56l3.1,8.43c3.71,1.78,6.25,4.29,7.71,7.55c1.45,3.26,1.39,6.41-0.23,9.42L283.8,949l3.53,8.58
					L315,904.51c3.66,1.9,7.33,3.78,11.04,5.57C324.85,907.38,323.67,904.69,322.54,901.97z"/>
			</g>
			<g>
				<path class="st0" d="M358.08,918.2c-12.93-5.28-25.63-11.13-38.05-17.51l3.4,8.24c6.13,3.05,12.33,5.94,18.58,8.75
					c-12.02,4.5-20.37,10.73-24.52,19.37c-2.95,6.15-3.89,12.46-2.66,19c1.46,7.88,6.1,13.58,13.75,16.81
					c3.35,1.42,6.61,1.8,9.76,1.13c3.13-0.66,5.18-2.24,6.15-4.71c1.08-2.76,0.38-5.29-2.07-7.59c-0.6-1.15-1.72-2.03-3.34-2.71
					c-1.99-0.84-4.11-1.04-6.36-0.63c-2.26,0.4-3.7,1.31-4.34,2.78c-0.87,2.02-0.36,4.56,1.66,7.53l-1.85-0.28
					c-4.05-1.76-6.69-5.26-7.79-10.53c-0.86-4.57-0.5-8.49,1.03-11.81c3.7-8,8.9-13.65,15.4-17.05c7.26-3.96,15.61-4.89,25.32-3.12
					L358.08,918.2z"/>
			</g>
			<g>
				<path class="st0" d="M418.44,938.27c-21.27-5.53-42.16-12.54-62.47-20.94l4.2,7.98l7.22,2.8l-11.52,30.41
					c2.11,3.58,4.27,7.18,6.49,10.74c4.1-3.88,9.2-6.81,15.31-8.95c6.09-2.12,12.44-3.17,19.08-3.09
					c-3.05,4.64-5.21,9.03-6.46,13.17c-1.5,5.02-2.41,13.08-2.42,24.14l4.52,3.31c0.34-7.96,1.07-13.72,2.09-17.31
					c2.26-7.9,7.9-15.62,16.46-23.49c-3.29-3.43-6.51-6.89-9.66-10.38c-5.23,0.22-11.13,1.1-17.82,2.6
					c-5.67,1.41-11.45,2.72-17.34,3.91l8.14-22.52c16.2,5.84,32.7,10.83,49.42,14.93L418.44,938.27z"/>
			</g>
			<g>
				<path class="st0" d="M488.73,951.04c-4.39-0.87-6.58-3.39-6.61-7.52c-1.31-1.55-2.51-2.86-3.6-3.91
					c-0.67,7.12-1.14,16.86-1.27,29.27c-0.79-2.69-2.96-6.6-6.36-11.88c-3.85-5.92-6.71-9.08-8.84-9.43
					c-3.46-0.53-6.89-0.06-10.41,1.61c-3,1.39-5.6,3.36-7.79,5.9c-0.09-2.87-1.42-5.69-3.99-8.39c-2.57-2.68-5.47-4.46-8.79-5.19
					c-4.67-1.1-9.32-2.24-13.95-3.45l5.1,7.3c5.84,1.35,9.43,2.29,10.78,2.88c3.2,1.51,5.23,4.1,6.16,7.83
					c-3.13,0.15-6.15,1.14-9.09,3.03c-2.96,1.91-4.74,4.09-5.32,6.59c-0.47,1.99-0.08,3.98,1.18,5.92c1.27,1.95,3.13,3.2,5.56,3.74
					c2.34,0.48,4.71,0.29,7.07-0.57c2.37-0.88,4.18-2.16,5.45-3.76c2.1,4.6,5.28,7.24,9.42,7.96c6.05,0.99,9.44-0.97,10.17-5.87
					c0.34-2.25-0.5-4.57-2.47-6.97c-1.04-1.18-3.1-3.04-6.09-5.74c0.21-1.2,1.3-2.08,3.26-2.67c1.69-0.58,3.29-0.75,4.84-0.5
					c2.36,0.4,4.82,2.45,7.47,6.28c2.66,3.82,3.91,6.74,3.63,8.85l-5.32,35.03l7.1,6.71l6.77-57.98c4,0.48,8.01,0.87,12.03,1.26
					L488.73,951.04z"/>
			</g>
			<g>
				<path class="st0" d="M593.05,950.84c-23.64,2.57-47.49,3.45-71.27,2.55c2.17,2.03,4.36,4.04,6.58,6.01
					c9.2,0.22,18.41,0.18,27.61-0.11c0.02,0.53-0.03,2.32-0.16,5.35c-0.14,3.04-0.18,5.54-0.12,7.51
					c0.34,11.86,4.1,17.74,11.28,17.37c2.99-0.14,6.79-1.72,11.28-4.76c4.49-3.04,6.97-5.74,7.53-7.99
					c2.84,2.04,4.41,4.27,4.65,6.77c0.39,4.07-1.61,7.83-6.14,11.08c-4.06,3.03-8.89,4.7-14.4,5.01c-9.84,0.56-18-3.52-24.05-11.96
					c-4.78-6.56-7.47-14.25-8.25-23.01l-3.98-1.85c1.62,15.85,5.52,27.82,11.87,35.66c6.33,7.86,15.12,11.65,25.91,11.01
					c8.59-0.51,15.08-3.11,19.32-7.64c3.97-4.29,5.54-9.71,4.82-16.29c-0.37-3.47-1.9-6.99-4.53-10.54
					c-2.93-3.75-6.22-6.15-9.93-7.23c-2.37,2.81-4.78,5.52-7.24,8.2c-3.18,3.21-6.61,4.83-10.2,5.04l-1.01-21.98
					c12.63-0.6,25.24-1.65,37.8-3.2L593.05,950.84z"/>
			</g>
			<g>
				<path class="st0" d="M621.39,946.89l-5.43,0.89c-1.45-1.07-2.56-2.2-3.33-3.39l-1.66-4.37l-2.72-1.45
					c1.35,9.41,3.38,17.52,6.18,24.34c-3.02-5.24-5.41-8.55-7.24-9.89c-2.98-2.45-7.32-3.25-13.1-2.62
					c-1.78,0.22-3.63,0.52-5.58,0.93c2.48,1.68,4.97,3.31,7.51,4.92c4.04-0.74,7.58-0.3,10.69,1.49c3.11,1.76,4.93,4.3,5.43,7.69
					l6.13,42.31c2.63,1.62,5.28,3.23,7.94,4.79l-9.36-59.12c4.08-0.63,8.14-1.36,12.19-2.08L621.39,946.89z"/>
			</g>
			<g>
				<path class="st0" d="M694.74,928.34c-24.79,8.43-50.29,14.76-76.14,19.01c2.56,1.57,5.13,3.05,7.74,4.57
					c13.58-2.43,27.04-5.42,40.36-9l1.15,4.28c-12.58,7.1-23.94,15.37-34.34,25.28c3.8,2.55,7.66,5.12,11.56,7.58
					c16.88-1.99,30.11,2.72,40.52,15.15l3.19,1.23l-12.43-43.88l1.85-0.64c4.5-1.44,9.07-1.38,13.79,0.22
					c4.72,1.6,7.76,4.25,9.01,8.02l-0.09,1.12c-2.23-1.26-4.74-1.47-7.55-0.57c-1.18,0.38-2.44,0.96-3.79,1.77
					c-2.05,2.45-2.79,4.69-2.18,6.73c0.54,1.82,1.93,3.11,4.19,3.86c2.26,0.74,4.57,0.77,6.9,0.02c3.26-1.03,5.63-2.91,7.07-5.66
					c1.44-2.72,1.7-5.38,0.81-7.97c-1.79-5.26-5.79-9.39-11.82-12.53c-6.4-3.37-12.64-4.1-19-2.3l-1.32,0.38l-1.09-3.84
					c10.02-2.84,19.96-6,29.79-9.49L694.74,928.34z M647.94,971.4c8.16-7.26,15.31-13.01,21.8-17.14l7.83,29.18
					C669.85,976.76,660.01,972.88,647.94,971.4z"/>
			</g>
			<g>
				<path class="st0" d="M788.9,873.01c-16.4-2.76-29.81-1.5-41.32,4.42c-4.67,2.39-8.55,6.4-11.87,12.05
					c-3.43,5.98-4.35,11.02-2.48,15.19c0.55,1.25,1.92,2.25,4.12,3.01l5.37,1.43c-5.25,2.42-10.52,4.78-15.85,7.01
					c2.81,0.94,5.62,1.82,8.46,2.7l9.1-4.09l21.88,47.3l9.36,1.76l-24.97-52.01c3.5-1.71,7.01-3.41,10.48-5.2
					c-2.9-0.69-5.78-1.4-8.65-2.17l-6.41,3.09l-4.53-3.66c-1.38-3.58-0.18-7.88,3.34-13.11c3.21-4.86,6.75-8.35,10.76-10.48
					c5.69-3.01,11.64-4.71,17.99-5.16c2.3-0.2,8.37,0.04,18.38,0.22L788.9,873.01z"/>
			</g>
			<g>
				<path class="st0" d="M804.83,874.46c-17.48,11.56-35.75,21.92-54.58,31.09l8.51,2.28c13.19-6.65,26.1-13.87,38.63-21.69
					l2.04,3.27c-9.73,10.64-18.82,22.41-27.58,35.6c4.28,1.7,8.57,3.29,12.93,4.9c6.84-3.18,13.09-4.85,18.84-5.06
					c4.49-0.22,9.53,0.49,15.23,2.19c5.26,1.73,10.61,3.46,15.97,5.04l-31.78-49.5c3.55-2.27,7.06-4.6,10.55-6.97L804.83,874.46z
					 M786.45,920.68c6.14-9.36,11.95-17.23,17.74-23.61l15.85,25.45C810.47,918.91,799.35,918.45,786.45,920.68z"/>
			</g>
			<g>
				<path class="st0" d="M859.77,832.28c-18.15,16.13-37.51,30.88-57.87,44.09l8.95,1.06c20.45-13.69,39.87-28.93,58.03-45.55
					C865.86,832.07,862.79,832.17,859.77,832.28z M871.05,848.34c-6.3-1.38-10.44-1.23-12.6,0.47l-0.17,0.44
					c0.65,2.33,0.64,5.61-0.15,9.77c-0.8,4.61-2.18,7.71-4.05,9.29l-0.36,0c0.12-3.02-0.3-5.1-1.25-6.29
					c-1.19-1.48-2.89-2.19-5.08-2.15c-2.18,0.05-4.18,0.78-6,2.17c-2.67,2.09-4.35,4.34-5.02,6.83c-0.66,2.49-0.19,4.85,1.44,7.05
					c2.07,2.82,5.07,4.13,9.06,3.89c3.67-0.17,7.28-1.68,10.81-4.44c3.83-3.01,6.59-6.21,8.31-9.49c1.59-3,2.53-6.74,2.8-11.17
					l0.25-0.36c0.84-0.74,2.33-0.52,4.48,0.64c1.7,0.94,2.98,1.9,3.83,2.87c2.55,2.91,3.26,6.87,2,11.92
					c-1.27,5.03-3.88,9.16-7.76,12.31c-8,6.48-17.48,8.98-27.89,7.38c-8.04-1.25-15.94-4.76-23.61-10.41l-4.28,1.55
					c12.09,8.38,21.27,13.36,27.19,15.3c12.49,4,23.93,2.08,33.51-5.62c6.74-5.47,10.63-11.98,11.52-19.34
					c0.88-6.92-1.07-12.89-5.58-17.9C880.73,851.16,876.92,849.64,871.05,848.34z"/>
			</g>
			<g>
				<path class="st0" d="M880.6,812.64l-3.92,3.88c-1.81-0.04-3.37-0.33-4.69-0.85l-3.88-2.59l-3.06,0.39
					c6.56,6.88,12.91,12.34,19.13,16.27c-5.5-2.52-9.37-3.85-11.64-3.89c-3.84-0.26-7.86,1.59-12.2,5.45c-1.33,1.2-2.66,2.53-4,3.99
					c2.99-0.07,5.97-0.19,8.97-0.33c2.87-2.95,6.01-4.64,9.58-4.98c3.54-0.37,6.51,0.66,8.88,3.13l29.49,30.96l9.24-0.68
					l-41.84-42.8c2.96-2.88,5.87-5.8,8.74-8.76L880.6,812.64z"/>
			</g>
			<g>
				<path class="st0" d="M924.62,762.47l-1.31,1.71c-2.35,3.06-5.11,3.35-8.29,0.85l-1.1-1.36l-5.05,1.05
					c3.28,2.6,7.57,5.74,12.92,9.4l13.29,8.92c-7.23-2.36-12.69-3.37-16.48-2.95c-5.41,0.52-10.5,3.61-15.44,9.29
					c-3.73,4.25-6.16,8.85-7.36,13.93c-1.29,5.71-0.33,10.21,3,13.41c1.25,1.2,3.09,1.88,5.47,1.95c2.39,0.08,4.29-0.65,5.71-2.16
					c0.97-1.02,1.97-3.33,3.04-6.85c1.05-3.53,1.9-5.72,2.64-6.55c1.68-1.87,3.11-2.3,4.39-1.19c0.85,0.75,1.33,3.88,1.28,9.41
					c0,4.83-0.31,8.45-0.79,10.89c3.7-0.38,7.44-0.79,11.15-1.27c0.46-12.63-1.36-20.25-4.71-23.1c-2.45-2.07-5.21-2.62-8.35-1.78
					c-2.85,0.85-5.55,2.78-8.2,5.73c-1.7,1.94-3.22,4.42-4.5,7.51c-2.19-6.05-0.79-11.76,4.07-17.39c3.34-3.85,8.07-5.84,14.34-6.07
					c5.87-0.32,10.55,0.81,13.99,3.55l22.88,19.03c3.81-0.61,7.68-1.22,11.52-1.92l-47.06-36.43c2.51-3.22,4.95-6.49,7.38-9.76
					L924.62,762.47z"/>
			</g>
		</g>
	</g>
</g>
<g id="frame">
	<g>
		<path class="st0" d="M913.93,687.52l-11.92-6.89c36.5-63.17,55.79-135.33,55.79-208.7c0-230.38-187.42-417.8-417.8-417.8
			s-417.8,187.43-417.8,417.8c0,73.36,19.29,145.53,55.78,208.7l-11.91,6.89c-37.7-65.26-57.63-139.81-57.63-215.58
			c0-237.96,193.59-431.56,431.56-431.56c237.96,0,431.56,193.6,431.56,431.56C971.56,547.72,951.64,622.26,913.93,687.52z"/>
	</g>
	<g>
		<path class="st0" d="M931.44,699.3l-5.95-3.46c39.41-67.72,60.25-145.15,60.25-223.9c0-245.78-199.96-445.75-445.74-445.75
			S94.25,226.15,94.25,471.94c0,78.76,20.84,156.18,60.26,223.9l-5.95,3.46c-40.03-68.77-61.19-147.39-61.19-227.36
			C87.37,222.36,290.42,19.31,540,19.31s452.63,203.05,452.63,452.63C992.63,551.91,971.47,630.53,931.44,699.3z"/>
	</g>
	<g>
		<path class="st0" d="M540,1060.69c-102.05,0-202.59-26.53-290.75-76.71c-85.49-48.65-158.09-118.6-209.97-202.27l-3.78-6.11
			l6.27-3.52c0.36-0.2,33.5-19.02,52.05-44.47c-12.98-4.77-22.37-13.89-26.88-26.36c-3.48-9.63-2.61-18.94,2.48-26.2
			c5-7.13,13.43-11.39,22.54-11.39c7.49,0,14.37,2.93,19.37,8.25c4.25,4.51,9.12,12.93,8.23,27.42c-0.37,5.98-1.81,12.08-4.32,18.24
			c19.47,0.4,41.89-8.54,61.5-24.06l5.99-4.74l4.09,6.45c77.17,121.8,209.2,194.52,353.17,194.52c143.97,0,276-72.71,353.17-194.52
			l4.09-6.45l5.99,4.74c19.34,15.29,41.44,24.07,60.65,24.06c0.28,0,0.56,0,0.85-0.01c-2.5-6.16-3.95-12.26-4.31-18.24
			c-0.89-14.49,3.98-22.91,8.23-27.42c5-5.32,11.88-8.25,19.37-8.25c9.11,0,17.53,4.26,22.54,11.39c5.08,7.26,5.97,16.56,2.48,26.2
			c-4.52,12.47-13.9,21.59-26.88,26.36c18.56,25.51,51.68,44.27,52.05,44.47l6.27,3.52l-3.78,6.11
			c-51.88,83.67-124.48,153.62-209.98,202.27C742.58,1034.16,642.04,1060.69,540,1060.69z M54.69,780.35
			c106.3,167.05,287.2,266.57,485.31,266.57s379-99.52,485.31-266.57c-11.96-7.54-38.25-25.82-53.43-49.28l-0.14,0.02l-0.1-0.17
			c-2.52,0.27-5.11,0.4-7.73,0.4c-20.53,0-42.72-7.94-63.14-22.49C820.54,830.89,686.24,903.51,540,903.51
			c-146.24,0-280.54-72.62-360.76-194.67c-20.43,14.55-42.61,22.49-63.15,22.49c-2.63,0-5.21-0.13-7.73-0.4l-0.1,0.17l-0.14-0.02
			C92.93,754.53,66.64,772.81,54.69,780.35z M91.95,677.42c-4.56,0-8.88,2.12-11.28,5.53c-2.47,3.53-2.75,8.24-0.81,13.61
			c3.34,9.22,10.8,15.83,21.24,18.96c2.8-5.87,4.38-11.59,4.71-17.04c0.46-7.58-1.1-13.51-4.52-17.15
			C98.93,678.81,95.61,677.42,91.95,677.42z M988.05,677.42c-3.65,0-6.97,1.39-9.35,3.91c-3.43,3.64-4.98,9.57-4.52,17.15
			c0.33,5.46,1.92,11.17,4.71,17.04c10.45-3.13,17.91-9.74,21.25-18.96c1.94-5.38,1.66-10.08-0.81-13.61
			C996.92,679.54,992.61,677.42,988.05,677.42z"/>
	</g>
</g>
<g id="hurricane">
	<g>
		<g>
			<path class="st0" d="M419.01,570.99l0.59-0.35c6.21-3.69,8.81-13.09,8.91-13.49l0.1-0.36l-0.01-0.37
				c-0.01-0.43-0.84-44.03-0.84-56.82c0-14.57-24.52-24-25.56-24.39l-1.48-0.56l-1.17,1.06c-2.14,1.95-8.73,7-13.4,7
				c-6.07,0-9.57-0.96-15.53-6.92l-0.75-0.76h-1.07c-19.75,0-29.33,23.75-29.72,24.76l-0.18,0.85c-0.18,4.64-1.68,45.53,0.07,52.52
				c1.49,5.94,6.6,12.33,8.74,14.81c-3.96,13.9-24.05,89.29,2.87,98.78v12.9h64.71v-13.55
				C439.93,654.99,424.21,590.01,419.01,570.99z M344.04,501.32c1.22-2.82,9.36-20.28,23.73-21.08c6.71,6.44,11.52,7.65,18.38,7.65
				c6.12,0,12.84-4.97,15.64-7.28c6.91,2.9,20.82,10.49,20.82,19c0,12.19,0.75,52.17,0.84,56.54c-0.67,2.25-2.72,7.37-5.91,9.68
				l-12.86-0.21v-24.66h-43.93v23.96l-8.98-0.14c-1.81-2.1-6.54-7.94-7.78-12.86C342.81,547.22,343.37,519.27,344.04,501.32z
				 M389.17,655.96h-11.76c-2.85,0-5.16-2.31-5.16-5.16c0-2.85,2.31-5.16,5.16-5.16h11.76c2.85,0,5.16,2.31,5.16,5.16
				C394.33,653.64,392.03,655.96,389.17,655.96z M413.52,661.29l-31.76-35.52l-29.26,36.32l0.02-0.08
				c-19.65-6.42-7.11-66.88,0-92.05l61.13,0.96C420.61,595.87,431.87,652.18,413.52,661.29z"/>
		</g>
		<g>
			<path class="st0" d="M404.84,595.95c7.18-10.45-1.96-17.63-1.96-17.63s-25.9,0-38.09,0c-12.19,0-8.27,16.97-8.27,16.97
				l24.16,20.61C380.68,615.91,397.66,606.4,404.84,595.95z"/>
		</g>
		<g>
			<path class="st0" d="M388.95,619.89l22.85,27.42c0,0-2.39-32.43-3.26-43.09C403.1,605.09,388.95,619.89,388.95,619.89z"/>
		</g>
		<g>
			<path class="st0" d="M355.44,604.22c-0.88,10.66-3.27,43.09-3.27,43.09l22.85-27.42C375.02,619.89,360.88,605.09,355.44,604.22z"
				/>
		</g>
		<g>
			<path class="st0" d="M400.69,533.49h3.98v-3.98c0-2.2-1.78-3.98-3.98-3.98h-35.97c-2.2,0-3.98,1.78-3.98,3.98v3.98h3.98H400.69z"
				/>
		</g>
		<g>
			<path class="st0" d="M348.27,683.48h-4.3v4.3c0,2.37,1.92,4.3,4.3,4.3h67.12c2.37,0,4.3-1.93,4.3-4.3v-4.3h-4.3H348.27z"/>
		</g>
	</g>
</g>
<g id="borsha">
	<g>
		<path class="st0" d="M262.95,477.63h19.82c0,0,6.4-2.73,0-10.4c-6.39-7.67-18.86-11.82-9.91-25.25
			c-9.27-1.6-23.01-4.48-20.77,25.25c-4.15,0-9.59,0-9.59,0s-3.52-16.94-25.57-16.94c-22.05,0-77.01,22.69-77.01,22.69
			s61.68,16.94,77.34,16.94c15.66,0,25.89-15.34,25.89-15.34h7.66c0,0,3.52,11.51,7.36,16.62c0,7.99,0.31,18.74,0.31,18.74
			s-9.27,3.31-7.99,14.5c1.28,11.18,7.35,10.87,9.27,10.87c1.92,0,4.48-3.51,12.15-3.51c3.84-3.84,1.32-17.55-6.07-20.46
			c0-6.39-0.64-13.42-0.64-13.42s7.99-5.07,7.03-9.72C271.26,483.53,262.95,483.88,262.95,477.63z"/>
	</g>
	<g>
		<path class="st0" d="M394.3,461.58h96.52c0,0-7.99-10.97-9.91-18c-16.94,0-89.07,1.37-89.07,1.37s-10.33-0.74-10.33,18.12
			C381.51,468.19,389.19,475.75,394.3,461.58z"/>
	</g>
	<g>
		<path class="st0" d="M500.39,469.61c1.28,3.38,3.2,9.45,6.71,12.33l-96.52-6.16c0,0-11.18-6.94-6.71-8.54L500.39,469.61z"/>
	</g>
	<g>
		<polygon class="st0" points="657.8,476.49 941.63,476.49 941.63,452.98 626.84,452.98 		"/>
	</g>
	<g>
		<polygon class="st0" points="372.26,477.63 291.21,477.63 288.35,461.58 372.26,461.58 		"/>
	</g>
</g>
<g id="top-body">
	<g>
		<path class="st0" d="M487.32,429.96c0,0,32.12,21.82,53.02,30.43c-2.92,3.69-16.75,21.52-21.51,20.14
			C514.07,479.14,489.17,445.33,487.32,429.96z"/>
	</g>
	<g>
		<path class="st0" d="M553.81,374.99v83.23c0,0,27.78-8.59,30.47-15.57C583.2,428.15,578.65,374.45,553.81,374.99z"/>
	</g>
	<g>
		<path class="st0" d="M419.35,371.58c-10.89-0.44-42.48,26.25-19.09,37.23c6.68-5.73,12.41-12.8,12.41-12.8s-5.73,15.19,6.69,19.01
			c12.41,3.82,7.64-7.64,14.32-7.16c3.82,6.21,4.78,10.02,10.98,10.02c6.2-0.95,8.11-18.62,0-29.12
			C436.54,378.26,431.28,372.06,419.35,371.58z"/>
	</g>
	<g>
		<path class="st0" d="M439.08,366.66c-8.73-0.19-16.26-2.28-15.36-9.51c0.9-7.23,13.25-14.76,21.38-12.95
			c8.13,1.81,21.38,5.42,21.38,36.44c5.72,6.63,23.79,18.97,45.78,20.18c21.98,1.2,35.23-1.51,35.23,5.12c0,6.63,0,42.16,0,42.16
			s-26.27-0.91-91.58-46.68c-5.38-7.23-9-11.74-8.4-22.58C446.91,371.9,442.08,366.72,439.08,366.66z"/>
	</g>
	<g>
		<path class="st0" d="M507.74,329.89c0,0-28.62,24.25-34.34,28.77c-3.01,7.83-6.32,32.22,31.02,32.53
			C506.83,376.12,507.74,329.89,507.74,329.89z"/>
	</g>
	<g>
		<path class="st0" d="M542.22,290.14c0,0,90.34-4.01,97.8,0c7.46,4.01,38.41,52.18,30.96,94.61
			c-7.46,42.43-20.64,53.33-79.13,60.21c-1.14-13.76-3.12-49.26-8.83-58.9c-5.73-9.63-25.3-31.91-34.34-31.62
			c0,9.94-1.81,39.45-1.81,39.45s-28.91,2.11-32.82-3.91c-0.6-11.14,0-44.27,0-44.27s26.82-23.49,28.16-28.91
			c4.36,2.41,4.96,16.25,37.48,13.09C579.11,326.73,541.18,330.64,542.22,290.14z"/>
	</g>
	<g>
		<path class="st0" d="M519.68,327.88c-0.83-5.03,4.97-26,5.43-30.07c0.45-4.07,16.5-5.87,12.66,11.76
			C533.92,327.2,520.58,333.3,519.68,327.88z"/>
	</g>
	<g>
		<path class="st0" d="M469.27,351.38c-4.75,0.23-18.54-9.27-11.3-14.47c7.23-5.2,39.78-26.22,47.02-28.26
			c7.23-2.03,16.72,7.46,7.91,14.69C504.08,330.59,469.27,351.38,469.27,351.38z"/>
	</g>
	<g>
		<path class="st0" d="M473.56,299.63c0,0-48.6,10.85-47.24-14.02c0.68-8.36,5.65-11.53,10.4-10.62
			c0.23-4.52-9.49-17.63,11.76-22.83c7.46-10.17,13.55-18.31,15.59-24.64c2.03-6.33,7.91-14.92,27.12-10.85
			c19.21,4.07,40.01,22.6,42.95,28.03c11.3,0.23,23.05,2.04,18.76,4.3c-4.29,2.26-6.77,6.56-5.88,7.23
			c0.91,0.68,7.01,4.06-12.66,4.52c0.68,4.07,4.4,5.2,7.86,7.23c3.45,2.04-0.96,4.52,0,5.43s2.77,10.4-7.18,6.55
			c-9.94-3.85-10.62-7.23-13.33-6.78c-2.72,0.45-9.95,1.58-8.82,4.29c1.14,2.71,10.85,9.04-1.58,11.3c-2.48,2.26,3.85,5.87-0.9,7.68
			c-4.75,1.81-25.54,18.09-35.49,22.15c-9.72,0-12.89-2.71-11.98-6.78c0.9-4.07,5.19-7.01,11.53-7.69
			C474.47,301.44,475.13,299.31,473.56,299.63z"/>
	</g>
</g>
<g id="komor">
	<g>
		<path class="st0" d="M527.07,490.76c-6.95-3.55-44.18,32.62-27.85,35.17c16.34,2.56,55.67,10.56,66.22,15.03
			c9.27-4.16,17.91-11.83,16.31-16.31c6.4,0.32,17.28,10.23,25.59,6.4c8.31-3.84,54.37-36.78,57.25-42.21
			c-9.28-8-29.42-19.61-37.74-19.24C618.53,469.98,557.13,506.11,527.07,490.76z"/>
	</g>
	<g>
		<path class="st0" d="M591.35,451.43c3.37-3.47,24.62,14.07,18.54,17.27c-6.08,3.2-63.94,27.5-69.54,25.58
			c-5.6-1.92-3.76-16.63,1.88-19.51C547.86,471.9,581.11,461.98,591.35,451.43z"/>
	</g>
</g>
<g id="front-leg">
	<g>
		<path class="st0" d="M507.56,536.49c4.15,0.18,51.17,17.91,63,15.67c11.83-2.24,14.07-13.75,20.78-13.11
			c6.72,0.63,9.92,6.72,21.11-0.32c11.2-7.03,31.33-24.62,34.54-28.78c0.64,7.36,0,27.5-43.49,47.01
			c-43.5,19.51-143.91,48.29-146.47,62.04c3.84,1.6,16.63-2.56,24.94-7.03c5.44,4.16,15.36,17.59,12.8,39.34
			c-2.56,21.74-19.19,59.15-19.19,69.71c0,10.55-0.96,56.92-0.32,61.71c0.64,4.79,8.64,31.34-4.16,29.42
			c-12.79-1.92-20.47-2.24-25.58-1.28c-5.12,0.96-15.36,9.28-24.3,8c-8.96-1.28-24.31-5.75-23.67-10.23
			c0.64-4.48,10.56-4.48,19.19-7.68c8.64-3.2,14.39-12.79,31.02-18.87c-0.64-11.19-5.55-91.72-5.55-108.92
			c0-17.2-5.73-52.18,1.72-67.08C451.39,591.17,489.77,535.71,507.56,536.49z"/>
	</g>
</g>
<g id="back-leg">
	<g>
		<path class="st0" d="M568.92,584.86c-1.14,5.16,29.05,78.37,42.05,79.6c13,1.24,133.41-24.56,156.35-17.68
			c6.88,9.18,21.21,26.95,20.64,36.7c0,0,3.02,23.95,1.14,25.21c3.76,0.94,14.1-2.51,16.6-9.24c2.5-6.73,0.63-39,1.57-44.64
			c0.93-5.64,15.19-34.46-4.24-33.99c-19.42,0.47-75.47,0.45-93.47-4.46c-18-4.91-58.91-12.44-69.05-7.2
			c-10.15,5.24-21.92,21.92-21.92,26.51c-4.26,0.98-5.57-3.27-1.31-15.71c4.26-12.44,18.98-49.75,17.35-69.71
			C619.9,555.49,568.92,584.86,568.92,584.86z"/>
	</g>
</g>
</svg>
