<?xml version="1.0" encoding="utf-8"?>
<!-- Generator: Adobe Illustrator 27.8.1, SVG Export Plug-In . SVG Version: 6.00 Build 0)  -->
<svg version="1.1" id="Layer_1" xmlns="http://www.w3.org/2000/svg" xmlns:xlink="http://www.w3.org/1999/xlink" x="0px" y="0px"
	 viewBox="0 0 3200 2060" style="enable-background:new 0 0 3200 2060;" xml:space="preserve">
<style type="text/css">
	.st0{fill:#0E1415;}
	.st1{fill:#101212;}
	.st2{fill:#0C1111;}
	.st3{fill:#0E1516;}
	.st4{fill:#181A1A;}
	.st5{fill:#0D1212;}
	.st6{fill:#0D1111;}
	.st7{fill:#0B1011;}
	.st8{fill:#202020;}
	.st9{fill:#161616;}
	.st10{fill:#2D3535;}
	.st11{fill:#DFE4E6;}
	.st12{fill:#CFD6D6;}
	.st13{fill:#FDFDFD;}
	.st14{fill:#080A0B;}
	.st15{fill:#FAFAFA;}
	.st16{fill:#E8ECEC;}
	.st17{fill:#F7F6F6;}
	.st18{fill:#090909;}
	.st19{fill:#0B0B0B;}
	.st20{fill:#0C0C0C;}
	.st21{fill:#080808;}
	.st22{fill:#0E0E0E;}
	.st23{fill:#090C0C;}
	.st24{fill:#FFFFFF;}
	.st25{fill:#E3E8E9;}
	.st26{fill:#F7F7F7;}
	.st27{fill:#F1F3F3;}
	.st28{fill:#EFEFEF;}
	.st29{fill:#080B0B;}
	.st30{fill-rule:evenodd;clip-rule:evenodd;}
</style>
<g>
	<path class="st0" d="M1531.6,1963.9c-5.3-2.3-9.1-3.4-14.8-4.5c-7.6,3.8-8.3,10-9.3,15.9c-2.7,15.3-10.9,20.7-26.3,12.6
		c-0.6-1.8-1.7-0.7-1.3-1.3c-1.3-0.7-3.7-1.1-4-2.4c-8.7-36.7-49.7-11.8-69.9-2.2c-9.6,4.6-20.5,8.4-30.8,5.8
		c-22.4-5.9-46.9-33.5-72.1-21.6c-1,3.7-1,6.1-1,10.1c-0.6,6.3-3.5,9.3-8.7,12.1c-3.9,0.5-6.2,0.5-10.3,0.6c-4.4,0-8.2-0.3-8.8-2
		c-9.9-31.3-31.7-19.8-53.5-14.7c-4.8,0.6-7.8,1.3-11.7,3.3c-5,8.1-12.5,10.3-20.3,15.1c-15.1,3.3-24-6.5-33.9-12.1
		c-12.2-6.9-25.1-9.9-38.2-13.2c-19-4.7-16.2,16.8-27,21.8c-2.3,1-4.5,2.4-8.8,2.6c-2.7-0.6-3.6-0.9-6-1.1
		c-4.2-2.4-7.3-4.4-10.2-9.1c-0.6-4-0.5-6.3-0.6-10.3c-11.1-16.4-22.3,2.4-35-2.1c-10.4-3.7-25.3,13.2-34.1,16.3
		c-7.5,2.6-15.6,2.6-23.6,2.6c-3.4,0-7.1-0.2-9.4-2.7c-0.8-1-1.3-2.2-2.4-2.9c-1.3-0.9-3.1-0.6-4.7-0.6c-6.8,0-11.1-5.1-16.7-8.2
		c-6.2-3.4-14-3.6-19.5-7.8c-1.8-4.6-0.6-7.1,2.3-8.9c-4.2,0.7-7.3,3.7-12.5,5.9c-9.1,2.5-14.7,7.2-20.7,14.4
		c-7.8,4.7-14.6,6.9-23.8,5.4c-8.3-11.8-17.9-16.1-32.3-13.1c-3.8,0-6-0.1-9.6-0.7c-3.1-1.5-4.7-2.5-5.5-2.4c0.5,2.2,0.2,3.1-1,5
		c-2.5,2.4-3.7,4-6,6.9c-9.3,7.5-19.2,10.7-29.9,15.8c-4.1,0.6-6.5,0.3-10.6-0.9c-19.8-8.1-37.3-16.9-56.2-26.9
		c-3.7-1.8-5.8-2.5-9.7-3.3c-14.7,3.7-9.2,22.8-24.9,25.9c-3,0.1-4.1-0.2-7-1c-10.8-6.8-13-22.2-29.7-20.1c-3.8,0.9-6.1,1.3-9.9,1.7
		c-5,0.1-8.2,0.3-12.9,2c-7.1,4.4-12.4,8.4-19.9,12.4c-7.3,2.6-13.1,4-20.6,6c-5.5,1-9.2,0.9-14.8-0.1c-4.1-1.5-6.1-2.9-8.2-6.5
		c0.6-6.8,3.8-10.8,8-12.9c6.6-3.3,4.6-7.4,3.7-13.3c18.8-11.7,36.9-20.6,58.9-25c7.1-0.8,12.2-1.7,19.1-3.6
		c16.6-3.3,31.3-2.1,47.9-1.9c3.1,0.3,4.3,0.5,7.3,1.2c6.8,2.4,11,6.7,18.6,6.2c12.3-0.8,21.8,3,32.6,8.5c3.4,2.1,5.3,3.3,8.7,5.2
		c6.4,3.1,11.3,5,18.1,1.7c34.8-16.8,75.2-23.6,113.8-23.6c8.7,0,17.4,0.4,25.7,2.6c20.3,5.4,33.9,17.9,56,17.9
		c33.4,0.1,60.8-22.6,94.9-19.8c3.6,0.3,7.2,0.8,10.5,2.1c2.6,1,4.9,2.6,7.6,3.3c7.7,2,16-3.3,23.6-1.1c1.1,0.3,2.2,0.8,3.4,1
		c1.5,0.2,3.1-0.1,4.6-0.3c16.1-2.2,34.5,5.6,48.7,12.5c8.5,4.1,17.1,8,28.2,1.5c27.4-16.2,64.3-21.8,95.5-18.8c3.2,0.3,6.6,0.8,9,3
		c1.6,1.5,2.6,3.8,4.7,4.4c2.5,0.8,5-1.2,7.2-2.7c15.3-10,53.8,7.9,68.2,15.4c13.7,7.1,23.5-4.4,35.9-11.4c15-8.5,37.9-9,54.5-9.7
		c16.2-0.7,32.4-0.6,48.6,0.6c15.2,1,26.3,6.4,40.8,9.8c8.8,2.1,15.4,4.4,23.6,7.5c5.1,2.3,8.1,5.3,13.9,4.3
		c7.7-4.3,13.4-9.2,22.7-10.6c16-2.8,30.2-9.4,46.7-10.8c29.3-2.5,68-5.6,95.9,5.8c7.4,3.1,11.9,7.3,18.8,10.9
		c6.1,3.1,10.2,6.9,17.5,4.7c25.3-7.9,48.5-18.1,75.2-21.5c21.2-2.7,42.8-2.4,63.9,0.9c20.4,3.2,37.9,13.3,57.8,18.9
		c27.1,7.6,54.4-21.7,80.3-23.4c7.8-0.5,15.5,1.5,23.3,2.3c13.9,1.6,28.1-0.7,41.9,1.5c11.8,1.9,23.1,5.7,34,10.2
		c9.8,4,20.6,12,31.5,11.3c4-0.3,7.8-1.7,11.6-3.1c16.1-6.1,31.9-12.7,48.4-16.8c5.7-1.5,9.6-2,15.7-2.4c17.6-0.3,33.1-0.2,50.6-0.2
		c6.2,0.1,10.3,0.5,16.3,1.6c11.6,3.1,20.7,7.5,32.4,9.3c9.8,1.7,16.4,6.1,24.4,11.2c3.6,1.3,3.3,7,8.8,3.3
		c13.1-8.9,31.7-17.4,46.6-22.1c22.4-7.2,50.4-3.6,73.7-3.2c6.2,0.1,10.2,0.5,16.2,1.5c11.6,3.5,21.6,5.3,32.5,9.8
		c5.9,2.6,10.1,4.6,16.1,6.8c5.8,2.5,9.4,5.4,15.7,5.7c5.5-0.7,9.4-1.6,14.4-4.1c17.8-11.4,37.6-17.1,58.5-18.9
		c26.2-2.2,56.9-7.6,81.4,3c2.8,0.9,3.9,1.3,6.7,2.2c5.9,2.1,10,4,15.5,6.5c8.6,3.9,17.7,11.7,27.4,11.6c5.6-0.1,10.8-2.8,15.9-5.3
		c26.9-13.2,57.7-20,87.6-21.1c31.2-1.2,55.7,8.1,84,19.1c9.9,3.9,18,7.5,26.5,14.2c2.7,3.7,3.7,6.2,4.7,10.7
		c0.8,7.4,0.3,12.7-2.4,19.7c-2.7,3.9-5,5.3-9.5,6.5c-3.3,0.2-4.6,0.2-7.7-0.5c-17.1-10.9-33.5-19.2-52-27.5
		c-5.2-2.3-8.9-3.6-14.6-4.9c-6.6,1.9-7.9,6.4-10.8,11.8c-1.3,3.2-1.9,4.9-2.6,8c-16.8,16.9-25.2,16-33.6-2.3
		c-2.4-5.2-2.1-12-10.6-15c-4-0.3-6.3-0.2-10.2,0.7c-41.6,30.6-82.1,31.6-124.6,1.4c-3.8-1.9-5.9-2.7-9.7-3.6
		c-10.6,2.1-11.6,9.2-13.5,16.7c-2.8,10.7-9.6,17.3-23.5,12.2c-4.5-6.2-10.9-12.1-9.9-16.1c6.7-26.6-9.7-13-20.8-10.9
		c-13.8,7-27.6,10.2-38.3,18.5c-21.9,16.9-40.8,12-60.6-6.6c-5.4-3.3-9.4-5.2-15-7.5c-4.6,0.2-7.4-0.1-11.3-2.5
		c-3.4-1.4-5.6-2.1-9.5-2.6c-18.2,0.9-11.6,22-26.1,26.5c-4,0.5-6.3,0.5-10.4,0.6c-19.7,0.1-12.1-21.9-26.3-27
		c-3.9-0.2-6.1,0.1-9.9,0.9c-4,2.3-6.5,3.9-11.1,3.6c-5.8,1.1-10,2.4-15.5,5c-35.3,25.7-35.4,25.7-72,2.3c-3.8-2.9-6.4-4.4-10.5-5.8
		c-5.8-0.3-10.3,0.3-14.2-1.4c-13.6-5.8-21.3-3.7-26.4,12.3c-5.1,16.2-24,19.4-28,5.9c-7-24-23.2-16.9-40-17.6
		c-6,1.3-10.1,2.8-15.6,5.3c-22.5,20.8-44.9,21.2-68.2,5c-15.2-10.5-32.6-12.4-51.4-11.2c-0.4,13.4-5.4,21-19.7,22.9
		c-13.2,1.6-16-6.5-17.2-14.8c-1.2-7.8-4.7-11.9-14.4-12c-12-0.5-21.1,3.9-31.7,8.8c-19.7,19.1-39.6,25.4-62.9,9.8
		c-10-6.7-22.4-8.3-32.9-13.8c-15.2-7.9-23.9-3.4-28.3,14.6c-1.2,1.5-1.2,1.5-1.2,1.5c-12.7,15.6-22.4,9.2-30.5-4.6
		c-3.8-6.5-2.8-20.2-14.5-17.8c-3.5,0.7-6.5,2.7-9.8,4c-6.5,2.6-13.9,2.4-20.6,4.8c-6.2,2.2-11.4,6.5-16.5,10.6
		c-5.1,4.2-10.3,8.4-16.6,10.6c-12.8,4.4-26.1-5.7-36.4-12.1c-9.5-5.9-19.6-10.2-30.9-11.1c-10.4-0.9-19.8-2.1-25,11
		c-4,9.9-12.3,16.5-25.5,9.9c-4.8-6.1-8.7-10.6-8.1-18.9c-12.2-14.5-24.4-0.5-38.3-1.8c-6,1.5-10.2,2.7-15.7,5
		c-28.5,23.1-33.7,23.9-61.9,6.7C1553.4,1973.6,1542.7,1970.6,1531.6,1963.9z"/>
	<path class="st1" d="M3097.8,1583.1c4,24.6,11.7,45.6,25.6,63.6c8.8,11.3,8.5,20.7,0.7,32.2c-15.6,23.1-26.2,48.1-23.2,78.1
		c4.6-0.8,8.3-1.8,12.2-2.2c9-1,17.6-0.6,20.9,10.1c3.3,10.7-4.4,14.9-11.2,20.6c-9.6,7.9-36.1,1.8-24.3,27.9
		c6.4,14.2,6,32.5,22.8,40.8c7.6,3.7,3.7,10.4,4.8,17.9c1.9,4.2,2.5,6.6,0.9,10.9c-2.2,3-3.2,4.4-5.2,6.7
		c-27.4,7.8-27.5,7.7-48-32.5c-1.6-2.8-2.1-3.9-3.6-6.7c-3.7-7.4-7.4-12.7-10.8-20.4c-2.6-9.7-2.6-17.8-2.8-28
		c0-11.7,0.1-21.3-0.1-33.1c-0.1-8.9,0.2-15.6,1.6-24.3c1.4-7,3.4-11.8,4.2-18.9c1.2-8,3.3-13.8,6.3-21.2
		c4.5-10.2,7.5-18.9,10.5-29.4c2.8-9.3,0.9-16.5-2.5-25.1c-1.9-4.5-3.1-7.4-4.8-11.9c-1.1-3.5-1.3-5.6-1-9.2c0.6-2.4,1-3.3,2.2-5.5
		c1.6-3,2.1-4.9,2.3-8.3c-2-12.6-4.7-23.6-7.1-36.4c-0.7-6.8-0.7-11.8-0.9-18.8c0-11.3-1-20.5-2.6-31.8c-0.1-3.5,0.1-4.9,0.5-8.4
		c18.4-46.1,15.5-90,4.8-135.5c-7.2-30.7-7.7-63.7,3.1-94.1c11.5-32.7,6.5-64.2-1.2-96c-4.1-16.6-9.8-32.9-10.1-52.5
		c-2-32.5,7.4-60.9,15.9-91.5c3.8-10.3,6.5-18.6,2.8-29.4c-1.9-7.9-2.1-14-1.3-22c2.7-10,1.1-17.5-5.1-25.7c-7-13-9-25.6-12.2-39.8
		c-6.5-19.1-1.5-36,0.8-54.9c2.1-10.8,5.2-19.1,10.2-28.8c9.7-13.5,10.7-26.9,7.6-42.6c-1.3-5.2-1.8-8.8-2.3-14.2
		c-0.4-5.5-0.4-9.3-0.8-14.9c-2.1-15-8-26.7-13.3-40.8c-5.3-26.5,0.9-50.3,6.3-73.7c9-38.7,9.2-77,0.6-115.5
		c-7-31.3-11.1-62.8-9.4-95c0.6-10.4,0.3-21.4,5.7-30.3c14.2-23.1,12.3-45.5,0.5-68.7c-5.5-10.8-7.9-22.8-10.4-36.9
		c-1-15.5-0.5-28.8-0.8-44.2c-0.2-10.7-0.1-19.2,1.5-29.6c2.6-10.9,6.2-19.4,9.5-29.9c2.2-6.6,4.4-11.1,7.2-17.4
		c8.5-15.6,14.1-31.6,34.6-35.5c21.6-2.1,24.5,6.9,14.6,21.8c-12,17.9-19.8,37.7-27.4,57.5c-2.2,5.6-8.4,19.7,10.1,14.4
		c13.9-4.1,26.6-1.5,29.9,14.8c3.6,17.8-8.3,27-23.3,26.5c-21.9-0.9-19.5,8.9-13.8,22.7c0.6,1.6,0.3,3.7,1.3,4.9
		c43.3,51.3,9.6,96.9-10.9,145.4c9,13.2,7.6,26,4.9,41c2.5,29.7,11.2,55.3,26.6,78.5c7.8,11.8,9,22.1-2.3,34
		c-15,15.9-18.4,37.7-24.1,58.7c14.6,4.5,36.9-6.7,39.9,17.7c2,16.7-11.4,23.2-27.8,25.4c-6.6,0.8-6.2-18.2-15.4-2.7
		c2.2,11.8,3.4,23.8,9.4,32.4c27.6,39.4,25.5,77.4-3,117c-1.5,7-3.5,12.1-4.8,19c-1,5-1.7,8.4-2.3,13.5c6.7,12,6.4,23.2,4.1,36.6
		c8.1,26.7,23.2,48.5,27.9,75c1.8,9.8,3.7,17.7-2.6,26.2c-16.2,21.8-23.4,47-28.5,75.4c6.4,11.7,2.7,23.2,6.5,35.1
		c2.1,9.8,4.9,17.8,3,27.8c-0.4,5.6,0.1,9.6,2.2,15.2c6,6.4,14.1,7.6,16.3,17.1c-1.3,11.1,11.7,12.6,11.1,23.2
		c-2.5,8.2-0.6,16.6-9.7,21.8c-12.6,22-25.3,42.7-22.6,69.1c3.6,3,4.7,5.3,5,9.9c-2.2,10.7-0.9,20.1-5.9,30.2
		c1.7,27.9,16.2,49.4,29.9,70c7.6,11.3,6.7,16.6-1,25.4c-19.1,22-30.5,47.2-30.4,79C3104.1,1554.7,3102.2,1567.7,3097.8,1583.1z"/>
	<path class="st2" d="M78.3,563.6c2.2-3.3,3.5-5.4,4.7-9c-2-8.1-0.2-14,5-21c2.6-7.3,4.1-13,6.3-20.4c-0.2-2.6-1-3.5-2.7-6.1
		c-1.2-2.8-1.6-4-2.1-7.1c-0.4-4.5-0.3-7.1,0.4-11.7c1.1-4.7,2.4-7.1,6-10.4c7.6-3.2,13.2-2.8,20.4,1.3c10.4,27.3,7.5,53.1,1,80.9
		c-2.2,8.4-5.3,14.1-10.5,20.7c-1.6,4-8.3,0.5-5.2,7.5c0.8,2.5,1,3.6,1.1,6.3c-1.7,9.2-0.2,16.6,1,25.6
		c-3.6,11.9,2.4,17.4,11.2,23.7c13,51.1,11.4,100.4-3.1,149.2c-2.2,7.4-6.8,13.9-7.1,23.9c1.8,12.1,3.6,22.2,8.7,33.3
		c2.3,6.5,2.6,11.3,2.3,17.9c-0.6,6.1-0.6,10.4,2.5,15.9c1.8,4.6,2.1,7.8,1.3,12.7c-3.1,6.7-2.4,11.6,0.9,18.2
		c4.8,34.9,2.7,67.6-12.3,97.7c-8.7,17.3,0.5,29.6,6.7,45.6c1.2,3.3,1.6,4.7,2.4,8.1c9.2,35.1,5.1,68.6,4.7,104
		c-1.4,9.2-8.8,14.3-7.2,24.1c0.7,5.4,0.7,9.1-0.5,14.5c-3.1,7.6-6.9,12.6-13.1,18c-12.1,1.9-18.4-3.9-23.9-14
		c-1-21.2,8.7-38.7,11.2-59.4c0.6-2.7,0.9-3.8,1.7-6.4c1.3-3.4,2.1-5.3,3.3-8.6c0.8-3.3,0.9-5.1,0.7-8.4c-0.5-2.3-0.8-3.3-1.6-5.6
		c-0.8-2.4-1.2-3.4-1.9-5.9c-1.3-5.7-2.1-9.9-4-15.5c-1.2-3.7-1.8-5.9-2.6-9.7c-3.3-13.8-8.6-25.1-15.3-37.6c-1.5-2.6-2-3.7-3.2-6.5
		c-1.3-4.1-1.7-6.6-1.8-11c0.4-7,0.4-12.2,0-19.3c10.1-30.3,28.3-56.3,24.3-90.5C88,924,88,921.4,88,916.8
		c1.9-17.9-2.5-33.2-4.5-50.8c-1.6-6.1-3.1-10.3-5.3-16c-28.7-22.4-17.9-46.2-5.4-71.8c1-2.7,1.4-3.8,2.6-6.5
		c2.1-3.4,3.5-5.1,6.4-7.8c3.4-2.9,5.8-4.7,5.3-9.5c-0.5-3.5-0.3-5.5,1.2-8.8c1.9-3.4,2.9-5.5,4-9.5c-2.7-6.9-2.8-12.3-1.7-19.5
		c1.2-5.9,1.6-10.2,0.6-16.1C91,671,75.6,647.6,68.1,620c-0.3-1.8-0.7-3-1.2-3.4c-15.9-15.7-3.7-28.1,5.2-42
		c2.6-3.5,7.8,0.1,6.5-6.1C77.5,566.6,77.4,565.7,78.3,563.6z"/>
	<path class="st3" d="M566.9,1955.2c11.4,15.5-2.3,17.9-11.5,23.5c-8,3.4-13,0.8-18.8-4.6c-3.7-2.6-6.2-4-10.1-5.3
		c-13.4,4.5-25.1-9.5-37.6,1.3c-1,3.8-1.7,5.9-3.3,9.6c-10.8,14-25.8,16.9-32.7,3.7c-9.7-18.7-23.2-16.3-40-15.3
		c-4.7,0.7-7.7,1.1-11.7,2.8c-25,24.3-34.4,25.9-61.6,10.3c-9-5.1-18.7-8.8-28.1-12.6c-13.7-5.5-24.6-8.3-31.9,11.3
		c-6.3,16.9-25.1,17.7-33.8,1.1c-10.5-20-23.7-15.9-38.3-9.8c-10.3,4.2-19.9,10.1-29.9,15c-23.1,11.3-28.6,7.7-30.9-21.6
		c0.8-3.1,1.3-4.2,2.7-6.9c9.7-8.1,18.8-14.1,30.7-18.8c6.2-2.3,10.9-3.5,17-6c2.9-1.1,4.1-1.6,7.1-2.6c9.4-3,17.2-4.7,27.3-5.6
		c26.2,0.3,50.5-2.8,76.3,3.7c4.7,0.9,7.4,1.5,11.9,2.6c35.5,25.1,67.7,10.4,101.8-3.8c5.8-1.6,9.8-2.1,16-2.5
		c17.7-0.3,33.2-0.2,50.9-0.2c6.2,0.1,10.3,0.4,16.3,1.5c11.7,3.6,21.7,5.5,33.3,9.1c3,0.9,4.2,1.3,7.1,2.4
		C554.4,1942,563.1,1944.7,566.9,1955.2z"/>
	<path class="st4" d="M77.4,1210.6c7.7,5.1,13.6,9.8,20.9,15.3c6,6.7,2.6,14.4,6.6,22.3c1.6,4.1,2.4,6.5,4.1,10.8
		c21.9,52.6,14.9,105,8.8,159.3c-0.7,3.5-1,4.9-2,8.2c-12.7,18.7-13.4,34.9-3.9,54c9.8,19.8,13.2,42,8.8,66.3
		c-0.7,4.8-7.3,6.1-2.1,12c1.8,5.8,1.5,9.6-1.3,15.1c-6.2,4.9-11.7,5.3-19.2,3.2c-3-1.7-4-2.6-6.1-5.4c-2-4.4-2.6-7-3.3-11.8
		c0.5-16.4-4.8-30.3-3.5-46.7c-4.4-13.2-8.8-24.5-14.7-36.8c-4.9-5-9.4-8.1-10.9-15.2c-0.1-3.8-0.1-6,0.1-9.9
		c0.8-14.9,12.3-23.3,15.7-37.1c1.8-4.9,3.3-8,5-12.9c4.7-13.9,7.5-26.5,9.6-41.1c1.8-7.3,2.7-12.9,0.6-20.4
		c-6.9-32.1-15.1-61.8-31.1-90.8c-0.2-4-0.3-6.2-0.4-9.9C65.1,1228.7,63.9,1215.6,77.4,1210.6z"/>
	<path class="st5" d="M93.7,1574.8c6.2-1.1,11-1.1,17.5-1.1c16.9,9.5,10.1,24.3,10.6,39.4c-3.8,13.8-8.9,25.1-11.7,39
		c-15.8,22.7,3.2,38.6,8.2,58.3c1.5,3.9,2.2,6.2,3.2,10.4c1.1,5.4,2,9.1,3.7,14.5c1.2,4.4,1.7,7,2.2,11.7
		c0.7,17.2,0.4,32.4,0.4,49.7c-0.1,6.3-0.5,10.4-1.6,16.5c-1.3,6.1-3,9.9-4,16.1c-5.1,19.6-11.3,36.5-22.1,51.4
		c-8.3,11.6-18.2,18.3-34.8,10.9c-3.1-3.4-4.5-5.8-6.3-10c-0.3-6.1,0.4-9.9,5.3-13.4c2-0.3,2.5-1.2,2.7-1.7
		c4.7-23.7,17.9-44.5,20.2-70.3c0.9-10.6,0.9-19.4,0.9-30c0.1-5.8,0.7-9.5,2.8-14.9c0.4-4,0.1-6.3-1.1-10.1
		c-12.2-22.2-19.4-44.8-31.1-67.1c0.2-4.1,0.5-6.3,0.9-10.2c1.5-20,19.9-31.4,20.4-52.1c2-7.5,3.5-13.3,5.2-20.9
		C87.4,1584.5,89.2,1580,93.7,1574.8z"/>
	<path class="st2" d="M120.5,463.1c-5.2,7.6-11.3,10.2-20.4,10.3c-4.6-1.2-6.8-2.6-10-6.1c-6-6.4-6.6-15.7-9.1-23.7
		c-1.9-6.2-3.3-12.5-4.1-18.9c-0.4-3.3-0.8-6.6-0.8-9.9c0-2.9,0.5-6.1-0.9-8.8c-1.6-3-5-4.2-8.1-4.9c-4.1-2.2-8.8-6.1-8.8-11.2
		c0-2.5,1.2-4.8,2.4-7c4.8-9.1,11.7-16.7,15.7-26.2c4.1-9.7,6.3-20.4,8.7-30.7c2.5-10.9,4.6-21.9,5.6-33c1-11,1.1-22.1-0.4-33.1
		c-2.1-14.8-7-29-12.6-42.7c-5.4-13.3-12.3-26.6-15.4-40.7c-0.3-1.2-0.5-2.4-0.3-3.6c0.3-1.7,1.5-3.2,2.8-4.2
		c1.9-1.4,4.1-2.3,6.2-3.3c4-2.1,8.6-3.4,13.2-2.7c8.2,1.3,14,8.8,18.3,15.2c9.7,14.5,15.7,31,20.6,47.7c5.1,17.8,7.5,36.4,7.5,55
		c0.1,17.9-1.3,36.7-6.3,53.9c-3.4,11.9-7.9,23.5-13.4,34.6c-4.5,9.2-7.7,17-5.3,27.3c1.6,6.7,4.2,13.1,6.5,19.5
		c2.3,6.3,3.3,12.8,5.4,19.1c2.9,8.3,4.1,17.7,3.1,26.5C120.6,462.1,120.6,462.6,120.5,463.1z"/>
	<path class="st5" d="M3097,1918c0.4,0.4,0.8,0.7,1.1,1.1c1.7,1.6,3.5,3.3,5.6,4.4c3.2,1.6,6.9,1.5,10.5,1.9c9,1,12.8,7.8,12.3,16.4
		c2.4,14.2,2.4,14.2-3.1,18.3c-6.1,4.6-14.2,4.4-20,9.6c-3.1,2.8-5.2,6.4-7,10.2c-1,2.2-2.4,8.2-4.8,9.3c-0.5,0.3-1.1,0.3-1.8,0.3
		c0-0.9-28,3.5-28-3.3c-3-3.2-4.6-7.9-4.6-12.2c-1-10.1,0.9-18.9-6.5-27.4c-5.9-7.1-11.3-12.3-15.9-20.5c-3.5-14.7,5.1-21,15.9-28
		c5.6-2.3,9.5-2.7,15.6-2.1c6.3,0.7,10.7,5.1,15.3,8.9C3087,1908.9,3092.1,1913.3,3097,1918z"/>
	<path class="st4" d="M56.9,114.5c2-9.7,6.6-14.3,15.7-16.7c6-4.8,9.5-9.6,15.2-14.9c1.5-3.5,1.8-5.5,2.2-9.3
		c1.1-3.4,2.5-4.9,5.8-6.2c7,0.3,12.5,0.6,19.7,0.9c8.8-0.9,10.8,5,10.6,9.3c-1,21.1,11,36.1,23.2,53.5c1.3,4.8,1.5,7.6,0.3,12.5
		c-9.9,15.5-22.4,19.7-35.2,9.2c-11.3-9.2-23.6-11.8-37.1-13.9C65.4,137,53.5,133,56.9,114.5z"/>
	<path class="st6" d="M3072.5,68.5c6.7,0.1,12.3,1,20,2.6c2.8,1.2,3.7,1.9,4.3,4.1c-0.3,4.4-0.3,7.3,0.3,11.3c4.2,2,5.1,4.8,6.9,8.5
		c20.4,1.2,35.9,4.3,20.7,30.8c-3.8,8.5-9.1,11.3-18.1,9.3c-4-1.3-6.3-1.7-10.2-1.6c-11.8,5.4-19.7,14-31.4,19.7
		c-1.2,1.1-1.5,1-1.4,1.1c-12.6,7-18.8-2.4-24.5-10.5c-7-9.9,0.8-17.3,7.1-26.2c4.3-6.5,6.1-12.1,7.7-19.7
		c2.1-7.4,3.2-13.4,7.1-20.1c2.2-3.4,3.6-5.2,6.3-8C3069.7,68.9,3070.6,69.1,3072.5,68.5z"/>
	<path class="st7" d="M147.9,1924.4c-17,12.8-28.8,25.7-26.5,47.7c2.2,21.4-13.5,16.7-28.1,14.5c-2.4-4.1-2.8-7.4-3.8-12.2
		c-6.1-14.3-22.4-9.2-30-20.8c-0.6-3.9-0.6-6.2-1.1-10.2c-4.6-10.1-0.6-15,8.8-18.7c4.4,0.4,6.6,0.6,10.5,0.6
		c12.7-4.8,23.8-8.7,33-17.5c13.1-12.7,26.1-11.5,37.8,5.6C149.9,1917.7,149.8,1920.2,147.9,1924.4z"/>
	<path class="st8" d="M3095.4,509.6c-10.3-9.5-4.6-22.7-6.1-37.2c3.6,2.6,6.9,4.4,12.3-0.4c8.8-7.6,18.7-8.1,27.9-0.9
		c6.8,5.3,7.4,13.1,5,20.9c-3.4,11.1-12.9,15.6-22.9,18C3107.2,511.2,3101.8,508.7,3095.4,509.6z"/>
	<path class="st1" d="M3099.7,908.5c4.2-2.2,7.1-2.4,9-3.9c9.7-8.3,20.3-10.6,29.6-1c7.7,8,8.3,18.8,2.4,28.4
		c-8.2,13.5-20.2,9.2-33.7,5.1C3092.8,930.5,3093.4,920.6,3099.7,908.5z"/>
	<path class="st9" d="M3103.4,1544.1c8.5-10.8,17.3-15.7,27.8-7.6c8,6.2,10.5,15.2,7.8,25.3c-3,11.3-9.2,18.2-21.9,17.3
		c-4.3-0.3-8.5-0.5-14.9-1.3C3095.1,1566.3,3096.2,1555.9,3103.4,1544.1z"/>
	<path class="st9" d="M3098.7,1337.8c1-4,1-6.1,1.1-9.7c4.9-3.2,9.6-5.3,14.5-6.5c11.7-2.8,20,1.6,24.2,12.8
		c4.4,11.8-0.8,20-11.5,24.5c-6.9,2.8-14.5,4.1-23.5,5.6C3092.8,1357.2,3099.3,1347.8,3098.7,1337.8z"/>
	<path class="st9" d="M3098,1118.9c13.8-9.6,26.1-11.5,34.7,2.6c7.6,12.5-0.5,20.7-12.5,27.7c-5,12.3-12.1,3.5-19.5,2.6
		C3093.2,1141,3088.2,1131.1,3098,1118.9z"/>
	<path class="st10" d="M91.4,297.1c-2,2.6-5,4.3-8,5.7c-8.2,3.8-18.6,5.5-24.3-3.2c-3.9-5.9-4.2-13.6,1.5-18.1
		c8.4-6.7,29-7,32.8,5.5c0.9,2.9,0.5,6.2-1,8.9C92,296.3,91.7,296.7,91.4,297.1z"/>
	<path class="st8" d="M94.5,506.6c0.9,0.9,1,3,0.7,4c-2.8-5.5-7.3-3.9-13.9-0.6c-11.2,7.9-17.5,4.7-22.2-6.8
		c0.1-5.9,0.4-9.6,1.2-15.2c11.2-18.1,21.6-14.2,32.9,0.2c1.4,4.2,1.6,6.9,1.7,11.4c-0.2,2-2.1,3.6-2.1,3.6S93.6,505.7,94.5,506.6z"
		/>
	<path class="st8" d="M86.1,1150.4c-7.2-0.4-12.7-0.6-20.2-1.3c-3-1.2-4-1.8-5.5-4c-0.5-6.3-0.5-10.9-0.1-17.3
		c8.2-15.6,19.4-12.1,32.8-6.3c2.1,1.5,1.7,1.5,1.7,1.2c0.8,0.7,1.6,1.7,3.7,3.8c1.4,3.9,1.5,6.6,1.1,11.2c-1.2,2.6-2,3.3-3.9,5.1
		c-1,1.2-1,0.7-0.8,0.7C93,1146.1,91.2,1149.2,86.1,1150.4z"/>
	<path class="st8" d="M93.1,1555c1.2,4.5,1.4,7.5,1.4,12.7c-3.1,5.8-4.8,10.3-10.2,13.8c-3.9,1.5-6.3,1.7-10.5,1.5
		c-6.8-1.5-10.3-4.7-13.1-10.6c-4.2-12.7-0.7-20.3,11.5-25.5C82.6,1542.2,87.7,1546.8,93.1,1555z"/>
	<path class="st4" d="M77.4,692.2c6,3.1,10.1,6.3,15.6,10.2c5.4,3,7.3,5.8,2.6,10.8c-4.3,5.6-6.4,11.4-14.8,12.2
		c-3.9-0.6-6.2-0.7-10.2-0.9c-6.2-1-9.1-3.9-11.4-9.3C58.5,701.9,63.5,694.4,77.4,692.2z"/>
	<path class="st8" d="M58.7,917.5c10.4-13.6,21.2-13.7,34.3-3c1.8,3.3,1.9,6,1.7,10.8c-11.1,9.4-21.8,20.3-34.7,1.8
		C58.6,923.8,58.6,921.5,58.7,917.5z"/>
	<path class="st4" d="M85.4,1789.3c-6.7,0.8-11.3,1-17.8,1.2c-2.2-0.9-2.5-1.8-4-3.5c-1.6-1.9-2-2.8-3.7-4.9
		c-1.2-3.2-1.1-5.4-0.9-9.4c4.8-11,10.8-18.6,24.9-15.4C93.9,1768.1,95.8,1778.1,85.4,1789.3z"/>
	<path class="st4" d="M3092.7,721.2c-3.4-8-5.8-17.3,2.5-28.4c3.6,10.1,6.5,18.3,9.6,28.3C3101.8,722,3098.4,721.1,3092.7,721.2z"/>
	<path class="st3" d="M972.7,1987.5c-1.9-0.4-1.9-2.5-2.2-3.4c3.7-1,7.8-1,13.9-1c2,0.1,1.2,1.9,1.3,2.8
		C981.9,1987.2,978.3,1987.6,972.7,1987.5z"/>
	<path class="st11" d="M58.8,1782.3c1.7-1,3-0.2,3.8,2.6C60.7,1785.9,59.6,1785.1,58.8,1782.3z"/>
	<path class="st12" d="M1285.7,67c-0.2,1.2-0.9,1.8-3.1,2.2C1282.5,68.1,1283.8,67.2,1285.7,67z"/>
	<path class="st3" d="M878.6,1988.3c-3.6,0.5-5.8-0.3-9.6-1.2c-3.1-2.4-4.4-4.5-5.9-8c7.7-3,15.6-4.6,25.5-6.1
		C891.3,1980.9,886.1,1984.3,878.6,1988.3z"/>
	<path class="st3" d="M1301.3,1932.4c3.2-1.3,5.6-1.5,9.7-1c0.3,9.6-6.2,12.2-13.1,9.1C1293.1,1938.3,1299.5,1936,1301.3,1932.4z"/>
	<path class="st3" d="M919.3,1960.4c-1.4,1.6-2.2,1.9-4.4,2.4c-2.5-1-3.9-1.9-6.3-3.6C912.2,1954.4,916.9,1944.7,919.3,1960.4z"/>
	<path class="st3" d="M714.8,1931.9c1.7-0.2,1.9,1.9,2,2.8c-3.8,6.6-7.2,6.8-10.3-1.4C708.6,1932,710.8,1932.1,714.8,1931.9z"/>
	<path class="st3" d="M575.5,1983.2c-1.9,5.9-6.9,6.1-13.6,1.3C564.9,1983.2,569.1,1983.1,575.5,1983.2z"/>
	<path class="st3" d="M1095,1932.6c0.8-1.6,1.6-1.9,3.8-1.6c1.5,3.2,2.3,8.1,1.8,8.2C1096.6,1940.2,1095.8,1937,1095,1932.6z"/>
	<path class="st3" d="M824.2,1962.4c-0.8,1.6-3.4,3.2-7.6,4.6c-1.6-0.1-1.6-2.4-1.6-3.6C817.6,1962.2,820,1962.3,824.2,1962.4z"/>
	<path class="st3" d="M1084.6,1932.4c0.8-1.6,1.7-1.8,3.8-1.7c0.4,2.6-0.4,4.9-1.3,7.1C1086.3,1936.5,1085.5,1935.1,1084.6,1932.4z"
		/>
	<path class="st3" d="M675.2,1983.7c0.6,3.8-2.3,5.1-7.4,1.6C668.6,1983.6,670.5,1983.6,675.2,1983.7z"/>
	<path class="st3" d="M753.8,1948.3c1-0.6,2.8-0.2,5.2,1.7C758,1950.7,756.3,1950,753.8,1948.3z"/>
	<path class="st3" d="M874.5,1943.9"/>
	<path class="st3" d="M864.2,1943.9"/>
	<path class="st3" d="M815.1,1962.3c-0.6-0.7-1.2-1.5-1.9-2.2c0.4,0.3,0.9,0.5,1.6,1.5C815.1,1962.2,815.1,1962.2,815.1,1962.3z"/>
	<path class="st13" d="M127.9,859.9c-5.7-2.8-9.4-4.7-14.6-6.6c-5.6-9-9.7-17.9-14.2-28.6c7.5-15.6,15.3-29.4,24.9-43.5
		C150.2,800.7,152.4,845.6,127.9,859.9z"/>
	<path class="st4" d="M111.3,465.1c2.1,3.7,2.7,7.7,2.6,13.6c-5.4,1.9-10.2,1.8-16.7,1.8c-2.1-2.3-2.5-4.6-2.4-8.7
		C100,468.6,104.8,467.1,111.3,465.1z"/>
	<path class="st4" d="M111.7,1180.3c1.8,3.3,2.2,7,2.7,12.7c0.2,1.9-1.6,2.1-2.4,2.4C104.5,1191.1,103.4,1186.2,111.7,1180.3z"/>
	<path class="st4" d="M87.5,765.5c-0.7-2.6,0.3-5.2,1.9-9.2c3.3,0.2,8,1.5,8.2,3.2C98.3,765.4,93,764.8,87.5,765.5z"/>
	<path class="st4" d="M111.8,900.4c1.7,2.1,2.1,4.5,1.9,8.5C106.8,908.7,103.5,906,111.8,900.4z"/>
	<path class="st4" d="M111.5,874.1c1.9,2.3,2.4,5.1,2.3,9.3C107.3,882.8,104.5,880,111.5,874.1z"/>
	<path class="st4" d="M81.9,809.3"/>
	<path class="st4" d="M97.7,773.5"/>
	<path class="st4" d="M87.4,794.2"/>
	<path class="st10" d="M80.9,1366.2c-3.8-0.4-6-0.6-9.9-1c-8.1-6.7-16.4-13.2-8.8-23.6c8.6-11.7,18.8-8.3,30.7-1.3
		c7.3,4.2,7.6,8.9,2.6,15.1C91.7,1361.2,88.5,1365.4,80.9,1366.2z"/>
	<path class="st8" d="M112.8,1553.8c0.6-0.5,1.6,1.8,1.2,2.9C112,1557.1,111.6,1555.8,112.8,1553.8z"/>
	<path class="st13" d="M144.4,1975"/>
	<path class="st13" d="M123.8,1874.1c6.8,2.7,7.4,7.4,7.5,14.2c-7.9,8.5-17.6,10.3-29.3,11.9
		C106.3,1890.5,103.8,1873.7,123.8,1874.1z"/>
	<path class="st13" d="M124.6,1838.7c10.3,7.9,6.9,17.4,2.1,28.8C101.8,1861.3,131.5,1848.9,124.6,1838.7z"/>
	<path class="st14" d="M2654.7,423.3c-5-7.3-9.6-13.1-15.7-19.6c-2.4-1.8-3.3-2.8-5.1-5.6c-3.4-11.1-2.7-20.4-1.3-31.7
		c2-9,4.6-16,1.3-25c-1.9-7.6-2.1-13.6-2.7-21.4c-0.8-15.8-10.6-20.8-23.8-24.2c-5.1-0.7-8.5-1.3-13.6-2.3c-8.5-2.5-15.3-4-24-1.7
		c-4.6,1.7-7.7,2.7-12,4.7c-5.1,2.3-8.9,3.7-13,7.6c-1.7,2-2.3,2.8-3.7,5.1c-4.1,7-3.6,11.7,3.8,16.1c6.6,3.3,12.1,4.5,19.1,6.6
		c5.9,2.8,9.2,6.1,13.2,11.2c2.5,4.8,3.1,8.2,2.8,13.6c-1,5.2-2.4,8.4-4.8,13.1c-1.4,2.5-2,3.5-3.7,6c-5.8,6.7-9.7,12.6-16.2,18.8
		c-4.9,2.7-8.5,3.5-14,4.1c-4.4,0.3-6.8,0.2-11.2-0.1c-9.2-1.2-16.2-3.6-24.7-7.1c-15.9-12.1-29.8-15.1-44.5,1.8
		c-2.3,2-3.3,2.7-5.9,4.5c-16.2,7.9-31.5,7.4-48.8,5.2c-9.2-2.5-12.6-9.5-19.6-14.9c-2.3-1.8-3.2-2.6-5.3-4.6
		c-4.5-4.7-7.9-8.1-11.1-13.9c-2.6-9.7-1.1-16.8,5.5-24.5c11.1-7.5,22.5-9,34.9-12.8c5-2.1,8.3-3.5,12.7-6.6
		c13.5-11.4,11.4-23.6,5.2-35.8c-6.3-12.2-17.5-14.8-30.3-14.7c-9.6,0.1-18.3,3.1-27.3,6.1c-11.8,3.9-23.4,5-34.9-5.5
		c-3-5.1-3.5-9-2.8-14.9c3.1-9.6,7.8-15.9,15.1-22.1c1.9-0.3,2.9-1.4,3-2.1c-3.2-7.3,2.9-9.4,7.7-13.2c3.9-1.7,5.9-3.4,8.6-6.1
		c29.5-19.3,55.7-12.8,81.6,9.1c4,4.5,6.7,7.3,11,10.3c19.6,16.8,39.5,18.8,62.8,7.1c1.7-0.6,0.9-1.5,1.2-1
		c2.5-5.2,8.2-6.3,14.1-9.7c1.4-0.8,0.9-1.1,1.1-0.9c12.2-10.8,25.6-18.1,44.7-14.2c3.9,1.6,5.8,2.6,9.1,3.9
		c18,9.4,34.1,13.8,50.3-3.9c3.5-1,5.2-1.7,8.1-3.1c6.6-3.9,12.2-6,19.6-2.2c2,1.9,2.8,2.4,5.1,3c21.2-5.8,40.7-10.6,58.6,8.8
		c3.3,22.7-11.9,32.2-28.9,42.4c-15,12-13.3,25.3-6.4,40.9c3.7,36,13.5,69.6,12,106.2c4.5,21.7-16.2,15.5-24.4,25
		c-6.3,2.7-10.8,1.6-16.7-1c-3.8-3.1-5.5-6-9.4-8.8C2658.4,427.3,2656.6,426.1,2654.7,423.3z"/>
	<path class="st2" d="M1162.3,245.5c0.1,5.8,0.1,9.7,0.2,15.6c-1.5,23.9-16,36.2-34.8,47.5c-1.3,1.2-1.7,1.1-1.6,1.3
		c-9.6,13.5-18,29-40.6,24.4c-13.7,1-25.7,1.2-40,1.9c-23.7,4.7-54.1-8.3-65.7-28.4c-27-46.8-12.2-87.6,39.5-103.6
		c5.2,0.8,8.5,0.7,13.3,0.1c1.5-2.2,1.5-3.8,3.4-3.9c7.5,1.2,13.1,1,20.6,0.3c7.1-4.7,13.2-4.9,21.1-4.6c8.9,0.2,16,0.3,25.1,0.6
		C1133,201.4,1152.7,216.3,1162.3,245.5z"/>
	<path class="st2" d="M1054.5,419.9c-1.7-3-2.2-4.6-4.1-6.7c-4.7-2.6-8-4.9-11.4-10c-7.3-14.2-6.3-25.3,6.5-33.8
		c12.7-0.4,23.7-1.7,36.7-3.7c13.3-7.2,24.2-4.7,36.9,1c12.3,0.5,22.7,0.6,35.4,0.6c27.1-1.5,41.8,20.1,64,28.5
		c8.3,8.2,15.6,14.8,24.3,22.1c4.1,2.5,4.6,5.4,6.5,8.9c3.8,8.4,9.7,15.9,1.2,25.4c-6.2,7.6-13.8,8.4-19.5,4.5
		c-44.2-30.8-92.1-34.1-144.6-20.8c-4.5-0.7-6.7-1-10.8-1.4C1065.2,433.9,1059.1,429.3,1054.5,419.9z"/>
	<path class="st15" d="M1441.8,204.2c-6.9,1.9-14.1,2-23.4,2c-3.5-5.1-10.2-11.9-1.2-14.6C1427,188.6,1437.8,188.9,1441.8,204.2z"/>
	<path class="st15" d="M1224.4,466.7c6.1-1,12.2-0.3,19.5,1.9c1.2,3.7,1.2,6.1,1.2,10.2c-5.7,0.2-11.4-1.5-18.9-3.2
		C1224.4,473.1,1224.4,470.7,1224.4,466.7z"/>
	<path class="st15" d="M1275.1,463.8c1.1,5.1,1.1,9,1.1,14.8c-2.3,2-4.6,2-8.7,2C1268,474.3,1260.4,463.6,1275.1,463.8z"/>
	<path class="st16" d="M1264.4,200.1c-2.4-0.5-3.7-1.2-5-1.9c1.3-0.7,2.6-2,3.8-2C1265.1,196.3,1268.6,196.3,1264.4,200.1z"/>
	<path class="st11" d="M1250.6,426.1c-2-0.5-3.9-2.5-6.1-6.1C1246.5,420.6,1248.5,422.6,1250.6,426.1z"/>
	<path class="st11" d="M1242.3,405.2"/>
	<path class="st17" d="M2775.5,1905.1c2.1-3.8,4.2-3.8,6.1-1.1c0.4,0.6,0.4,1.9,0,2.4C2779.6,1909,2777.5,1908.9,2775.5,1905.1z"/>
	<path class="st17" d="M2927.6,1891.6c1.3,0.1,2,0.8,2.7,1.5C2929.2,1892.8,2928.1,1892.5,2927.6,1891.6z"/>
	<path class="st17" d="M3034.9,1897.2"/>
	<path class="st13" d="M126.1,736.5c14.4,2.3,13.9,9.3,1.8,18.3C126,749.6,126,744.1,126.1,736.5z"/>
	<path class="st13" d="M126,933.6c19.1,11.2,11.6,26.7,1.8,43.4C126,964,126,950,126,933.6z"/>
	<path class="st13" d="M126.1,886.6c11.5,0.8,13.5,5.5,1.7,13.3C126.1,896.3,126,892.4,126.1,886.6z"/>
	<path class="st13" d="M126,1104c2.7-0.5,6.7,0.1,7.8,2.1c1.6,3.2-1.5,5.3-6.2,6.4C126,1110.3,126,1108,126,1104z"/>
	<path class="st13" d="M1257.4,1636.9c-2.6-7.6-2.6-14.6-4.2-21.1c-2.3-8.8,2.2-11.1,9.3-10.8c66.7,2.8,133.3-0.1,199.9-4.8
		c12.9-0.9,31.3-2.1,31.6,22.5c-34,10.5-35.8,35.4-34,64.3c1.8,29,0.4,58.1,0.4,87.1c0,39.5,0.1,39.5,37.3,52.2
		c0.6,12.1-5.6,16.3-15.7,16.7c-39.6,1.6-78.8,2-118.6-1.6c-37.6-3.4-76,4.2-114.1,4.1c-23.3-0.1-46.7,3.7-70.2-0.1
		c-9.7-1.6-10.8-6.3-11.4-15.3c5.4-41.2,3.1-80.8,2.6-120.4c-0.5-51.7-23.9-71.3-75.4-66c-18.5,1.9-34.2,10.9-50.8,18
		c-11.4,4.9-24.7,8.9-22.8-13.9c17.6-5.3,31.8-10.4,25.1-32.2c-3.4-11,4.8-10.5,11.8-10.9c28.1-1.5,56.3,1.6,84.6-2.7
		c11.2-1.7,26.5,3.9,24.9,22.2c-1.5,16.9,9.6,16.9,21.7,16.8c14.4-0.1,30.1-2.4,37.1,18.3c2,10.5-1.8,17.5-5,24.5
		c-28.8,63,9.9,128.7,83.1,140.8c37.4,6.2,70.7-13.3,106.9-13.3c6.2,0,7.4-6.8,6.5-12.1c-2.8-17-3.2-34.2-3.7-51.5
		c-0.3-10.2-5.4-16-16.1-16.1c-12.7-0.1-15.7,7.8-16,18.6c-0.3,13.2,7,28.2-6.9,38.6c-16.7,12.4-36.1,15.8-56.4,13.7
		c-40.4-4.1-72.4-36.3-73.9-73.9c-1.4-34.2,25.7-67.2,62.1-76.1c17.9-4.4,34.1-0.7,49.5,8.5c6.6,4,12.6,9.1,19.6,12.5
		c7.6,3.7,15.3,4.6,20.7-3.4c5.9-8.7-0.1-15-6.5-19.5c-29.8-20.5-62.4-28.2-98.2-20C1281,1633.1,1270.8,1638.6,1257.4,1636.9z"/>
	<path class="st13" d="M2286,1627.2c-0.5-15,2.3-26.3,18.3-21.7c24.3,7,47.4-4.7,70.8-3.1c59.6,3.9,120.7-11,178.8,13
		c4,1.6,8,3.1,11.7,5.2c5.5,3.2,9.6,8.8,8.4,14.8c-1.6,8.2-9.6,5.2-15.1,5.6c-6,0.5-12.1,0.1-20.3,0.1
		c-37.8-13.1-42.6-9.8-42.7,27.9c-0.2,40.4-0.3,80.8,0.2,121.1c0.1,9.8-2.8,21.8,9.2,27.3c11.2,5.1,19.7-1.5,29.3-9.7
		c11.2-0.1,21.3-1.2,29.7,2.1c9.1,3.5,14.6,11.6,9.6,23.1c-4.4,10.1-10.1,7.6-18.5,5.3c-21.1-5.8-41.9,4.1-63.7,3.6
		c-38.7-0.8-77.8,10.6-116.9-10.9c9.1-12.8,26.1-12.5,39.5-20.2c19.7-11.2,31.2-25.6,31.1-49.4c-0.2-23.3-15.2-33.2-33.1-41.5
		c-12.4-5.8-26.1-9.5-36.2-19.5c-6.9-6.9-12.7-14.6-9.7-25.1c3.1-11.1,11.5-16.7,22.4-18.9c13.9-2.7,27.4,0.7,41.1,2.2
		c8.3,0.9,16.8-1,18.4-10.2c1.9-10.7-8.1-12.4-15.3-13.5c-24-3.7-48.1-5.6-71.3,4c-18.4,7.6-28.8,21.9-29.9,41.7
		c-1,18.4,9.3,30.7,24.6,39.4c12,6.8,24.9,12,36.5,19.4c11.7,7.4,19.7,17,17.6,31.9c-2.1,14.2-13.6,19-25,23.4
		c-6.5,2.5-13.5,3.9-20.3,3.1c-21-2.3-30.9,5.9-28.6,29.3c-3.2,10.2-9.5,13.9-17.4,16.2c-26.3,7.6-51,5.3-73.8-13.4
		c4.5-8,11.5-8.2,18.2-9.7c7.8-1.7,21.6,0.8,20.3-10.2c-1.6-13.3-15.2-6-23.5-6.1c-16.4-0.2-32.8,0.7-49.1-0.2
		c-27.4-1.5-36.2-11.4-35.7-39.4c0.4-25.5,6.8-31.4,35.3-32.5c18.1-0.6,36.2,1.1,54.2-1.2c6-0.8,13.2-2.4,11.7-10.5
		c-1.2-6.5-8.1-5.2-13-5c-19.8,0.9-39.7,1.7-59.5,0.3c-22.8-1.6-28.9-9.3-28.8-33.7c0.2-24.2,6.1-31,29.8-32.4
		c18.1-1.1,36.2-0.6,54.3-0.4C2273.8,1649.1,2282.6,1643.3,2286,1627.2z"/>
	<path class="st18" d="M737.4,1647.6c9.3-3.3,16.7-5.9,25.1-9.7c31.6-22.5,61.6-12.5,91.4,0.2c10,4.2,18.8,13.5,32.3,4.1
		c15.9-2.2,29.5,2,45.3,5.1c7.5,4.6,8.8,10.8,7.5,16.6c-9.8,44.2-4.1,88.7-2.9,133.1c0.9,33.3-16.8,48.4-47,35
		c-22.8-10.1-40.1-7.1-59.8,1.7c-3.1,1.4-6.7,1-12.2-0.2c-6-0.9-9.8-0.9-15.6-0.5c-30.2,12.1-52.2,0.8-72.5-20.8
		c-4.4-6.2-8.2-10.4-13.9-15.6c-19.6-4.9-21.7-21.1-26.1-34.2C673.5,1716.6,695.5,1663.5,737.4,1647.6z"/>
	<path class="st18" d="M1627.3,1767.2c-5.6-28.6-5-54.9,7.8-82.1c1.8-22.3,15.4-31.1,34.3-37.3c1.8-0.5,1-1,1.2-0.6
		c27.9-27.1,76.8-31,111.4-6.4c5.4,4.7,9.5,7.6,15.1,10.7c5.6,2.5,9.7,5,15.8,1.2c15.3-22.8,32.9-5.8,50.9-5
		c10.8,9.3,7.3,20,5.7,29.8c-5.6,34.2-6.7,68.3-0.9,102.6c1.9,10.9,1.5,22.3-0.5,33.4c-1.7,9.9-5.1,18.6-20,16.1
		c-4.5-1.3-6.8-1.5-10.8-1.2c-6.2,3.4-13,6.9-16.1,4.1c-23.5-20.7-44.3-3.5-65.9,3.4c-6.6,2.1-13.5,2.8-21.8-1.2
		c-10.3-2.1-19-3.2-29.8-4.5C1669.8,1832.3,1638.1,1806.5,1627.3,1767.2z"/>
	<path class="st19" d="M1021,1644.7c-1,20.9,6.2,22.3,20.7,12.3c26.7-18.5,56.2-25.7,88.2-19.2c29.4,5.9,44.3,19.9,46,50.8
		c2.4,44.7,1,89.5,1,134.3c0,1.5-3.3,3-7.2,5.1c-16.1,0.2-30-0.1-46.3-0.7c-15.1-18.7-11.9-38.1-4.4-59.7
		c1.8-16.1,2.1-30.1,1.9-46.4c-23.2-47.4-62.1-48.5-91.9-3.7c-1.5,29.2-1.8,57-1.6,87.1c9.1,18.2,2.3,26.4-13.5,29.8
		c-35.4,7.8-50.5-3.5-51.5-38.9c-1.3-44.3,3.4-89-6.5-133c-0.9-4.2,0.4-8.5,4.5-13.9C981.7,1649.1,1000.1,1638.3,1021,1644.7z"/>
	<path class="st18" d="M589,1829.3c-29.6-1.5-57.4-1.6-87.5-1.2c-27.5,6.6-25.2-11.9-23.4-25.4c4.1-30.2,2.4-60.3,3.1-90.4
		c0.5-22.5-0.9-44.8-4-67c-2.4-17.3,3.6-28.2,23.9-27.5c32.7,1.1,65.5-0.1,98.3,0.7c14.9,0.4,29,4.5,42.2,11.1
		c29.7,14.7,39.8,40.9,25.6,70.9c-5.8,12.2-7.1,21.5,1,33.2c16.7,24,15.2,48.6-1.8,72.2C649.6,1828.8,620.8,1838.1,589,1829.3z"/>
	<path class="st20" d="M2079.8,1800.1c-5,2.8-7.7,4.7-11.2,7.7c-20.8,29.6-49,29.1-80.7,21.7c-4.2-1.7-6.5-2.1-10.6-2
		c-22.3,9-44.1,5.3-65.3,6.3c-14.8,0.7-20.9-10.7-21.3-24.2c-1.4-55.2-1.3-110.5-0.1-165.7c0.4-15,7.9-25.1,23.6-25.3
		c43-0.5,86.3-5.9,128.6,6.8c64.6,19.5,94.7,97.6,59.9,155.4C2097.8,1789.4,2091.3,1795.8,2079.8,1800.1z"/>
	<path class="st13" d="M2079.8,1801.2c19.9-25.9,34.6-54.4,28-89.7c-9.5-50.8-36.4-76.5-94-83.5c-34-4.1-68.9-1.7-103.4-2.7
		c-10.7-0.3-13.2,4.5-12.7,13.9c2.9,58.6,2.4,117.2-0.1,175.8c-0.5,10.7,4.1,13.1,13.7,12.7c19.8-0.7,39.7-0.6,61.9-0.3
		c1.5,6.2-1.3,10.4-7.5,10.1c-27.8-1.1-53.9,10.5-81.4,10.4c-14.2-0.1-32.2,6-38.2-17.5c16.9-1.1,16.2-12.4,15.5-24.1
		c-2.5-42.9-9.9-85.8-0.4-128.8c1.9-8.3,2.8-16.9,4.4-27.4c12.4-13.9-2.9-38.8,17.4-44.5c14.9-4.2,32.1-0.3,48.1-1
		c41.1-1.9,82.3,3.8,123.5-3.5c11.8-2.1,26.7,2.5,24.6,21.4c-1.8,15.3,6.3,19.1,20,18.7c12.2-0.4,23.5-0.5,21.3-17.3
		c-1.9-14.9,6.6-18.5,18.9-21.4c25.4-6,50.3,1.1,58.9,20.4c-7.8,10.9-18.6,10.5-28.7,10.2c-19.2-0.6-25.6,8.7-25.5,26.8
		c0.4,40.5,0.3,81,0,121.4c-0.1,12.8,1.1,26-8,39.2C2117.1,1815,2104.4,1796.2,2079.8,1801.2z"/>
	<path class="st21" d="M2535.9,1804.5c4.1,34.2-20.3,20-33.8,22.4c-20.9,3.7-13.7-13.4-13.3-22c2.8-53.4,1.9-106.7-0.1-160.1
		c-0.3-6.3-4.7-20.6,6.2-18.1c13.6,3.1,32.9-14.6,41.3,12c-0.5,16.3-1.1,30.3-1.3,46.6c7.7,12.8,18.8,14.4,30.2,14.8
		c19,0.7,37.9,0.6,56.8,0.2c26.4-0.6,28.6-3.2,29.5-30.4c0.2-6-0.1-12.1,0.3-18.1c1.6-26.1,9.1-33.9,32.1-33.5
		c21.7,0.4,29.6,7.9,29.7,32.8c0.2,38.6-5.9,77-6.7,117.6c-1.5,7.4-1.6,12.9-0.9,20.5c8.9,16.4,12.7,30.2-7.8,39.8
		c-8-1.2-13.5-1.7-21.1-1.7c-17.9,7.9-22.1-2.4-24-14.6c-2.3-14.5-1-29.3-1.2-43.9c-0.1-9-0.9-18.7-12.2-19.5
		c-31.7-2.2-63.3-5.4-95.1-2.5c-2.5,0.2-4.1,2.9-7.4,6.5C2535.5,1770.8,2535.4,1786.5,2535.9,1804.5z"/>
	<path class="st20" d="M1254.6,1637.6c50.1-23.1,97.9-23.1,142.7,9.2c19.3,13.9,17.7,22.4-1.3,36.9c-14.5,11.1-19.8-1.7-27.6-8.1
		c-41.5-33.8-96.3-20-113.5,28.9c-18.6,52.8,29.1,101.9,88.6,91.1c33.1-6,35.3-9.7,32.6-42.8c-0.9-10.4-10.7-27.9,14-26.4
		c17.3,1,37.4-5.1,32.5,25.9c-2.7,17.5,0.1,36.1,2,54.1c1.5,14-1.1,21.3-15.9,13.5c-11.7-6.1-21.2-1.4-31.9,2.3
		c-36.2,12.4-72.8,14.7-108.5-1.1c-62.1-27.6-80.6-96.8-42.1-157.7C1235.8,1654.1,1244.7,1646.6,1254.6,1637.6z"/>
	<path class="st19" d="M2135.2,1823.8c2.4-58.9,6.2-116.4,0.6-173.8c-2-20.5,4.2-27.6,24.5-24.8c11,1.6,22.3,0.7,35.8,0.4
		c16.4-0.2,30.4,0.1,46.7-0.2c4.4-2.1,6.7-2.7,11-1.7c10.6,1.1,19.4,1.3,30.5,1.5c13.6,31.2,12.7,32.5-18.1,31.8
		c-22.4-0.6-44.9-0.3-67.2-1.2c-23.1-0.9-17.9,15.5-18.4,28.5c-0.6,13.5-1.5,26.2,19.4,24.3c24-2.1,48.3-1,72.4-2.1
		c9.5-0.5,18.6-1.5,16.4,11.8c-1.6,9.4,3.1,23.4-16.5,21.7c-24-2.1-48.3-0.2-72.4-1.5c-16.9-1-21.8,6.8-19.4,21.4
		c2.3,14.1-8.8,36.4,18.8,36.6c27.6,0.3,55.2-1.3,82.7-2.3c7.9-0.3,17.4-2.1,14.9,10.4c-1.8,8.9,2.2,22.8-13.7,23.4
		c-11.2,0.4-22.4-0.7-35.9-0.7c-26.6,0.2-50.9-0.1-77.7,0.1c-6,3.1-9.8,4.1-16.1,2C2146.5,1827.4,2141.3,1826.3,2135.2,1823.8z"/>
	<path class="st13" d="M587.2,1830c9.4-2.5,18.9-2.4,28.2-3.5c26.4-3,48.4-21.1,54.8-44.5c6.9-25.3-0.3-41.6-31.8-64.2
		c4.9-2.4,9.8-3.3,12.6-6.3c27.9-29.6,18.9-66.1-20.2-78.5c-44.5-14.1-90.7-5.3-136.1-7.4c-11.3-0.5-9.3,8.4-8.8,14.5
		c4.1,57.6,3.8,115.3,0.4,172.9c-0.4,6.3-2.5,14.8,10.7,15.2c-0.5,11.4-6.6,22.5-18.2,18.1c-10.9-4.1-16.9-16.2-15.9-29.8
		c3-37.1,8.9-74.1,0.1-111.4c-6-25.3,5.4-50.2,2.7-76.6c-1.5-14.5,24.9-21.7,40.9-23c46.9-3.8,94.1,1.6,141.2-3.5
		c11-1.2,22.5,9.2,19.5,21.9c-5.1,21.6,9.5,20.2,21.9,22.3c15.3,2.6,30.7-4.5,48.1,0.5c-52,47.5-60.3,91.9-24.5,147.5
		c-3.1,13.8-12.5,13.4-22.2,11.7c-5.6-1-14.8-5.1-15.1,2.5c-1.3,36.3-34.5,26.3-52.8,36.5C610.8,1851.5,591.7,1856.2,587.2,1830z"/>
	<path class="st22" d="M2336.6,1830.8c-8.5-35.7-8.5-35.6,25.6-37.5c8.5-0.5,17.3-1.5,25.4-4c10.2-3.2,19-9.3,20-21.1
		c0.9-10.8-6.1-17.7-14.8-22.3c-12.8-6.8-26.4-12.4-39.3-19.3c-37-19.8-38.7-68.5-2.5-89.9c33.2-19.5,67.8-13.6,102.1-2.2
		c6.6,2.2,10.7,6.2,5.1,13.3c-6.8,8.4-7.1,25-25.1,19.3c-13.9-4.5-27.8-8.7-42.9-6.3c-10.1,1.6-18.4,4.7-20.8,15.9
		c-2.4,11.2,3.8,18.1,12.9,22.6c13,6.5,26.4,12.2,39.5,18.5c37.8,18.2,42.9,64.1,9.6,89.9c-15.9,12.3-34.1,19.8-56.7,21.7
		c-2.2,0.7-4.7,0.9-5.1,1.5c-10.1,9.6-22.8,7.2-34.8,7.3C2335.5,1834.8,2336.4,1833.8,2336.6,1830.8z"/>
	<path class="st20" d="M1501.3,1827.5c-49.7-1.2-50.5-1.3-48.1-51.3c2-40.4,1-80.8-1.8-121c-1.6-22.4,1.9-34.7,27.5-29.1
		c3.3,0.7,6.8-0.2,12.6-0.9c12.4,6.5,7.3,16.9,7.3,25.5c-0.1,35.3-1.6,70.5-2,105.8c-0.5,39.9-0.2,39.9,41.3,39.4
		c20.1-11.3,40.3-9.1,59.6-10.3c14.6-0.9,21.5,8.6,21.9,22.7c0.4,13.6-4.7,24.1-19.3,25.6c-16.8,1.8-34,4.1-52.6-4.4
		C1531.6,1827.7,1517.6,1827.3,1501.3,1827.5z"/>
	<path class="st13" d="M960.5,1646.4c13.6,55,11.4,109.9,10,164.7c-0.4,14.8,6.2,20,17.7,16.1c13.1-4.5,37.4,16.6,39.2-18.1
		c13-0.7,15.1,5.2,12.2,17.5c-3,12.2-8.1,15-20.2,17.3c-49.6,9.4-98.8-1.8-148.1-0.6c-12.7,0.3-25.6-1.6-38.1,3.4
		c-8.7,3.5-14.8-1-17.7-11.9c15.4-8.7,31.9-13.5,45.8-23.7c7.1-5.2,12.5-8.5,16.1,4.5c7.3,26,28.2,9.9,42.6,11.2
		c15.7,1.3,9.5-13.5,9-21.2c-3.9-51.4-7.9-102.6,4.5-155.6C941.1,1637.1,949.9,1641.6,960.5,1646.4z"/>
	<path class="st13" d="M2707.6,1770.6c-10.2-38.4-3.9-76.8-2.3-115.2c1.2-29.2-13.6-39.6-40.5-29.8c-5.2,1.9-5.9,5.3-6.1,9.6
		c-0.2,4.3-0.1,8.6-0.1,12.8c0.3,60.3,0.3,60.4-61.7,60.3c-16.3,0-32.6-0.7-48.9-0.3c-12,0.4-14.7-5.9-13.1-18.2
		c23-2.2,45.3-2.2,67.8-2.2c13.4-0.1,19.7-3,17-20c-7-43.8,16-64.7,61-60c9,0.9,18.5-3.2,27.9-4c24.8-2.2,31.9,4.4,28.2,28.4
		c-3.3,21.4,12.5,45.1-7.8,64.3c11.9,17.7,10.7,36,5.4,56C2730.5,1767.1,2724.3,1773,2707.6,1770.6z"/>
	<path class="st13" d="M1545.7,1830.2c15.3-2,30.9-3.1,46.2-1.5c20.7,2.3,22.2-10.1,21.8-25c-0.5-19.4-13.9-9.6-22.4-9.5
		c-15.4,0.2-30.9,1.3-48.6,1.7c-4.6-17.8,0-26.6,20.5-26c19.9,0.6,39.7-6.8,62.4-4.6c17.4,30.6,39.3,53.4,74.6,63.7
		c0.6,14.9-7.6,21.8-20.6,18.7c-37.1-8.9-74.7-2.5-112-4.7C1559,1842.5,1547.5,1847,1545.7,1830.2z"/>
	<path class="st13" d="M2537.6,1754.8c-5.2-11-0.7-15.3,10.8-15.2c31.9,0.3,63.8,0.3,95.6-0.1c12.7-0.2,16.2,5.8,15.5,17.6
		c-1,18-0.6,36.2-1.4,54.2c-0.4,9.2-1.6,18,14.5,16.4c-0.9,13.3-7.1,24.3-22.1,17.7c-14.6-6.4-43.2-2.5-31.4-33.7
		c4.7-12.4,0.8-29.2,19.5-35.3c6.5-2.1,6.5-16.1-1.9-14.7C2603.4,1767.3,2572.7,1744.7,2537.6,1754.8z"/>
	<path class="st13" d="M885.8,1640.7c-0.7,7.5-3.3,14.6-6.6,23.5c-32-31.1-70.1-36.1-113.5-27.7c-14.4-23.3-12.1-29.1,14-31.7
		c26.4-2.7,52.7-5.5,79.4-0.4c15.8,3.1,20.3,11.2,18.3,25.7C877,1634.8,879.3,1638.5,885.8,1640.7z"/>
	<path class="st13" d="M1030.1,1718.8c-2.1-22.8,20.7-41.6,49.9-43c27.6-1.3,38.3,8.8,40.9,40.9
		C1091,1726,1061.7,1725.6,1030.1,1718.8z"/>
	<path class="st13" d="M1783.5,1640.5c-36.9-11.4-73.2-11.2-110.7,6.6c-4.2-40.1-2.4-42.1,38.2-42.3c12.1-0.1,24.2,0.8,36.2-0.3
		C1782.4,1601.5,1786.8,1605.3,1783.5,1640.5z"/>
	<path class="st13" d="M1118.5,1765.6c2.1,18.7,2.3,37.6,2.5,58.9c0.6,20-11,24.2-25.1,23.3c-16.4-1.1-10-14.7-11.2-23.8
		c-0.7-5,0.6-10.4-0.3-15.3C1079.8,1782.7,1089.4,1767.9,1118.5,1765.6z"/>
	<path class="st13" d="M1732.6,1835.5c13.7-3.9,27.4-7.8,40.8-13.2c13.9-5.6,30.6-31.3,41.3,4.2c0.6,2.1,10.9,1.3,18.9,2.1
		c-3.4,13.7-11.4,17.2-27.2,15.7C1782.1,1842,1756.7,1849.9,1732.6,1835.5z"/>
	<path class="st13" d="M2695.8,1830.3c21.1-7.5,4.9-24.2,10.3-36.8c20.9-6,33.2,1.2,35.4,22.9c1.2,11.6,2.7,22.6-12.3,26.9
		C2715.3,1847.1,2702.1,1850.5,2695.8,1830.3z"/>
	<path class="st13" d="M726.3,1810.9c22.8,12.1,44.3,21.7,71.2,22.3c-6.7,14.5-73.6,18.5-82,5.1
		C708.1,1826.6,711.2,1817.2,726.3,1810.9z"/>
	<path class="st13" d="M1986.3,1830.2c27-2.4,54.2-3.4,79.7-20.6c2.9,4.6,4,9.9,6.6,16.6c1.5,1.4,1.5,4,1.5,5.3
		c-8.4,13.5-17.9,21.7-33.1,10.8c-7.9-5.7-15.7-1.7-24.1-0.4C2005.8,1843.8,1992.7,1847.5,1986.3,1830.2z"/>
	<path class="st13" d="M1669.1,1646.9c-9.7,10.8-22.7,20.1-32.2,35.2c-22.4-3.1-6.3-16.9-7.5-25.7c-1.5-10.5,8.9-14.2,17.7-14.4
		C1653.7,1641.9,1660.4,1645,1669.1,1646.9z"/>
	<path class="st13" d="M1507.8,1568.8c6.7,6.6,11.5,13.5,17.2,21.8c-7.9,14.5-15.7,4.2-21.3-1
		C1497.3,1583.5,1495.5,1574.9,1507.8,1568.8z"/>
	<path class="st15" d="M1717.9,474.8c-3.1-6.8-4.8-14.2-6.5-23.5c6.8-7.8,13.6-7.8,20.6,0.5c-1.5,6.5-3.1,10.7-4.9,16.6
		C1724.4,471.6,1721.8,472.9,1717.9,474.8z"/>
	<path class="st13" d="M2336.2,1838.3c6.9-13.7,18.8-5.5,31-7.3c0.9,3.3-0.5,6.2-2.4,10.6
		C2355.4,1842.3,2346.6,1841.5,2336.2,1838.3z"/>
	<path class="st13" d="M2151.9,1830.1c3.7-2,7.6-2.4,13.5-2.4c1.5,5.6,0.6,11.4-5.4,12.3C2155.3,1840.7,2153.2,1836,2151.9,1830.1z"
		/>
	<path class="st13" d="M2255.4,1622.9c-2.3,2-4.6,2.3-8.6,2.2c-1.1-4.8-3.3-11.2,2.9-12.5
		C2255.4,1611.6,2254.6,1617.5,2255.4,1622.9z"/>
	<path class="st13" d="M1812.3,1651.4c2.1,3.9,3.6,9.5-2.1,9.7c-3.3,0.1-6.7-3.9-10.8-7.7
		C1802.6,1651.6,1806.5,1651.5,1812.3,1651.4z"/>
	<path class="st13" d="M2074.1,1827.5c0.5-0.2,1-0.4,0.7-0.3C2074.1,1827.6,2074.1,1827.5,2074.1,1827.5z"/>
	<path class="st13" d="M2074.1,1832.7c0.6,0.7,1.2,1.5,1.9,2.2c-0.5-0.3-0.9-0.5-1.6-1.5C2074.1,1832.8,2074.1,1832.7,2074.1,1832.7
		z"/>
	<path class="st13" d="M2364.2,1843.1c0.6,0.7,1.2,1.5,1.9,2.2c-0.4-0.3-0.9-0.5-1.6-1.5C2364.2,1843.1,2364.2,1843.1,2364.2,1843.1
		z"/>
	<path class="st13" d="M132.7,309.4c-1.6-2.1-1.6-4.4-1.5-8.4c2.7-0.5,6.7,0.1,7.8,2.1C140.6,306.3,137.5,308.3,132.7,309.4z"/>
	<path class="st15" d="M1641.5,264.6c1,4.2,1.9,8.4,2.8,15.8c-5.4,7.8-10.1,5.6-15.3-0.4c2.8-5.4,6.5-9,11.1-14.4
		C1641,264,1641.3,264.6,1641.5,264.6z"/>
	<path class="st23" d="M928.1,224c-3.3-4.1-5.8-6.4-11.3-6.5c-74.2-1.7-148.7-3.1-223.1-3.3c-19.5-0.1-39.1-0.1-58.6,0
		c-16.2,0.1-32.3,0.3-48.5,0.4c-13.9,0.2-28.1,1.3-42.3,2.1c-10.5,0.5-20.9,0.8-31.1,0.2c-11.1-0.7-20.4-0.8-31.4,0.4
		c-3.8,0.3-6,0.2-9.9-0.1c-10.7,1-17,5.4-19.4,16.3c0.1,4,0.1,6.3,0.4,10.3c2.3,24.8,81.6,15.3,97.3,15c19-0.4,51.9-7.6,66,8.3
		c-3.3-3.7-47.1,13.8-52.6,15.3c-22,5.8-44.4,9.5-66.5,14.7c-22.3,5.2-28.3,17.8-31.7,39.5c-0.7,4.5-0.3,7,1.7,11
		c8.7,10,18.3,15.7,29.7,22.1c4.4,0.8,6.9,0.8,11.3,0c80.8-8.8,165.4,33.7,233.4,73.2c2.3,1.4,3.3,2,5.7,3.2c3.7,1.5,5.9,1.9,9.9,2
		c2.9-0.5,4-0.8,6.7-2.1c6.7-4.8,9.4-10.2,11.3-18.1c1.3-5.5,2.4-9.2,3.1-14.9c0.1-4.6-0.2-7.2-1.2-11.7
		c-1.9-28.4-1.4-54.8-0.9-81.2c0.3-15.2,1.3-30.6,15.6-43.2c23.1-8.8,35.3-2.9,36.8,17.3c1.6,20.2,2.5,40.5-1.8,62.5
		c-0.3,4.6-0.2,7.2,0.7,11.8c11.5,37.7,35.7,57.9,74.3,62.6c2.8-2,3.7-3.1,5.3-6.1c3.7-12.1-1.7-21.6-1.2-33.6
		c-0.5-16.5,0.4-30.8-0.4-47.2c0.6-13.2-2.6-24.1-1.8-37.2c0.6-4.4,0.9-6.9,1-11.2c-0.4-9.6,0.2-17.1,6.7-24.6
		c2.4-2.8,3.9-4.4,6.6-7c6.1-6.5,14.4-8.8,16.3-19.1C935.9,236.5,932.7,230.8,928.1,224z M710.8,354.5c-6.4,17.9-23,17.6-34.1,10.7
		c-21.3-13.2-51.2-8.7-66.3-34.9c23.5-20.2,50.8-21.6,77.9-18C707.7,315,717.5,335.6,710.8,354.5z"/>
	<path class="st24" d="M914.1,430.1c-0.6-3.8-0.5-6.1-0.4-10.1c5-0.7,10.7-0.9,14.8,1.5c7.6,4.6,12.8,11.6,9.8,21.4
		c-1.9,6.3-7.5,5.8-12.5,6.3C910.3,450.8,918.3,437.6,914.1,430.1z"/>
	<path class="st15" d="M803.4,280c15.4,2.1,15.4,2.1,21.9,32.8c-3.9,2-7.7,2-13.5,2c-1.9,0-1.9-2.6-1.9-3.9
		C801.6,302,796.8,293.4,803.4,280z"/>
	<path class="st25" d="M1075.5,235.4c13.3,5.6,24.9,11.4,25.5,25.3c0.5,11.1,6.1,27-9.2,31.6c-16.2,4.8-34.5,7-49.7-3.8
		c-13.4-9.5-12.3-25.1-7.3-37.8C1041.5,234.1,1056.4,229.8,1075.5,235.4z"/>
	<path class="st15" d="M597.5,400c2.3-2.3,4.6-2.3,8.7-2.3c2.6-1.5,3.7-2.6,6.1-4.4c0.9-0.9,3.4-0.9,4.7-0.9
		c1.2,10.3,1.4,20.6,1.1,30.9c-0.3,7.4-2.9,14.2-11.3,14.5c-10.5,0.4-8.7-8.4-9-14.9C597.3,416,597.5,409.1,597.5,400z"/>
	<path class="st26" d="M748.7,1746.2c-2.5-43.8,21-71.9,59.3-73.3c35.6-1.4,64.4,25.3,64.3,59.4c-0.1,24.4-13.1,41-33.4,51.1
		c-23.4,11.7-46.7,9.2-68.1-6.6C760.9,1769.3,753.9,1759.6,748.7,1746.2z"/>
	<path class="st26" d="M1726.4,1787.6c-37.4-13.9-54.2-41.8-45.1-71.8c9.3-30.3,44.7-49.1,76.9-40.8c32.3,8.3,52.3,37.7,45.9,67.7
		C1797.1,1774.9,1765.9,1793.7,1726.4,1787.6z"/>
	<path class="st27" d="M627.6,1769.3c-5.2,19.7-18.9,25.5-35.2,26.8c-10.2,0.8-20.7-0.9-30.8,0.7c-25.7,4-32.9-5.4-32.7-31.6
		c0.2-23.3,7.7-30.2,28.8-28.4c14.5,1.2,29,1.1,43.5,2.4C617.9,1740.7,627.9,1749.4,627.6,1769.3z"/>
	<path class="st28" d="M608.6,1659.9c21.9,23.7,18.2,36.6-9.9,44.3c-13.6,3.7-27.4,2.4-41,3.7c-22.8,2.1-29.3-6.9-28.3-29.5
		c0.9-19.8,6-28.1,26.6-26.6C573.1,1653,590.4,1652.6,608.6,1659.9z"/>
	<path class="st15" d="M1942.1,1749.6c0.6-27.5,1.9-52.3,1.6-77.2c-0.2-12.6,4.8-16.9,16.5-16.5c14.6,0.6,29.4-0.7,43.8,1.2
		c40.7,5.6,63.2,34.4,60.4,75.6c-2.5,37.9-30.2,63-70.3,63.6c-1.7,0.1-3.4,0-5.2,0C1944.3,1796.6,1944.3,1796.6,1942.1,1749.6z"/>
	<path class="st26" d="M1644.1,363.4c2.3-2,4.6-2,8.5-2c1.1,7.8,0.4,15.6-1.6,24.7C1641.5,381.7,1644.8,373,1644.1,363.4z"/>
	<path class="st26" d="M1443.2,449.9c-1.4-1.6-1.2-2.4-0.6-4.6c6.1-0.8,12.3-1.6,14.6,7.6C1453.3,453.3,1449,451.9,1443.2,449.9z"/>
	<path class="st13" d="M479.4,393.8c0.7-7.1,2.4-12.8,4.2-20.5c2.3-1.8,4.5-1.8,8.3-1.8c8.1,4.2,6.9,10.9,7.1,19
		C493.1,394.8,487.5,400.2,479.4,393.8z"/>
	<path class="st13" d="M611.9,392.3c0.7,1.7-0.3,3.1-2.8,4.8c-1.1-0.4-1.1-1.2-1.1-3.5C608,392.1,610.6,392.3,611.9,392.3z"/>
	<path class="st0" d="M2424.6,74.3c-11-4.3-23.1-3.7-33.7,1.4c-5.1,2.4-9.3,6.2-14.1,9.1c-5.1,3.1-10.8,5.4-16.6,6.6
		c-5,1-10.3,1.2-15,3.1c-2.2,0.9-4.2,2.2-6.6,2.6c-8.4,1.7-10.1-9.5-12-15.1c-1.5-4.3-4.4-8.2-8.3-10.6c-5.5-3.4-12.2-2.8-18-0.3
		c-3.1,34.9-23.3,27.9-43.6,20.6c-4.8-1.8-10.4-2.6-14.3-5.6c-24.3-18.2-47.2-17.1-72,0.5c-10.8,7.7-25.2,10.7-40.5,11.6
		c-4.9,0.3-8.1-2.1-9.1-6.9c-1.3-6.6-1.2-12.3-5.3-18.3c-0.8-1.2-1.8-2.4-3.1-3c-1-0.5-2.2-0.5-3.3-0.5c-9.2-0.1-16.5,2.1-19.9,11.2
		c-2.5,6.7-3.6,14.4-11.7,16.4c-3.9-0.4-6.2-0.8-9.8-2.4c-18.7-10.9-37.9-15.4-57.9-23.8c-6.9-2.9-15,0.5-21.6,2.8
		c-7.6,2.6-14.9,5.9-21.8,9.8c-11.6,6.5-31,16-43.8,7.6c-5.5-3.6-8.1-10.4-9.7-16.5c-8.8-6.5-16.7-5.9-26-2.2
		c-3.3,3.3-4.2,6.1-3.8,11.7c1.5,8.2,4,15.5-6.2,14c-11-1.6-23.4-2.2-32.4-7.8c-31.8-19.8-62-23-93.8,0.1
		c-7.7,5.6-19.8,4.9-29.8,7.4c-8.9,2.2-12.5,1.1-10.3-9.8c2.3-11-4-18.7-15.6-18.5s-17.5,7.5-15.1,19c2.2,10.9-2.7,11.2-11.1,9.8
		c-20.6-3.4-40.6-9.1-57.9-20.7c-13.5-9-24.2-8-37.5,0.4c-16.7,10.6-35.5,17.1-55.6,19.6c-8.2,1-15.6,4.1-13-9.7
		c2.2-11.5-3.7-18.5-15.6-18.2c-10.7,0.3-16.7,8.3-14.7,17.2c3.9,17.2-6.1,11.7-13.9,10.1c-8.4-1.7-18-1.8-24.9-6.2
		c-31.3-20.2-62.4-22.6-95.8-1.9c-6.6,2.9-12.6,3.3-19.3,7.1c-5.6,0.9-9.5,1-14.8,0.9c-3.1-1.6-4.1-3.2-4.6-7.1
		c1.5-13.5-6.1-18.3-16.1-21.3c-2.1,0.7-3,0.6-5.3,1.2c-3.8,2.7-6.2,4.7-9.9,8c-6.5,22.1-22.8,12.4-36.8,13.5
		c-5.7-1.9-9.7-3.7-15-6.4c-5.8-3.8-10.7-5.6-17.4-8.4c-9.9-6.6-18.4-8.7-29.8-4.7c-11.9,3.4-21.7,7.4-30.4,16.4
		c-3.9,1.7-6.8,2.4-11.3,3.3c-15.5,1.4-28.4,0.8-35.6-16.5c-20.7-10.6-29.2-3.7-29.2,18.1c-2.1,3-3.8,3.9-7.7,4.3
		c-3.9-0.4-6.2-0.8-10-2.3c-23.1-4.4-39.8-19.5-62.7-24.7c-20,0-32,16.2-51.2,17.4c-8.5,0.5-13.8,4.7-21.3,8.2
		c-3.8,0.5-6.1,0.5-9.7-0.4c-7.5-7.6-4.4-19.4-16.5-24.4c-7.6-0.6-13.1-0.6-20.3,0.2C855.6,92.6,842,98,822.3,87.9
		c-2.2-1.1-5-0.5-9.4-0.6c-18.4-3.2-29.6-23.3-51.4-15.5c-25.5,8.8-47.2,23.3-72.3,22.3c2.8-6.2,3.7-14.2-6.3-21.7
		c-5.6-2-9.4-3.2-14.4-3.8c-2.1,0.7-3,0.9-4.9,1.7c-0.9,0.7-3.3,1.2-4.7,2.2c-9.2,28.3-29.2,17.5-48.2,15.1
		c-7.4-2.9-12.9-5.4-20-8.5c-2.2-1.3-2.9-2.1-3.7-2.9c-0.1,0.1,0-0.1-1.1-1.1c-3.5-3-6.2-4.2-11.1-5.1c-5.9,0-9.9,0.3-15.6,0.8
		c-18.5,6.7-33.7,16.8-51.4,20.9c-10.5,2.4-20.8,4.4-23.4-10.8c-2.1-12.7-11.8-12.9-23-11.4c-2.3,1-3.3,1.3-5.6,2.6
		c-9.4,7.3-9.9,14.4-4.9,21.9c-28.4,3.5-50.7-15.1-78.5-23.3c-7.6-0.2-13.1,0.1-20.1,0.6c-4.5,1.1-6.9,2.8-8.5,5.3
		c-0.2-0.4,0.3,0.3-1.2,1c-11.7,4.7-22.5,6.8-32.7,10.2c-15.3,5-25.9,2.6-34.9-13c-8.3-4.5-20.9-9.1-26.4,1.7
		c-1.1,2.2-1.8,4.7-2.2,7.1c-0.6,3.1-0.1,7-1.2,9.8c-2.1,5.2-10.3,4.1-14.6,3.1c-6.5-1.6-12-5.9-17.7-9.1
		c-12.4-6.8-27-8.8-39.5-15.5c-7-3.8-13.3-6.6-20.2-0.9c-5,4.1-8.3,11.3-6.9,17.8c2.2,9.9,6.3,18,15.6,22.8
		c5.4,2.7,11.3,4.2,17.1,5.9c11.3,3.2,22.3,7.4,33.6,10.5c26.4,7.4,54.2,9.5,81.3,6.2c12.3-1.5,24.1-5.8,35.3-11
		c10.8-5,20.5-11.6,32.7-11.4c7.8,0.1,15.3,3.3,22.4,6.1c17.9,7,36.6,12.4,55.6,15.2c22.3,3.4,45.3,3.3,67.4-1.8
		c10.3-2.4,20.4-5.9,30.2-9.8c4.9-2,9.8-4,14.7-6.1c2.1-0.9,4-1.6,6.3-2.1c1.6-0.4,5.2-2.2,6.7-1.9c18.2,4.2,35.1,11.9,53.1,16.7
		c18.2,4.8,36.9,7.8,55.7,7.9c24.6,0.2,49.4-4.6,71.5-15.5c6.7-3.3,13.2-7.2,20.4-9.2c7.9-2.1,14.4-0.9,21.4,2.7
		c8.1,4.2,17,7.5,25.6,10.5c34.7,12.1,72.8,13.9,108.6,5.5c14-3.3,27.9-7.6,40.6-14.3c8.5-4.7,15.7-7.6,25.3-3
		c8.2,3.4,14.4,7,22.7,10.4c12.5,4.4,23.8,6.5,36.7,10.3c7.3,1.2,12.6,1.7,19.9,1.7c8.8-0.1,15.5,0.1,24.3,0.1
		c8.6-0.3,15.2-0.6,23.6-2.5c12.5-3.6,23.2-6.3,35.8-9.1c2.8-0.9,4-1.2,6.7-2.3c4.6-2.1,7.6-3.6,11.9-6.2c5.7-3.9,10.4-6,17.5-5.2
		c7.7,0.8,15.9,5.7,22.8,8.8c6.8,3,13.1,7,20.2,9.6c14.8,5.3,30.5,7.4,46.1,7.8c19.7,0.6,39.5-1.3,58.8-5.6
		c17.3-3.8,32.1-15.3,50-17.6c8-1,16.1,0.1,23.4,3.7c3,1.5,5.9,3.4,8.9,4.8c7.8,3.7,16.9,5.5,25.2,7.5c8.9,2.1,17.9,3.9,27,5.1
		c18.2,2.3,36.8,2.4,54.8-1.2c14-2.8,27.5-7.8,40.7-13.2c6.2-2.5,11.6-4.7,18.1-5.8c7-1.1,14.3-1.3,21.4-0.2
		c2.9,0.5,5.8,1.1,8.5,2.1c8.7,2.9,16.5,7.9,24.9,11.4c9.2,3.8,19.4,4.7,29.1,7.2c23.2,1.7,44.3,2.4,67.4-0.9
		c15.6-5.2,29.9-8.4,42.5-15.5c7.4-4.2,15.7-6.6,24.3-5.8c9,0.9,17.5,5.4,25.9,8.4c18.3,6.5,37.2,12.3,56.6,14.2
		c38.7,4,75.7-7.7,111.2-21.8c0.8-0.3,1.5-0.6,2.3-0.9c6.2-2.3,9.5,0.8,15,3.1c5.3,2.2,11.1,3.3,16.6,4.9
		c10.5,3.1,20.3,8.2,30.8,11.3c14.7,4.4,30.3,4.8,45.5,4.2c18.1-0.7,36.3-2.6,53.9-7.2c8.8-2.3,17.5-5.2,25.8-8.9
		c8.1-3.6,15.3-9.6,24.7-7.4c0.8,0.2,1.6,0.4,2.3,0.7c2.7,0.8,3.9,1.1,6.7,1.9c17.5,4.8,34.1,12.4,51.8,16.4c17.9,4,36.5,4.7,54.8,3
		c22.8-2.1,45.7-7.6,66.5-17.3c8.4-3.9,15.9-6.8,25.3-5.4c8.4,1.2,14.8,7.2,22.6,10.1c8.9,3.3,18.2,5.3,27.6,7.1
		c31.6,6.2,66.8,11.7,97.8-0.6c5.1-2.1,8.5-3.3,13.5-5.2c6.7-2.6,12-4.1,18.5-6.5c5.1-2.1,8.9-3.3,14.1-4.7c2.3-0.6,3.2-0.8,5.5-1.2
		c4.4-0.1,7,1.1,11,2.9c4.4,2.1,7.4,3.7,12.1,5.4c16.4,7.8,32.4,10.4,49.9,14.6c7.1,1.1,12.4,1.8,19.8,1.7
		c7.4-0.1,12.8,0.1,20.3,0.1c14.3-0.3,26.1-2.8,39.8-6.5c6.7-2.2,11.6-3.8,18.3-5.6c11.1-3.7,21.1-3.3,32-7.1
		c13.4-7.5,21.6,2.3,32.8,6.3c3.9,1.5,6.3,2.2,10.4,3.5c6.6,2,11.3,3.7,18.2,5.2c12.3,3.2,22.8,4.5,35.6,4.4
		c8.8-0.2,15.5,0.1,24.2-0.1c7.3-0.4,12.6-0.8,19.7-2.6c11.7-3.6,21.9-5.4,33.1-10.6c6.6-2.8,11.7-4.1,18.3-7
		c16.8-9.1,32.5-16.8,21.9-39.9c-0.7-2.1-0.8-3-2.5-5c-17.3-2.5-29.5,4.5-41.7,16.2c-7.3,2.6-13.2,4.1-20.6,5.5
		c-6.5-0.5-10.3,1.7-15.7,4.8c-3.9,0.6-6.2,0.8-9.8,0.6c-2.9-1.6-3.6-3.2-3.8-7c0.1-14.5-6.1-21.6-18.8-20.7
		c-7.6,0.6-14.2,6.4-12.4,13.8c4.7,19.4-5.8,16.3-17.6,13.8c-16.1-3.5-32.9-6.2-45.7-16.5c-15.7-12.7-30.8-11.3-47-3.5
		c-8.2,3.9-16,8.5-25.5,12.2c-8.9-1.1-14.1,3.5-21.4,7.5c-3.8,0.7-6.1,0.9-9.9,0.3c-6.2-14.6-5.8-33.9-30.8-26.3c-1,0.6-3.2,1-4.7,2
		c-3.5,21.8-15.5,24.8-32.8,18.6c-4.7-1.7-9.8-1.7-15.4-3.9c-1.1,0-2.9-1.1-4.2-2.2c-6.3-6.1-12.3-9-21.4-9.4
		c-8.7-5-15.8-8-25.9-4.9c-8.9,1.2-14.6,5-20.3,9.1c-12.4,9.1-27.6,9.5-41.8,11.4c-11.8,1.6-9.3-12.6-15-18.3
		c-5.7-5.6-12.7-4.2-20.9-3.2c-3.9,2.7-6.4,4.6-10.1,7.7c-6.1,6.3,0.7,16.8-11,19.7c-3.9-0.5-6.1-1.1-9.9-2.6
		C2476.9,94.7,2424.6,74.3,2424.6,74.3z"/>
	<path class="st14" d="M1386,270.1c-5.2-1-10.5-1.2-16.3-0.9c-5.6,0.3-11.2,0.7-16.8,1.3c-5.2,0.6-10.9,2.2-16.2,2.2
		c-13,2.1-25.7,5.2-38.2,9.2c-6.7,2.2-13.3,4.7-19.8,7.5c-3.4,1.5-6.8,3.1-10.2,4.7c-2.1,1-8.5,3.1-9.6,5c-1,1.9-2.1,3.9-3.8,6.1
		c-1.7,2.4-3.1,3.4-5.9,6c-18.6,22.3-2.4,38.3,7.8,56.4c14.5,13.8,27.6,26.6,41.7,41c10.6,14.1,24.6,19.2,40.5,24.7
		c3,0.8,4.2,1.1,7.3,1.8c11.8,2,21,6.1,32.5,9.5c4.5,0.9,7.2,1.3,11.9,1.6c17.4,0,32.6,0.6,50-1.2c3.4-1,4.8-1.5,7.9-3.1
		c4.2-2.7,6.3-4.7,9.3-8.6c7.9-14.3,4.1-26.1-2.4-39.4c-28.7-39.3-46.2-45-89.1-30.1c-11.5,4-23,7.1-35.3,5.8
		c-13.1-1.5-24.3-6.4-24.4-21.3c-0.1-13.7,10.3-19.4,22.4-20.4c22.3-1.8,45-3.3,65.3,9c16.5,9.9,34.3,15.5,55,19.4
		c8.5,1.2,15.1,1.2,23.5-0.7c7.8-2.6,14-2.8,22-4.2c3-0.7,4.2-0.9,7.1-1.8c29,0.4,32,4.6,32.4,43.2c0.3,3.1,0.4,4.3,1,7.4
		c0.9,3.1,1.5,4.2,3.1,7c2.1,2.4,3.2,3.2,5.6,5.2c20.7,15.2,39.7,29.5,66.9,20.6c1.6-2.9,2-4.1,2.8-7.3c-5.6-39.1-1.8-76.8-7.2-114
		c-3.2-22.1,5.5-33.4,30.6-37.5c3.6,2.1,5.6,3.6,9.1,6.1c8.2,8.5,10.4,18.4,9.8,27.3c-1.9,30.8,4,61.3,3.6,93.9c1,3.1,1.5,4.2,3.1,7
		c11.4,16.6,28.6,22.6,44.1,34c3.1,1,4.4,1.3,7.7,1.7c16.8-1.1,23.7-11,28.4-25.6c2.1-15.8,2.2-29.5-0.6-45.2
		c-2.5-8-3.3-14.3-3.3-22.5c-0.1-4.3-0.1-6.7-0.1-10.9c0.1-6.6,1.6-11.1,2.8-17.5c0.6-5.3,0.5-8.8-0.7-13.9
		c-2.7-10.3-3.7-18.9,2.4-28.3c9.3-11.9,21.2-15.7,35.5-19.1c16.9-3.2,33.6,0.7,47.4-13.2c0.7-3.1,0.4-4.4-0.2-7.4
		c-1.8-5.9-3.3-10-5.8-16.1c-9.6-10.9-19.5-14.5-33.7-7.9c-86.9,1-171.5,1.5-258.2,1.1c-47.5-1.9-92.8-7.3-140.7-0.9
		c-33.6,0.1-64.8-0.3-97.7-0.9c-12.3-3.8-23.4-4.9-36.5-4.9c-9.1,2.4-16.2,4.8-25.2,7.3c-16.1,18.4-14,34.7,3.1,43.8
		c27.7,2.5,110.8,8.8,169.3,0.7c0-0.1-0.1-0.2-0.1-0.3c10.4-3,20.8-5,31.2-6.3c0.2-0.1,0.3-0.1,0.3-0.1c26.9-3.5,53.7-2.3,80.7,1.6
		c8.2,1.2,16.4,1.8,16.6,11.8c0.2,12.2-10.4,10-17.1,9.1c-23.5-3.4-45.6,2.3-68.3,7.3c-6.8,1.5-13.8,1.8-20.7,0.8
		c-9.3-1.3-17.9-9-26.4-12.9C1393.3,272,1389.7,270.8,1386,270.1z"/>
	<path class="st29" d="M2222,269.7c12.2,23.1,49,24.7,47,58.6c-0.3,3.1-0.5,4.2-1.3,7.1c-3,7.1-8,10.2-12.7,15.5
		c-1.5,2.1-2.1,3-3.4,5.1c-1.6,3.2-2.3,5-2.7,8.5c0.2,3.7,0.5,5.9,1.3,9.6c9,16.5,21.9,25.9,37.6,31.8c7.2,2.7,14.3,5.7,20.9,9.6
		c10.2,6.1,18.3,14,15,26.9c-3.7,14.1-15.6,18-28.3,16.4c-34.9-4.6-65.4-18.8-90.4-47c-8.1-11.4-9.8-23.8-16.6-33.7
		c-12.5-18.2-25.4-17.3-35,2.8c-7.2,15.2-13.9,30.2-36.9,25.8c-3.9-1.4-6-2.6-9.2-5.3c-5.9-7.5-10.7-13.5-20.5-16.2
		c-4.9-1.9-8-3.5-12.6-6.1c-21.2-13.5-29.3-31.9-30.3-54.7c-1.6-36.5-9.5-42.5-47.3-36.3c-2.5,1.6-3.6,2.2-6.2,3.6
		c-13.3,6.2-24.6,12.2-34.9,22.8c-3.9,3.5-6.8,5.5-10.8,8.9c-9.9,8.7-16.6,17.7-20.4,28.3c-2.6,7.2-3.9,15.7,3.6,21.2
		c7.5,5.5,14.7,2,21.1-3.2c6.7-5.4,13-11.2,21.9-16.8c2.8-1.3,4-1.8,7-2.7c9.6-1.6,17.3-1.4,26.8,0.5c7.9,2.6,12.9,6.6,19.9,10.8
		c13.9,8.3,21.6,19.6,28.4,33.9c1.7,4.2,2.2,6.7,2.5,11.2c-6.4,30.1-33.6,32.2-54.8,45c-14.3,4.3-24-3.5-36.6-7.8
		c-7.8-2.7-13.8-4.3-21.9-6c-37-8.9-71.4-18.5-92.1-54.8c-2.5-7-3-12.3-3.5-19.6c0-24.5,1.6-46.7,18.3-66.5c2-2.4,2.7-3.4,4.8-5.7
		c10.8-10,16.7-19.1,2.7-31.1c-3.1-3.1-4.6-5.1-6.7-9c-2.8-11.5-2.2-20.4,8.3-27.8c1.8-0.9,0.1-2.6,0.9-1.8
		c-3.4-3.5,11.7-9.1,14.1-8.9l122.2,0.8c6.4-0.1,12.9,0.3,19.3,0.1c10.6-0.3,21.2-0.5,31.8-0.5c21-0.1,42.1,0,63.1,0.2
		c35.3,0.4,68.1,0.5,103.4,0.4c8.1-2.8,13.9-3.6,21.7,0.2c10.7,0.9,19.5,0.6,30.4-0.2c10.9-3.6,18.3-1.1,25.7,6.9
		c1,1.8,2.6,0.2,1.9,1c8.1,22.2-2.1,37.8-27.9,41.4c-8.8,1.2-17.7,0.9-26.8,0.7c-44.7-6.4-73.6-7-89.3-6.4
		c-8.6-3.7-20.6,1.7-29.8,0.4c-5.1-0.7-10.9,3.9-18,7.4c-11,24.3-2.4,42.5,17.6,41.7C2134.4,307.2,2195.8,248,2222,269.7z"/>
	<g>
		<path class="st30" d="M414.8,491.6c-11.8,1.4-15.7,9.6-8.6,17.1c5,5.4,21.8,48.2,18.9,48.5c-1.4,0.4-8.9,0.7-16.8,1.4
			c-7.9,0.4-20.3,2.5-27.5,4.3c-9.6,2.9-13.2,2.9-12.5-0.4c0.4-2.1-2.5-3.9-6.4-3.9c-10.4,0-8.9,12.1,2.5,20.7
			c7.5,5.4,14.3,7.1,27.8,6.4c15.7-0.7,17.8,0,17.8,6.8c0,3.9,1.4,7.1,3.2,7.1c6.8,0,25.7,19.3,32.5,32.8
			c5.7,11.8,5.7,14.3,1.4,16.1c-2.9,1.1-5,6.1-5,11.1c0,8.6-19.6,43.5-24.6,43.5c-1.1,0-6.1-4.3-10.7-8.9c-9.3-10-7.9-19.6,3.2-19.6
			c8.9,0,21.4-12.1,21.4-21.1c0-14.3-11.1-21.4-35.7-22.5l-22.8-1.1l-7.5,14.3c-9.3,17.5-17.5,18.6-18.9,3.2
			c-1.1-10,1.4-13.6,16.8-26.4c10-8.6,17.1-16.8,16.1-18.6c-3.2-5.4-19.3,0-31.4,10.4c-16.8,13.6-21.1,24.3-18.2,43.2
			c2.1,13.2,5.4,19.3,18.9,31.8c9.3,8.6,22.8,17.1,30,18.9c15.3,4.3,38.5,31.4,38.5,45c0,8.2-19.3,26.4-27.8,26.4
			c-5.4,0-5.4-2.1-0.4-10.4c10-15.7-8.9-43.2-30-43.2c-23.9,0-40.3,23.2-23.2,32.5c6.4,3.6,8.6,2.9,12.5-2.5
			c2.5-3.6,4.6-7.5,4.6-9.3c0-4.6,6.1-3.2,12.1,2.9c9.6,9.6,6.4,18.2-13.9,38.2c-10.7,10.4-19.6,20.7-19.6,22.8
			c0,2.1-2.5,6.1-5.7,8.6c-4.6,3.9-5.4,8.6-3.6,23.9c3.6,31.4,5.7,33.9,59.6,74.2c31.8,23.6,37.8,32.1,30,42.8
			c-5.7,8.2-16.1,3.9-16.1-6.8c0-15.7-33.2-34.6-51-28.9c-8.2,2.5-27.1,22.1-27.5,28.6c0,6.8,16.4,19.3,26.1,19.3
			c10.4,0,13.2-9.3,5.7-16.8c-7.9-7.9-1.8-11.4,10.7-6.1c10.4,4.3,11.4,6.1,9.3,14.6c-1.1,5.4-12.8,21.4-25.7,35.7
			c-34.3,38.5-36.4,60.3-9.6,99.6c11.4,16.4,39.6,40.7,47.5,40.7c1.8,0,12.1,8.6,23.2,18.9c17.1,16.1,20,20.7,20,31.8
			c0,15.7-5.4,31.4-11.1,31.4c-2.1,0-11.4,3.9-20.7,8.6c-12.1,6.1-18.9,7.5-22.8,5c-7.1-3.9-7.9-10-1.4-10c2.5,0,10.7-6.4,18.2-13.9
			c12.5-12.8,13.6-15.3,11.8-27.8c-1.4-9.3-6.4-17.1-15-25.3c-11.4-10.7-13.9-11.4-34.3-10.4c-22.8,1.1-24.6,2.5-33.9,23.6
			c-5,11.1-5,12.5,2.5,20.3c9.3,10,28.6,11.4,35.7,2.9c3.6-4.6,3.6-6.1-0.4-8.6c-2.5-1.4-6.4-2.1-8.9-1.4c-2.5,1.1-3.9-1.4-3.6-6.4
			c0.4-7.1,2.5-8.2,14.6-8.2s14.6,1.4,20,12.5c3.2,6.8,6.1,13.6,6.4,15c0.4,5.4-21.4,25.7-28.2,26.1c-11.8,1.1-35,19.3-40,31.4
			c-2.9,6.8-5,26.1-5,47.1c0,35.7,0,35.7,12.5,51c7.1,8.2,17.8,16.8,25,18.9c6.8,2.1,15.7,7.1,19.6,10.7c3.9,3.6,11.4,7.9,16.8,10
			c5.7,2.1,10.7,7.5,12.1,12.8c1.4,5.4,5.7,10,10.7,11.1c6.4,1.8,8.6,4.6,8.6,12.5c0,9.6-0.4,10-7.9,6.1
			c-4.6-2.5-12.1-8.2-17.1-12.1c-30.7-26.1-87.4-18.6-101.7,12.8c-14.6,32.1,8.9,53.5,59.6,53.5c13.9,0,27.8-14.3,27.8-28.2
			c0-9.6-1.8-11.1-14.3-14.6c-14.3-3.9-21.4-2.5-21.4,3.9c0,1.8,3.9,3.2,8.9,3.2c12.5,0,15.3,9.6,5.7,18.9
			c-7.1,7.1-8.2,7.5-22.1,2.5c-13.6-5-15.3-7.1-19.3-22.1l-4.3-16.8l15-5.4c22.1-8.6,37.5-7.1,56.4,5c17.5,11.1,23.9,21.8,23.9,38.9
			c0,13.2-6.8,18.9-45,37.5c-28.6,13.9-44.3,25-40.3,28.6c0.7,1.1,19.3,2.5,41.4,3.6c21.8,1.1,42.5,3.2,45.3,4.3
			c3.9,1.4,5.7,0,5.7-3.9c0-4.3,1.8-5.4,7.9-3.2c7.5,2.1,7.5,1.8,3.2-3.6c-2.9-3.2-6.8-5.4-8.9-4.6c-5.4,2.1-3.9-25,1.4-31.4
			c2.1-2.5,7.9-5.7,12.5-6.8c6.4-1.8,9.6-6.4,13.9-21.4c12.1-41.8,4.3-80.3-20.3-100.3c-31.8-25.7-41.8-40-41.8-59.3
			c0-10,2.1-14.6,11.1-21.4c6.1-4.6,16.1-10.4,22.5-12.5l11.1-4.3l-10-3.9c-5.7-2.1-12.5-3.9-15-3.9c-11.8,0-30,12.5-37.5,25.7
			c-7.5,13.6-7.5,14.6-2.1,31.8c5.7,17.1,5.4,24.6-1.4,24.6c-6.4,0-21.4-26.8-21.4-38.5c0-24.3,18.2-49.3,41.8-57.1
			c6.1-2.1,21.1-10.4,33.2-18.2c12.1-8.2,23.9-14.6,26.4-14.6c5.7,0,16.4,12.1,26.4,29.6c10.7,18.9,10.4,46-1.4,80.3
			c-12.5,35.7-12.8,52.1-1.8,60.3c26.4,20.3,26.4,20.3,28.2,43.9c2.1,30-5,59.6-17.8,73.2c-5.4,6.1-10,12.5-10,14.3
			c0,2.1,5.7,10,12.1,17.8c12.8,15,21.4,15.3,11.4,0.4c-8.2-12.8-7.1-20,5.4-43.5c10.7-20,11.1-22.5,8.9-50
			c-2.1-29.6-8.6-50.3-20-65c-11.4-13.9-12.1-27.8-3.2-42.5c6.8-10.7,8.2-17.8,8.2-45.3c0-28.2-1.4-35-9.6-51
			c-12.1-23.2-12.1-31.1-0.4-53.2c11.8-22.5,12.5-37.5,1.4-52.1c-7.9-10.7-8.2-12.5-4.3-35.7c6.1-34.3,5.4-48.9-3.2-80
			c-4.6-16.8-6.4-31.4-5.4-38.5c7.5-36.4,7.9-47.5,3.2-68.2c-2.9-11.8-4.3-24.6-3.2-28.6c0.7-3.9,3.6-14.3,5.7-22.8
			c3.9-15.3-0.4-45.7-7.5-55.7c-1.4-2.1-1.4-21.1,0.4-42.5c2.1-30.3,1.8-41.4-2.1-51c-3.2-7.5-3.9-14.3-2.1-18.2
			c5.7-11.1,2.5-79.6-4.3-95.3c-3.2-7.9-5.4-17.1-4.3-21.1c1.1-3.6-1.8-17.1-5.7-29.6c-6.8-21.1-7.1-23.2-1.4-28.9
			c11.8-13.2,5.4-34.3-9.6-32.1C428,489.8,420.9,490.8,414.8,491.6z M408.4,651.8c0,5.4-2.9,7.1-15.7,7.9
			c-14.6,1.1-15.3,0.7-11.1-4.6c5.7-6.8,17.8-12.5,23.2-11.1C407,644.3,408.4,647.9,408.4,651.8z M447.7,731.4
			c2.9,9.6-1.1,23.6-9.3,31.1c-5.4,5-7.5,5-12.1,1.4c-3.2-2.9-4.3-6.1-2.1-8.6c1.4-2.1,5-10,7.1-17.5
			C435.9,723.6,444.1,720.3,447.7,731.4z M437.3,798.2c11.8,12.1,12.1,13.6,12.1,42.8c0,16.8-1.8,33.6-3.9,37.5
			c-4.3,8.2-32.8,21.8-40,18.9c-8.2-3.2-21.4-27.8-21.8-40.3c-0.4-13.9,5.4-17.1,21.8-12.8l9.3,2.1l-8.2,7.5
			c-7.9,7.1-7.9,7.9-1.4,12.5c9.6,7.1,17.8,5.7,25.7-4.3c7.9-10,6.8-23.6-2.5-31.4c-3.2-2.9-13.6-6.1-22.8-7.1
			c-15.7-1.4-18.2-0.7-29.3,10.4c-8.6,8.2-12.5,15.3-12.5,22.5c0,13.9-8.9,21.4-16.8,13.6c-13.2-12.8,0.4-56,17.5-56
			c3.6,0,7.5-2.5,8.2-5.4c5.7-18.2,5.4-17.5,10.4-10.4c5,6.4,5.4,6.4,18.6-3.2c7.9-5.4,16.1-9.6,18.9-9.6
			C423,785.3,430.9,791,437.3,798.2z M446.2,931.7c12.1,6.8,6.8,41.8-5.7,36.8c-3.9-1.1-5.4-6.1-5-15c0.4-7.1,0.4-14.6-0.4-16.4
			C432.7,927.4,435.5,926.3,446.2,931.7z M442.7,1007.3c13.2,14.3,15,23.6,10,58.9c-3.6,26.4-6.1,34.6-12.8,41
			c-13.2,12.1-10.4,27.8,6.4,36.4c16.1,7.9,21.1,48.5,6.1,51.4c-5.4,1.1-13.6-16.1-19.3-39.6c-1.4-6.1-6.8-12.1-13.6-16.1
			c-6.4-3.2-18.2-13.6-26.4-22.5c-12.5-13.6-15-18.9-15-30.7c0-18.2,8.6-26.4,30.3-28.9c16.1-1.8,16.8-1.4,15.3,6.8
			c-0.7,7.1-3.2,8.6-14.3,8.6c-7.5,0-13.6,1.1-13.6,2.5c0,1.8,0,4.6,0,6.8c0,5.7,36.1,1.4,40-4.6c3.6-5.7,3.6-24.6,0-30
			c-3.9-6.1-35.3-13.2-47.1-11.1c-15.3,3.2-38.9,20-41.4,29.6c-2.5,9.6-7.9,11.1-10.7,3.2c-6.1-15.3,12.8-40.3,39.3-51.8
			c9.3-4.3,17.8-10,18.9-12.8c1.1-3.6,7.9-5,21.1-5C430.9,999.5,436.6,1001.3,442.7,1007.3z M453,1122.6c0,2.9-1.4,5.4-3.2,5.4
			c-4.6,0-7.9-5.7-5-8.6C448.7,1115.5,453,1117.3,453,1122.6z M385.2,1365c0,1.1-1.4,2.9-3.6,3.9c-1.8,1.1-3.6,0.4-3.6-1.4
			c0-2.1,1.8-3.9,3.6-3.9C383.8,1363.5,385.2,1364.3,385.2,1365z M470.9,1388.5c0,1.8-0.7,3.6-1.4,3.6c-1.1,0-2.9-1.8-3.9-3.6
			c-1.1-2.1-0.4-3.6,1.4-3.6C469.1,1385,470.9,1386.4,470.9,1388.5z M340.2,1529.5c-1.4,2.9-3.6,4.3-5.4,3.2
			c-3.9-2.1-0.7-8.6,3.9-8.6C340.6,1524.2,341.3,1526.7,340.2,1529.5z"/>
		<path class="st30" d="M219.9,495.1c-3.6,3.2-2.9,33.9,0.7,39.6c1.4,2.5,7.5,5.7,13.2,7.5c8.6,2.1,10.7,4.6,11.4,15
			c0.7,6.4-0.4,17.8-2.5,24.6c-4.3,13.6-8.2,63.9-7.5,99.2c0.4,12.1-1.4,50.7-3.2,85.7c-5.4,94.2-7.9,183.8-9.3,332.7
			c-1.1,142.8-3.6,208.5-8.2,228.1c-2.1,9.6-6.1,14.3-16.8,20l-14.3,7.1l-0.7,87.4c0,48.2-1.1,93.2-1.8,99.9
			c-1.1,12.1-0.7,12.5,13.2,13.6c18.6,1.4,25.3-6.4,17.8-20.7c-2.9-5.7-7.1-10.7-9.6-11.4c-6.1-2.1-12.8-41-10-56
			c7.1-32.8,10.7-57.5,10.7-71c0-13.2,1.4-15.7,13.9-23.9c11.1-7.5,14.3-12.1,16.1-23.6c1.4-7.9,1.4-15.7,0.4-17.5
			s-0.4-9.6,1.4-16.8c2.1-7.5,3.6-39.3,3.6-70.7c-0.7-120.6-0.4-148.1,1.8-201.7c1.1-30.3,2.9-76.4,3.6-101.7
			c0.4-25.7,2.9-56.8,5-69.6c3.9-23.2,8.2-123.1,9.6-222c0.4-42.1,1.8-53.9,6.1-58.9c3.2-3.6,6.8-13.2,8.2-21.4
			c2.1-13.9,1.4-16.1-12.8-31.4c-12.8-13.9-14.6-17.5-11.1-22.5c7.9-11.1,8.9-15.7,3.9-18.9C247.1,492.3,223.1,491.6,219.9,495.1z
			 M205.3,1360.3c3.2,5.4-3.9,11.8-10.7,9.3c-3.2-1.4-4.6-4.6-3.6-7.9C193.5,1355.7,201.7,1354.6,205.3,1360.3z"/>
		<path class="st30" d="M302,503.3c1.4,7.5,0.7,10.7-2.5,10.7c-3.6,0-3.6,1.1,0,5.4c5.7,6.8-0.7,63.2-10.7,91
			c-7.5,21.1-9.6,69.2-3.6,73.2c4.3,2.9,4.6,24.3,0.4,28.9c-5.4,5.4-7.5,34.6-3.6,49.6c2.1,7.9,4.6,17.8,5.7,22.1
			c1.1,4.3-1.1,11.8-5.4,17.8c-6.4,8.6-7.1,14.6-6.4,40.3c0.7,16.8,2.9,38.2,5.4,47.8c4.3,16.1,3.9,17.8-2.9,27.5
			c-11.1,15-12.5,28.9-5.7,54.3c5.7,21.1,5.7,23.9,0.4,39.6c-3.6,10-5.7,28.6-5.7,46c0,24.6,1.4,32.1,8.9,46.4l9.3,16.8l-9.3,15.7
			c-12.5,21.4-15.3,48.2-7.1,66.4c6.1,13.2,6.1,14.6,0,29.3c-10.4,25.3-16.1,46.8-16.1,59.6c0,14.6,8.9,49.3,16.1,63.2
			c7.5,14.3,7.1,16.4-7.5,30.3c-17.8,17.1-27.1,36.8-29.3,62.5c-2.1,27.5-0.4,34.6,13.2,55.3c10,14.6,10.4,17.5,7.1,29.6
			c-2.1,7.5-2.9,16.1-1.4,19.3c1.8,4.6,4.6,3.2,14.3-8.2c6.8-7.9,12.1-17.8,12.5-22.1c0-4.6-5.7-15.3-12.5-24.6
			c-11.4-14.6-12.5-18.6-12.1-38.2c0.4-34.3,9.6-59.6,25.7-70c7.1-4.6,13.2-11.1,13.2-13.9c0-3.2-4.3-17.8-9.3-32.5
			c-7.9-23.2-9.3-31.4-7.9-57.8c1.1-24.6,2.9-32.5,9.6-42.1s7.9-13.9,5.7-27.5c-1.1-8.9-4.6-17.1-7.5-18.2
			c-5.7-2.1-7.1-32.8-2.1-38.9c1.8-1.8,6.1-11.1,9.3-20.3c6.4-16.8,6.4-17.5-1.4-36.8c-6.1-14.3-8.2-27.5-8.6-49.6
			c-0.4-30.3-0.4-30.7,11.4-39.6c14.6-11.8,15.7-30,2.5-49.3c-5-7.1-8.9-14.3-8.9-15.7c0-1.8,5.4-11.4,12.1-22.1l12.1-19.3l-10-20
			c-5.4-11.1-11.1-27.5-12.5-36.8c-2.1-15-1.4-18.6,8.6-33.2c12.1-18.9,14.6-37.8,5.7-50.3c-6.4-9.3-2.1-38.9,8.9-56.4
			c7.1-11.4,7.1-11.4,0-19.6c-8.6-10-12.1-27.5-9.3-47.1c1.1-8.6,2.5-18.2,2.9-21.8c0.4-3.2,2.5-6.1,4.6-6.1
			c7.5,0,13.6-16.4,10.7-29.3c-5.4-26.1-0.7-61.8,10.4-73.9c9.6-10.7,3.6-18.2-14.3-18.2C299.9,492.6,299.9,492.6,302,503.3z"/>
		<path class="st30" d="M479.4,497.6c-2.9,7.9,1.8,13.9,9.6,11.8c10-2.9,8.2,6.4-3.2,17.8c-5.7,5.4-12.5,16.4-15,24.6
			c-3.6,12.5-3.6,16.1,1.1,23.2c3.2,4.6,6.8,19.6,8.2,33.6c1.4,13.6,3.9,28.2,6.1,31.8c2.1,4.3,3.6,47.5,3.2,107.1
			c0,55.3,1.4,108.2,3.6,118.1c4.6,23.9,6.4,249.9,2.5,267c-2.5,9.6-2.1,19.6,1.8,35.7c7.5,31.4,10.7,78.2,9.6,138.5l-0.7,52.5
			l12.1,7.5c6.8,3.9,15,7.5,18.2,7.5c5,0,5.7,7.9,5.7,72.8c0,86.4-1.1,94.9-12.8,94.9c-5.4,0-8.6,2.1-8.6,5.4
			c0,7.9,9.6,10.7,19.6,6.1c11.1-5,11.8-13.2,13.6-114.2c1.1-56.4,0.4-80.7-2.5-83.2c-2.1-1.4-8.6-6.8-13.9-11.1
			c-5.4-4.6-11.8-14.6-13.9-22.5c-2.5-8.2-4.6-54.3-5.4-108.9c-0.7-52.1-1.8-113.1-2.5-135.6c-0.4-22.5,1.1-62.8,3.9-89.2
			c5-48.5,3.9-99.2-3.2-126.4c-1.8-7.9-4.3-42.5-5-76.7c-1.1-34.6-2.5-67.8-3.6-73.5c-1.1-6.1-2.1-32.5-2.5-58.9
			c-1.1-38.5-2.1-50-7.1-57.5c-6.4-9.6-8.9-38.2-4.6-45.7c1.4-2.1,5-3.9,7.9-3.9c2.9,0,5-1.4,5-2.9c0-1.8,3.9-5,8.9-7.1
			c7.5-3.6,8.9-6.4,8.9-20.3c0-17.8,0-17.8-26.1-21.4C485.1,492.6,481.2,493.3,479.4,497.6z"/>
		<path class="st30" d="M431.6,1290c3.9,10.4-1.1,18.2-15.3,23.6c-11.8,4.3-11.1,11.8,0.7,13.6c17.5,2.5,32.8-23.9,22.8-38.5
			C432.7,1278.6,427.3,1279.3,431.6,1290z"/>
	</g>
	<g>
		<path class="st30" d="M2855.3,491.8c-11.8,1.4-15.7,9.6-8.6,17.1c5,5.4,21.8,48.2,18.9,48.5c-1.4,0.4-8.9,0.7-16.8,1.4
			c-7.9,0.4-20.3,2.5-27.5,4.3c-9.6,2.9-13.2,2.9-12.5-0.4c0.4-2.1-2.5-3.9-6.4-3.9c-10.4,0-8.9,12.1,2.5,20.7
			c7.5,5.4,14.3,7.1,27.8,6.4c15.7-0.7,17.8,0,17.8,6.8c0,3.9,1.4,7.1,3.2,7.1c6.8,0,25.7,19.3,32.5,32.8
			c5.7,11.8,5.7,14.3,1.4,16.1c-2.9,1.1-5,6.1-5,11.1c0,8.6-19.6,43.5-24.6,43.5c-1.1,0-6.1-4.3-10.7-8.9c-9.3-10-7.9-19.6,3.2-19.6
			c8.9,0,21.4-12.1,21.4-21.1c0-14.3-11.1-21.4-35.7-22.5l-22.8-1.1l-7.5,14.3c-9.3,17.5-17.5,18.6-18.9,3.2
			c-1.1-10,1.4-13.6,16.8-26.4c10-8.6,17.1-16.8,16.1-18.6c-3.2-5.4-19.3,0-31.4,10.4c-16.8,13.6-21.1,24.3-18.2,43.2
			c2.1,13.2,5.4,19.3,18.9,31.8c9.3,8.6,22.8,17.1,30,18.9c15.3,4.3,38.5,31.4,38.5,45c0,8.2-19.3,26.4-27.8,26.4
			c-5.4,0-5.4-2.1-0.4-10.4c10-15.7-8.9-43.2-30-43.2c-23.9,0-40.3,23.2-23.2,32.5c6.4,3.6,8.6,2.9,12.5-2.5
			c2.5-3.6,4.6-7.5,4.6-9.3c0-4.6,6.1-3.2,12.1,2.9c9.6,9.6,6.4,18.2-13.9,38.2c-10.7,10.4-19.6,20.7-19.6,22.8
			c0,2.1-2.5,6.1-5.7,8.6c-4.6,3.9-5.4,8.6-3.6,23.9c3.6,31.4,5.7,33.9,59.6,74.2c31.8,23.6,37.8,32.1,30,42.8
			c-5.7,8.2-16.1,3.9-16.1-6.8c0-15.7-33.2-34.6-51-28.9c-8.2,2.5-27.1,22.1-27.5,28.6c0,6.8,16.4,19.3,26.1,19.3
			c10.4,0,13.2-9.3,5.7-16.8c-7.9-7.9-1.8-11.4,10.7-6.1c10.4,4.3,11.4,6.1,9.3,14.6c-1.1,5.4-12.8,21.4-25.7,35.7
			c-34.3,38.5-36.4,60.3-9.6,99.6c11.4,16.4,39.6,40.7,47.5,40.7c1.8,0,12.1,8.6,23.2,18.9c17.1,16.1,20,20.7,20,31.8
			c0,15.7-5.4,31.4-11.1,31.4c-2.1,0-11.4,3.9-20.7,8.6c-12.1,6.1-18.9,7.5-22.8,5c-7.1-3.9-7.9-10-1.4-10c2.5,0,10.7-6.4,18.2-13.9
			c12.5-12.8,13.6-15.3,11.8-27.8c-1.4-9.3-6.4-17.1-15-25.3c-11.4-10.7-13.9-11.4-34.3-10.4c-22.8,1.1-24.6,2.5-33.9,23.6
			c-5,11.1-5,12.5,2.5,20.3c9.3,10,28.6,11.4,35.7,2.9c3.6-4.6,3.6-6.1-0.4-8.6c-2.5-1.4-6.4-2.1-8.9-1.4c-2.5,1.1-3.9-1.4-3.6-6.4
			c0.4-7.1,2.5-8.2,14.6-8.2c12.1,0,14.6,1.4,20,12.5c3.2,6.8,6.1,13.6,6.4,15c0.4,5.4-21.4,25.7-28.2,26.1
			c-11.8,1.1-35,19.3-40,31.4c-2.9,6.8-5,26.1-5,47.1c0,35.7,0,35.7,12.5,51c7.1,8.2,17.8,16.8,25,18.9c6.8,2.1,15.7,7.1,19.6,10.7
			c3.9,3.6,11.4,7.9,16.8,10c5.7,2.1,10.7,7.5,12.1,12.8c1.4,5.4,5.7,10,10.7,11.1c6.4,1.8,8.6,4.6,8.6,12.5c0,9.6-0.4,10-7.9,6.1
			c-4.6-2.5-12.1-8.2-17.1-12.1c-30.7-26.1-87.4-18.6-101.7,12.8c-14.6,32.1,8.9,53.5,59.6,53.5c13.9,0,27.8-14.3,27.8-28.2
			c0-9.6-1.8-11.1-14.3-14.6c-14.3-3.9-21.4-2.5-21.4,3.9c0,1.8,3.9,3.2,8.9,3.2c12.5,0,15.3,9.6,5.7,18.9
			c-7.1,7.1-8.2,7.5-22.1,2.5c-13.6-5-15.3-7.1-19.3-22.1l-4.3-16.8l15-5.4c22.1-8.6,37.5-7.1,56.4,5c17.5,11.1,23.9,21.8,23.9,38.9
			c0,13.2-6.8,18.9-45,37.5c-28.6,13.9-44.3,25-40.3,28.6c0.7,1.1,19.3,2.5,41.4,3.6c21.8,1.1,42.5,3.2,45.3,4.3
			c3.9,1.4,5.7,0,5.7-3.9c0-4.3,1.8-5.4,7.9-3.2c7.5,2.1,7.5,1.8,3.2-3.6c-2.9-3.2-6.8-5.4-8.9-4.6c-5.4,2.1-3.9-25,1.4-31.4
			c2.1-2.5,7.9-5.7,12.5-6.8c6.4-1.8,9.6-6.4,13.9-21.4c12.1-41.8,4.3-80.3-20.3-100.3c-31.8-25.7-41.8-40-41.8-59.3
			c0-10,2.1-14.6,11.1-21.4c6.1-4.6,16.1-10.4,22.5-12.5l11.1-4.3l-10-3.9c-5.7-2.1-12.5-3.9-15-3.9c-11.8,0-30,12.5-37.5,25.7
			c-7.5,13.6-7.5,14.6-2.1,31.8c5.7,17.1,5.4,24.6-1.4,24.6c-6.4,0-21.4-26.8-21.4-38.5c0-24.3,18.2-49.3,41.8-57.1
			c6.1-2.1,21.1-10.4,33.2-18.2c12.1-8.2,23.9-14.6,26.4-14.6c5.7,0,16.4,12.1,26.4,29.6c10.7,18.9,10.4,46-1.4,80.3
			c-12.5,35.7-12.8,52.1-1.8,60.3c26.4,20.3,26.4,20.3,28.2,43.9c2.1,30-5,59.6-17.8,73.2c-5.4,6.1-10,12.5-10,14.3
			c0,2.1,5.7,10,12.1,17.8c12.8,15,21.4,15.3,11.4,0.4c-8.2-12.8-7.1-20,5.4-43.5c10.7-20,11.1-22.5,8.9-50
			c-2.1-29.6-8.6-50.3-20-65c-11.4-13.9-12.1-27.8-3.2-42.5c6.8-10.7,8.2-17.8,8.2-45.3c0-28.2-1.4-35-9.6-51
			c-12.1-23.2-12.1-31.1-0.4-53.2c11.8-22.5,12.5-37.5,1.4-52.1c-7.9-10.7-8.2-12.5-4.3-35.7c6.1-34.3,5.4-48.9-3.2-80
			c-4.6-16.8-6.4-31.4-5.4-38.5c7.5-36.4,7.9-47.5,3.2-68.2c-2.9-11.8-4.3-24.6-3.2-28.6c0.7-3.9,3.6-14.3,5.7-22.8
			c3.9-15.3-0.4-45.7-7.5-55.7c-1.4-2.1-1.4-21.1,0.4-42.5c2.1-30.3,1.8-41.4-2.1-51c-3.2-7.5-3.9-14.3-2.1-18.2
			c5.7-11.1,2.5-79.6-4.3-95.3c-3.2-7.9-5.4-17.1-4.3-21.1c1.1-3.6-1.8-17.1-5.7-29.6c-6.8-21.1-7.1-23.2-1.4-28.9
			c11.8-13.2,5.4-34.3-9.6-32.1C2868.5,490,2861.4,491.1,2855.3,491.8z M2848.9,652.1c0,5.4-2.9,7.1-15.7,7.9
			c-14.6,1.1-15.3,0.7-11.1-4.6c5.7-6.8,17.8-12.5,23.2-11.1C2847.5,644.6,2848.9,648.1,2848.9,652.1z M2888.2,731.7
			c2.9,9.6-1.1,23.6-9.3,31.1c-5.4,5-7.5,5-12.1,1.4c-3.2-2.9-4.3-6.1-2.1-8.6c1.4-2.1,5-10,7.1-17.5
			C2876.4,723.8,2884.6,720.6,2888.2,731.7z M2877.8,798.4c11.8,12.1,12.1,13.6,12.1,42.8c0,16.8-1.8,33.6-3.9,37.5
			c-4.3,8.2-32.8,21.8-40,18.9c-8.2-3.2-21.4-27.8-21.8-40.3c-0.4-13.9,5.4-17.1,21.8-12.8l9.3,2.1l-8.2,7.5
			c-7.9,7.1-7.9,7.9-1.4,12.5c9.6,7.1,17.8,5.7,25.7-4.3c7.9-10,6.8-23.6-2.5-31.4c-3.2-2.9-13.6-6.1-22.8-7.1
			c-15.7-1.4-18.2-0.7-29.3,10.4c-8.6,8.2-12.5,15.3-12.5,22.5c0,13.9-8.9,21.4-16.8,13.6c-13.2-12.8,0.4-56,17.5-56
			c3.6,0,7.5-2.5,8.2-5.4c5.7-18.2,5.4-17.5,10.4-10.4c5,6.4,5.4,6.4,18.6-3.2c7.9-5.4,16.1-9.6,18.9-9.6
			C2863.5,785.6,2871.4,791.3,2877.8,798.4z M2886.7,931.9c12.1,6.8,6.8,41.8-5.7,36.8c-3.9-1.1-5.4-6.1-5-15
			c0.4-7.1,0.4-14.6-0.4-16.4C2873.2,927.6,2876,926.6,2886.7,931.9z M2883.2,1007.6c13.2,14.3,15,23.6,10,58.9
			c-3.6,26.4-6.1,34.6-12.8,41c-13.2,12.1-10.4,27.8,6.4,36.4c16.1,7.9,21.1,48.5,6.1,51.4c-5.4,1.1-13.6-16.1-19.3-39.6
			c-1.4-6.1-6.8-12.1-13.6-16.1c-6.4-3.2-18.2-13.6-26.4-22.5c-12.5-13.6-15-18.9-15-30.7c0-18.2,8.6-26.4,30.3-28.9
			c16.1-1.8,16.8-1.4,15.3,6.8c-0.7,7.1-3.2,8.6-14.3,8.6c-7.5,0-13.6,1.1-13.6,2.5c0,1.8,0,4.6,0,6.8c0,5.7,36.1,1.4,40-4.6
			c3.6-5.7,3.6-24.6,0-30c-3.9-6.1-35.3-13.2-47.1-11.1c-15.3,3.2-38.9,20-41.4,29.6c-2.5,9.6-7.9,11.1-10.7,3.2
			c-6.1-15.3,12.8-40.3,39.3-51.8c9.3-4.3,17.8-10,18.9-12.8c1.1-3.6,7.9-5,21.1-5C2871.4,999.7,2877.1,1001.5,2883.2,1007.6z
			 M2893.5,1122.9c0,2.9-1.4,5.4-3.2,5.4c-4.6,0-7.9-5.7-5-8.6C2889.2,1115.7,2893.5,1117.5,2893.5,1122.9z M2825.7,1365.2
			c0,1.1-1.4,2.9-3.6,3.9c-1.8,1.1-3.6,0.4-3.6-1.4c0-2.1,1.8-3.9,3.6-3.9C2824.3,1363.8,2825.7,1364.5,2825.7,1365.2z
			 M2911.4,1388.8c0,1.8-0.7,3.6-1.4,3.6c-1.1,0-2.9-1.8-3.9-3.6c-1.1-2.1-0.4-3.6,1.4-3.6
			C2909.6,1385.2,2911.4,1386.6,2911.4,1388.8z M2780.7,1529.8c-1.4,2.9-3.6,4.3-5.4,3.2c-3.9-2.1-0.7-8.6,3.9-8.6
			C2781.1,1524.4,2781.8,1526.9,2780.7,1529.8z"/>
		<path class="st30" d="M2660.4,495.4c-3.6,3.2-2.9,33.9,0.7,39.6c1.4,2.5,7.5,5.7,13.2,7.5c8.6,2.1,10.7,4.6,11.4,15
			c0.7,6.4-0.4,17.8-2.5,24.6c-4.3,13.6-8.2,63.9-7.5,99.2c0.4,12.1-1.4,50.7-3.2,85.7c-5.4,94.2-7.9,183.8-9.3,332.7
			c-1.1,142.8-3.6,208.5-8.2,228.1c-2.1,9.6-6.1,14.3-16.8,20l-14.3,7.1l-0.7,87.4c0,48.2-1.1,93.2-1.8,99.9
			c-1.1,12.1-0.7,12.5,13.2,13.6c18.6,1.4,25.3-6.4,17.8-20.7c-2.9-5.7-7.1-10.7-9.6-11.4c-6.1-2.1-12.8-41-10-56
			c7.1-32.8,10.7-57.5,10.7-71c0-13.2,1.4-15.7,13.9-23.9c11.1-7.5,14.3-12.1,16.1-23.6c1.4-7.9,1.4-15.7,0.4-17.5
			s-0.4-9.6,1.4-16.8c2.1-7.5,3.6-39.3,3.6-70.7c-0.7-120.6-0.4-148.1,1.8-201.7c1.1-30.3,2.9-76.4,3.6-101.7
			c0.4-25.7,2.9-56.8,5-69.6c3.9-23.2,8.2-123.1,9.6-222c0.4-42.1,1.8-53.9,6.1-58.9c3.2-3.6,6.8-13.2,8.2-21.4
			c2.1-13.9,1.4-16.1-12.8-31.4c-12.8-13.9-14.6-17.5-11.1-22.5c7.9-11.1,8.9-15.7,3.9-18.9C2687.6,492.5,2663.6,491.8,2660.4,495.4
			z M2645.8,1360.6c3.2,5.4-3.9,11.8-10.7,9.3c-3.2-1.4-4.6-4.6-3.6-7.9C2634,1355.9,2642.2,1354.9,2645.8,1360.6z"/>
		<path class="st30" d="M2742.5,503.6c1.4,7.5,0.7,10.7-2.5,10.7c-3.6,0-3.6,1.1,0,5.4c5.7,6.8-0.7,63.2-10.7,91
			c-7.5,21.1-9.6,69.2-3.6,73.2c4.3,2.9,4.6,24.3,0.4,28.9c-5.4,5.4-7.5,34.6-3.6,49.6c2.1,7.9,4.6,17.8,5.7,22.1
			c1.1,4.3-1.1,11.8-5.4,17.8c-6.4,8.6-7.1,14.6-6.4,40.3c0.7,16.8,2.9,38.2,5.4,47.8c4.3,16.1,3.9,17.8-2.9,27.5
			c-11.1,15-12.5,28.9-5.7,54.3c5.7,21.1,5.7,23.9,0.4,39.6c-3.6,10-5.7,28.6-5.7,46c0,24.6,1.4,32.1,8.9,46.4l9.3,16.8l-9.3,15.7
			c-12.5,21.4-15.3,48.2-7.1,66.4c6.1,13.2,6.1,14.6,0,29.3c-10.4,25.3-16.1,46.8-16.1,59.6c0,14.6,8.9,49.3,16.1,63.2
			c7.5,14.3,7.1,16.4-7.5,30.3c-17.8,17.1-27.1,36.8-29.3,62.5c-2.1,27.5-0.4,34.6,13.2,55.3c10,14.6,10.4,17.5,7.1,29.6
			c-2.1,7.5-2.9,16.1-1.4,19.3c1.8,4.6,4.6,3.2,14.3-8.2c6.8-7.9,12.1-17.8,12.5-22.1c0-4.6-5.7-15.3-12.5-24.6
			c-11.4-14.6-12.5-18.6-12.1-38.2c0.4-34.3,9.6-59.6,25.7-70c7.1-4.6,13.2-11.1,13.2-13.9c0-3.2-4.3-17.8-9.3-32.5
			c-7.9-23.2-9.3-31.4-7.9-57.8c1.1-24.6,2.9-32.5,9.6-42.1s7.9-13.9,5.7-27.5c-1.1-8.9-4.6-17.1-7.5-18.2
			c-5.7-2.1-7.1-32.8-2.1-38.9c1.8-1.8,6.1-11.1,9.3-20.3c6.4-16.8,6.4-17.5-1.4-36.8c-6.1-14.3-8.2-27.5-8.6-49.6
			c-0.4-30.3-0.4-30.7,11.4-39.6c14.6-11.8,15.7-30,2.5-49.3c-5-7.1-8.9-14.3-8.9-15.7c0-1.8,5.4-11.4,12.1-22.1l12.1-19.3l-10-20
			c-5.4-11.1-11.1-27.5-12.5-36.8c-2.1-15-1.4-18.6,8.6-33.2c12.1-18.9,14.6-37.8,5.7-50.3c-6.4-9.3-2.1-38.9,8.9-56.4
			c7.1-11.4,7.1-11.4,0-19.6c-8.6-10-12.1-27.5-9.3-47.1c1.1-8.6,2.5-18.2,2.9-21.8c0.4-3.2,2.5-6.1,4.6-6.1
			c7.5,0,13.6-16.4,10.7-29.3c-5.4-26.1-0.7-61.8,10.4-73.9c9.6-10.7,3.6-18.2-14.3-18.2C2740.4,492.9,2740.4,492.9,2742.5,503.6z"
			/>
		<path class="st30" d="M2919.9,497.9c-2.9,7.9,1.8,13.9,9.6,11.8c10-2.9,8.2,6.4-3.2,17.8c-5.7,5.4-12.5,16.4-15,24.6
			c-3.6,12.5-3.6,16.1,1.1,23.2c3.2,4.6,6.8,19.6,8.2,33.6c1.4,13.6,3.9,28.2,6.1,31.8c2.1,4.3,3.6,47.5,3.2,107.1
			c0,55.3,1.4,108.2,3.6,118.1c4.6,23.9,6.4,249.9,2.5,267c-2.5,9.6-2.1,19.6,1.8,35.7c7.5,31.4,10.7,78.2,9.6,138.5l-0.7,52.5
			l12.1,7.5c6.8,3.9,15,7.5,18.2,7.5c5,0,5.7,7.9,5.7,72.8c0,86.4-1.1,94.9-12.8,94.9c-5.4,0-8.6,2.1-8.6,5.4
			c0,7.9,9.6,10.7,19.6,6.1c11.1-5,11.8-13.2,13.6-114.2c1.1-56.4,0.4-80.7-2.5-83.2c-2.1-1.4-8.6-6.8-13.9-11.1
			c-5.4-4.6-11.8-14.6-13.9-22.5c-2.5-8.2-4.6-54.3-5.4-108.9c-0.7-52.1-1.8-113.1-2.5-135.6c-0.4-22.5,1.1-62.8,3.9-89.2
			c5-48.5,3.9-99.2-3.2-126.4c-1.8-7.9-4.3-42.5-5-76.7c-1.1-34.6-2.5-67.8-3.6-73.5c-1.1-6.1-2.1-32.5-2.5-58.9
			c-1.1-38.5-2.1-50-7.1-57.5c-6.4-9.6-8.9-38.2-4.6-45.7c1.4-2.1,5-3.9,7.9-3.9c2.9,0,5-1.4,5-2.9c0-1.8,3.9-5,8.9-7.1
			c7.5-3.6,8.9-6.4,8.9-20.3c0-17.8,0-17.8-26.1-21.4C2925.6,492.9,2921.7,493.6,2919.9,497.9z"/>
		<path class="st30" d="M2872.1,1290.3c3.9,10.4-1.1,18.2-15.3,23.6c-11.8,4.3-11.1,11.8,0.7,13.6c17.5,2.5,32.8-23.9,22.8-38.5
			C2873.2,1278.9,2867.8,1279.6,2872.1,1290.3z"/>
	</g>
	<g>
		<path class="st30" d="M955.4,1368.1c-25.8,8.9-38.3,24.2-47.2,57.3c-4.4,16.9-4.4,26.2-0.8,47.2c5.6,32.7,10.5,40.7,33.5,54
			c22.2,12.9,43.6,13.7,71,1.6c27.8-12.1,36.7-31.5,37.1-80.3c0.4-41.1-8.9-62.1-32.7-75.4C994.6,1360.8,980.1,1359.6,955.4,1368.1z
			 M1018.8,1392.7c2.8,0.4,4,1.6,3.2,3.2c-0.8,1.6,0.8,12.5,4,24.6c7.7,27.8,7.7,47.6,0,65.3c-9.7,23.4-40.7,42.4-51.6,31.5
			c-2.4-2.4-8.9-4.4-14.1-4.4c-14.1,0-23.8-6.5-30.7-20.6c-11.3-22.6-6.9-72.2,8.1-88.3c11.3-12.1,37.5-19,57.7-15.3
			C1005.5,1390.6,1015.9,1392.3,1018.8,1392.7z"/>
		<path class="st30" d="M1254.7,1363.6c-28.2,6.5-26.6,16.5,4.4,28.6c25,9.7,27.4,16.9,24.6,79.1c-2.4,47.6-1.6,53.6,4.4,56.1
			c13.3,5.2,16.1-5.2,16.9-64.1l0.4-56.9l11.7-9.7c6.5-5.2,14.9-8.5,20.2-7.7c10.5,2,18.6-5.6,15.3-14.1
			c-2.8-6.9-38.3-12.5-52.8-8.9c-4.8,1.2-10.1,0.4-11.3-2C1285.4,1359.2,1274.5,1358.8,1254.7,1363.6z"/>
		<path class="st30" d="M1418.9,1382.6c-4.4,10.5-11.7,27-16.1,36.3c-4,9.7-7.7,19-7.7,21s-5.6,16.5-12.5,32.7
			c-12.1,29-14.1,52.4-4.8,55.3c2.8,1.2,8.5-5.6,12.9-14.1c11.3-21.8,26.2-33.1,44.8-33.1c19,0,33.1,10.9,44.4,34.3
			c9.3,19,14.9,22.6,19,11.7c2.8-7.3-6.5-49.2-11.7-52.4c-1.6-1.2-3.2-6.5-3.2-11.3c0-5.2-2.4-11.7-5.6-14.1
			c-3.2-2.8-8.1-14.1-10.5-25.4c-2.4-11.7-6.5-23.4-8.9-26.2c-2.4-2.8-5.6-11.3-6.9-18.6c-2-10.1-4.8-13.3-13.7-14.1
			C1428.6,1363.2,1426.1,1365.2,1418.9,1382.6z M1446.7,1424.9c7.3,24.6,8.1,31.1,3.2,36.7c-6.1,8.1-19.8,10.5-28.6,6.1
			c-5.6-3.2-6.5-7.3-4-23c3.6-23.8,8.5-32.7,18.2-32.7C1440.3,1412,1444.3,1416.5,1446.7,1424.9z"/>
		<path class="st30" d="M1628.6,1365.2c-0.8,0.8-14.5,2.4-30.3,3.2c-19.4,1.2-31.9,4-39.1,9.7c-13.7,9.7-27,44.4-27,69.8
			c0,20.2,10.5,56.9,16.1,56.9c2,0,10.9,7.3,19.8,16.1c13.7,13.7,19,16.1,32.7,16.1c8.9,0,23-2.8,31.1-6.1c8.5-3.6,19.8-5.2,25.4-4
			c7.3,1.6,13.7,0,20.2-5.2c8.5-6.9,8.9-9.3,6.1-35.5c-1.6-15.7-4-31.1-6.1-33.9c-2.4-3.6-12.1-5.2-32.7-4.8
			c-15.7,0.4-30.3,1.6-31.5,2.8c-4,4.4,9.3,9.7,18.2,7.7c6.5-1.6,9.7,0.4,13.7,10.9c4.4,10.5,4.4,15.3-0.4,29.4l-5.6,16.5l-25-0.4
			c-28.6-0.4-37.1-5.6-50-30.7c-14.5-28.2-7.7-67.8,14.9-87.5c19.8-17.3,38.3-16.9,61.7,1.6c19.4,15.3,19.8,15.7,28.2,10.5
			c4.8-3.2,4.8-5.6,0-18.6c-4.4-11.7-9.3-16.1-21.8-20.6c-8.9-2.8-16.1-5.6-16.5-5.6C1630.6,1363.6,1629.4,1364.4,1628.6,1365.2z"/>
		<path class="st30" d="M1735.1,1372.5c-8.9,9.3-9.3,12.1-7.7,66.1c0.8,30.7,0,59.7-1.6,63.7c-4.4,13.3,4.4,25.8,20.2,28.6
			c16.9,2.4,92.4,0,95.6-3.6c3.6-3.2-6.1-13.3-14.9-15.7c-4.4-1.2-7.3-0.4-5.6,1.6c2.8,4.4-10.9,4.8-18.2,0
			c-2.8-2-10.1-1.6-16.9,0.8c-10.5,4-12.9,3.2-21.4-5.2c-16.1-16.9-16.5-25.8-1.6-42.4c12.5-14.5,13.7-14.9,33.5-12.9
			c20.6,2,36.3-2.4,32.3-9.7c-1.6-2-13.3-3.6-26.2-3.6c-50,0-68.6-21.4-38.7-45.2c10.9-8.9,16.1-10.5,25-8.1c15.3,4,46.8,0,48.8-6.1
			c2.8-8.5-14.5-13.7-54.5-16.1C1745.6,1362.8,1743.6,1363.2,1735.1,1372.5z"/>
		<path class="st30" d="M1938,1370.1c-4.4,11.7-2.8,144.8,2,149.6c8.9,8.9,15.7,0.8,15.7-17.3c0-12.1,2.8-21.8,8.9-29.8
			c7.7-10.5,11.3-12.1,28.2-12.1c34.7,0,55.7-18.6,55.7-48.8c0-15.7-14.9-39.5-26.2-41.9c-4.4-0.8-24.6-2.4-44.8-4
			C1945.7,1363.6,1940,1364.4,1938,1370.1z M2013.8,1392.3c8.1,6.5,10.5,11.7,10.5,23.4c0,22.6-10.5,30.3-35.9,27.4
			c-27.8-3.2-36.7-9.7-36.7-26.6C1951.7,1386.6,1988.4,1372.5,2013.8,1392.3z"/>
		<path class="st30" d="M756.9,1370.1c-4.4,11.7-2.8,144.8,2,149.6c8.9,8.9,15.7,0.8,15.7-17.3c0-12.1,2.8-21.8,8.9-29.8
			c7.7-10.5,11.3-12.1,28.2-12.1c34.7,0,55.7-18.6,55.7-48.8c0-15.7-14.9-39.5-26.2-41.9c-4.4-0.8-24.6-2.4-44.8-4
			C764.6,1363.6,759,1364.4,756.9,1370.1z M832.8,1392.3c8.1,6.5,10.5,11.7,10.5,23.4c0,22.6-10.5,30.3-35.9,27.4
			c-27.8-3.2-36.7-9.7-36.7-26.6C770.7,1386.6,807.4,1372.5,832.8,1392.3z"/>
		<path class="st30" d="M2111.4,1370.5c-0.8,4-4,18.2-6.5,31.5c-2.8,13.3-8.5,30.3-12.9,37.5c-8.1,12.9-23.4,67.4-23.4,81.9
			c0,12.9,6.5,8.5,16.5-11.3c5.6-10.9,15.3-22.2,22.6-26.6c11.3-6.5,14.9-6.9,30.3-2.4c17.7,5.2,39.5,21.8,39.5,30.3
			c0,6.5,10.9,14.9,13.7,10.5c4.4-7.3-24.2-95.2-29.8-91.6c-1.6,0.8-2-2.4-1.2-7.7c2.8-13.7-16.9-53.2-28.2-56.5
			C2117.9,1362.4,2113.8,1363.2,2111.4,1370.5z M2134.4,1420.5c12.9,14.5,14.1,27.8,3.2,37.5c-10.9,10.1-30.3,7.3-31.9-4.8
			c-1.6-9.3,10.5-45.2,14.9-45.2C2122.3,1408,2128.4,1413.6,2134.4,1420.5z"/>
		<path class="st30" d="M2232.8,1375.7c-5.6,8.9-6.1,13.7-2.8,19.8c2,4.4,4,32.7,4,63.7c0,43.6,1.2,58.1,6.1,64.1
			c13.3,17.3,18.6-12.9,16.5-89.9C2254.6,1366.8,2247.8,1350.3,2232.8,1375.7z"/>
		<path class="st30" d="M2307.5,1367.2c-7.3,4.4-3.2,151.7,4,160.9c3.6,4.4,10.1,4.8,27.4,2.8c12.1-1.6,28.6-3.2,36.3-3.6
			s16.9-2.4,20.2-4.4c3.2-2.4,9.7-6.1,14.1-8.1c4.4-2.4,12.9-14.1,19.4-26.2c9.7-19.4,10.5-25,8.5-48.4c-2.4-29-8.5-48.4-14.9-48.4
			c-2.4,0-2.8-1.2-1.6-2.8c3.6-3.2-4.8-13.3-11.7-13.3c-2.8,0-10.1-2-16.1-4C2378.4,1366,2314.3,1362.8,2307.5,1367.2z
			 M2376.8,1385.8c4.4,3.2,10.9,6.1,14.5,6.1c5.6,0,13.7,12.5,23,35.9c8.1,21-6.5,73-20.6,73c-2.8,0-7.3,4.4-9.7,10.1
			c-4.8,10.1-18.2,13.7-23,6.1c-1.2-2.4-5.6-4-9.3-4s-12.9-6.5-20.6-14.1l-13.3-13.7l3.6-26.6c2-14.5,2.4-26.2,0.4-26.2
			c-1.6,0-2.8-8.1-2.8-17.7c0.8-18.2,6.5-24.2,27.8-31.1C2362.3,1378.9,2368.4,1379.3,2376.8,1385.8z"/>
		<path class="st30" d="M1161.9,1445.2c-0.5-0.1-1.1-0.3-1.6-0.4c-4.9-1.4-9.6-3.4-14.4-5.1c-4.7-1.7-9.8-2.6-14-5.3
			c-6.5-4.1-10-11-10.3-18.6c-0.2-4.3,0.6-8.6,1.7-12.7c3.2-10.5,6.5-13.7,15.3-14.5c17.3-2,30.3,2.4,40.7,13.7
			c5.2,5.6,11.7,9.3,13.7,7.7c8.5-4.8,4.4-22.6-7.3-34.7c-10.1-9.7-14.9-11.7-31.5-11.3c-10.5,0.4-25.4,2.4-32.7,4.4
			c-18.6,6-30.7,27-27.8,48c1.2,9.2,4.1,18.8,10.9,25.5c2.7,2.7,6,4.7,9.7,5.7c5,1.3,10.2,1,15.3,2.6c9.8,3.1,19.1,8.6,28.7,12.5
			c3.2,1.3,6.5,2.6,9.5,4.4c6.4,3.8,11,11.2,13.5,18.2c0.5,1.1,0.9,2.1,1.3,3.2c0,0.5-1.4,25.3-21.3,28.1c-0.5,0.1-0.8,0.1-1.3,0.2
			c-15.3,3.2-43.2-2.4-43.2-8.9c0-5.2-17.3-23.4-22.6-23.4c-2.4,0-5.6,2.4-6.9,5.6c-1.2,3.2,0,8.1,3.2,10.5
			c2.8,2.4,6.5,8.5,7.7,13.3c2.4,10.1,29.8,23,48,23c5.6,0,13.2-2.1,19.9-4.8c0,0,31.2-7.3,36.4-42.2c0-9.8-4.5-19.5-10.1-27.3
			c-2.7-3.8-6-7.2-9.7-10.1C1176.7,1447.9,1169.1,1447.1,1161.9,1445.2z"/>
	</g>
</g>
</svg>
