<?xml version="1.0" encoding="utf-8"?>
<!-- Generator: Adobe Illustrator 27.8.1, SVG Export Plug-In . SVG Version: 6.00 Build 0)  -->
<svg version="1.1" id="Layer_1" xmlns="http://www.w3.org/2000/svg" xmlns:xlink="http://www.w3.org/1999/xlink" x="0px" y="0px"
	 viewBox="0 0 500 500" style="enable-background:new 0 0 500 500;" xml:space="preserve">
<style type="text/css">
	.st0{fill-rule:evenodd;clip-rule:evenodd;}
</style>
<path class="st0" d="M225.3,421.3c1,1.8,2.2,3.4,3.6,5c13.5,15.2,34.7,27.2,55.5,25.6c14.2-1.1,30.4-12.8,41-21.7
	c24.4-20.4,33.5-64.9,34.6-94.9c0.5-13.9,0.3-28-2.9-41.7c-2.5-10.8-6.1-25.2-17.3-30.1c-18-7.9-43.3,7-52.2,22.7
	c-6.6,12.5,0.7,22,21.3,25.1c3.6,0.5,7.2,1.6,10.8,2.3c0.6,0.1,2.1,17.2,2.3,18.9c0.6,6.4,0.1,12.7-0.4,19.1
	c-0.9,12.8-2.6,26.2-9.7,37.2c-13.8,21.5-47.6,11.9-55.2-10.6c-6.5-19.3-2.9-45.2-2.5-65.3c0.4-23.9,1.7-47.9,4-71.7
	c2.8-28.4,46-27.1,66.7-29c8.8-0.8,26.8-7,23.4-19.1c-2.3-8.7-5-17.5-34.7-17.8c-21,1.1-40.5-1.1-48.7-10.2
	c-5.4-6.4-5.2-10.2-5.2-36.7c0-39.1-9.9-61.5-28-74.4c-14.4-12.5-38.2-13.4-57.7-0.6c-14,9-24.9,28.2-35.3,57.1
	c-8.9,25.4-8.9,28.1,3.1,36.4c20.6,15.9,21.7,6.9,30.2-12.4c12.8-48.1,51.6-36.7,52.1,9c0.1,5.5-0.2,13.5-3.9,17.9
	c-6.5,7.9-22.3,13.6-32.3,13.4c-11-0.2-42.5-0.6-42.5,17.6c0,9.1,10.8,18.9,18.2,22.8c10.1,5.2,21.4-3,32.2-1.5
	c25.2,4.2,25.1,10.8,25.1,117.8c-0.7,14-1.1,28-1.2,42C219.7,388.6,217.2,407.5,225.3,421.3z"/>
</svg>
